<?xml version="1.0" encoding="utf-8" standalone="no"?>
<!DOCTYPE svg PUBLIC "-//W3C//DTD SVG 1.1//EN"
  "http://www.w3.org/Graphics/SVG/1.1/DTD/svg11.dtd">
<svg height="288pt" version="1.1" viewBox="0 0 288 288" width="288pt" xmlns="http://www.w3.org/2000/svg" xmlns:xlink="http://www.w3.org/1999/xlink">
 <metadata>
  <rdf:RDF xmlns:cc="http://creativecommons.org/ns#" xmlns:dc="http://purl.org/dc/elements/1.1/" xmlns:rdf="http://www.w3.org/1999/02/22-rdf-syntax-ns#">
   <cc:Work>
    <dc:type rdf:resource="http://purl.org/dc/dcmitype/StillImage"/>
    <dc:date>2021-05-04T20:28:54.604056</dc:date>
    <dc:format>image/svg+xml</dc:format>
    <dc:creator>
     <cc:Agent>
      <dc:title>Matplotlib v3.4.1, https://matplotlib.org/</dc:title>
     </cc:Agent>
    </dc:creator>
   </cc:Work>
  </rdf:RDF>
 </metadata>
 <defs>
  <style type="text/css">*{stroke-linecap:butt;stroke-linejoin:round;}</style>
 </defs>
 <g id="figure_1">
  <g id="patch_1">
   <path d="M 0 288 
L 288 288 
L 288 0 
L 0 0 
z
" style="fill:#ffffff;"/>
  </g>
  <g id="axes_1">
   <g id="patch_2">
    <path d="M 36 256.32 
L 259.2 256.32 
L 259.2 34.56 
L 36 34.56 
z
" style="fill:#ffffff;"/>
   </g>
   <g id="matplotlib.axis_1">
    <g id="xtick_1">
     <g id="line2d_1">
      <defs>
       <path d="M 0 0 
L 0 3.5 
" id="ma96d806b05" style="stroke:#000000;stroke-width:0.8;"/>
      </defs>
      <g>
       <use style="stroke:#000000;stroke-width:0.8;" x="46.145455" xlink:href="#ma96d806b05" y="256.32"/>
      </g>
     </g>
     <g id="text_1">
      <!-- 0 -->
      <g transform="translate(42.964205 270.918437)scale(0.1 -0.1)">
       <defs>
        <path d="M 2034 4250 
Q 1547 4250 1301 3770 
Q 1056 3291 1056 2328 
Q 1056 1369 1301 889 
Q 1547 409 2034 409 
Q 2525 409 2770 889 
Q 3016 1369 3016 2328 
Q 3016 3291 2770 3770 
Q 2525 4250 2034 4250 
z
M 2034 4750 
Q 2819 4750 3233 4129 
Q 3647 3509 3647 2328 
Q 3647 1150 3233 529 
Q 2819 -91 2034 -91 
Q 1250 -91 836 529 
Q 422 1150 422 2328 
Q 422 3509 836 4129 
Q 1250 4750 2034 4750 
z
" id="DejaVuSans-30" transform="scale(0.015625)"/>
       </defs>
       <use xlink:href="#DejaVuSans-30"/>
      </g>
     </g>
    </g>
    <g id="xtick_2">
     <g id="line2d_2">
      <g>
       <use style="stroke:#000000;stroke-width:0.8;" x="109.554545" xlink:href="#ma96d806b05" y="256.32"/>
      </g>
     </g>
     <g id="text_2">
      <!-- 5 -->
      <g transform="translate(106.373295 270.918437)scale(0.1 -0.1)">
       <defs>
        <path d="M 691 4666 
L 3169 4666 
L 3169 4134 
L 1269 4134 
L 1269 2991 
Q 1406 3038 1543 3061 
Q 1681 3084 1819 3084 
Q 2600 3084 3056 2656 
Q 3513 2228 3513 1497 
Q 3513 744 3044 326 
Q 2575 -91 1722 -91 
Q 1428 -91 1123 -41 
Q 819 9 494 109 
L 494 744 
Q 775 591 1075 516 
Q 1375 441 1709 441 
Q 2250 441 2565 725 
Q 2881 1009 2881 1497 
Q 2881 1984 2565 2268 
Q 2250 2553 1709 2553 
Q 1456 2553 1204 2497 
Q 953 2441 691 2322 
L 691 4666 
z
" id="DejaVuSans-35" transform="scale(0.015625)"/>
       </defs>
       <use xlink:href="#DejaVuSans-35"/>
      </g>
     </g>
    </g>
    <g id="xtick_3">
     <g id="line2d_3">
      <g>
       <use style="stroke:#000000;stroke-width:0.8;" x="172.963636" xlink:href="#ma96d806b05" y="256.32"/>
      </g>
     </g>
     <g id="text_3">
      <!-- 10 -->
      <g transform="translate(166.601136 270.918437)scale(0.1 -0.1)">
       <defs>
        <path d="M 794 531 
L 1825 531 
L 1825 4091 
L 703 3866 
L 703 4441 
L 1819 4666 
L 2450 4666 
L 2450 531 
L 3481 531 
L 3481 0 
L 794 0 
L 794 531 
z
" id="DejaVuSans-31" transform="scale(0.015625)"/>
       </defs>
       <use xlink:href="#DejaVuSans-31"/>
       <use x="63.623047" xlink:href="#DejaVuSans-30"/>
      </g>
     </g>
    </g>
    <g id="xtick_4">
     <g id="line2d_4">
      <g>
       <use style="stroke:#000000;stroke-width:0.8;" x="236.372727" xlink:href="#ma96d806b05" y="256.32"/>
      </g>
     </g>
     <g id="text_4">
      <!-- 15 -->
      <g transform="translate(230.010227 270.918437)scale(0.1 -0.1)">
       <use xlink:href="#DejaVuSans-31"/>
       <use x="63.623047" xlink:href="#DejaVuSans-35"/>
      </g>
     </g>
    </g>
    <g id="text_5">
     <!-- Time -->
     <g transform="translate(135.366406 284.596563)scale(0.1 -0.1)">
      <defs>
       <path d="M -19 4666 
L 3928 4666 
L 3928 4134 
L 2272 4134 
L 2272 0 
L 1638 0 
L 1638 4134 
L -19 4134 
L -19 4666 
z
" id="DejaVuSans-54" transform="scale(0.015625)"/>
       <path d="M 603 3500 
L 1178 3500 
L 1178 0 
L 603 0 
L 603 3500 
z
M 603 4863 
L 1178 4863 
L 1178 4134 
L 603 4134 
L 603 4863 
z
" id="DejaVuSans-69" transform="scale(0.015625)"/>
       <path d="M 3328 2828 
Q 3544 3216 3844 3400 
Q 4144 3584 4550 3584 
Q 5097 3584 5394 3201 
Q 5691 2819 5691 2113 
L 5691 0 
L 5113 0 
L 5113 2094 
Q 5113 2597 4934 2840 
Q 4756 3084 4391 3084 
Q 3944 3084 3684 2787 
Q 3425 2491 3425 1978 
L 3425 0 
L 2847 0 
L 2847 2094 
Q 2847 2600 2669 2842 
Q 2491 3084 2119 3084 
Q 1678 3084 1418 2786 
Q 1159 2488 1159 1978 
L 1159 0 
L 581 0 
L 581 3500 
L 1159 3500 
L 1159 2956 
Q 1356 3278 1631 3431 
Q 1906 3584 2284 3584 
Q 2666 3584 2933 3390 
Q 3200 3197 3328 2828 
z
" id="DejaVuSans-6d" transform="scale(0.015625)"/>
       <path d="M 3597 1894 
L 3597 1613 
L 953 1613 
Q 991 1019 1311 708 
Q 1631 397 2203 397 
Q 2534 397 2845 478 
Q 3156 559 3463 722 
L 3463 178 
Q 3153 47 2828 -22 
Q 2503 -91 2169 -91 
Q 1331 -91 842 396 
Q 353 884 353 1716 
Q 353 2575 817 3079 
Q 1281 3584 2069 3584 
Q 2775 3584 3186 3129 
Q 3597 2675 3597 1894 
z
M 3022 2063 
Q 3016 2534 2758 2815 
Q 2500 3097 2075 3097 
Q 1594 3097 1305 2825 
Q 1016 2553 972 2059 
L 3022 2063 
z
" id="DejaVuSans-65" transform="scale(0.015625)"/>
      </defs>
      <use xlink:href="#DejaVuSans-54"/>
      <use x="57.958984" xlink:href="#DejaVuSans-69"/>
      <use x="85.742188" xlink:href="#DejaVuSans-6d"/>
      <use x="183.154297" xlink:href="#DejaVuSans-65"/>
     </g>
    </g>
   </g>
   <g id="matplotlib.axis_2">
    <g id="ytick_1">
     <g id="line2d_5">
      <defs>
       <path d="M 0 0 
L -3.5 0 
" id="mf22684d569" style="stroke:#000000;stroke-width:0.8;"/>
      </defs>
      <g>
       <use style="stroke:#000000;stroke-width:0.8;" x="36" xlink:href="#mf22684d569" y="246.24"/>
      </g>
     </g>
     <g id="text_6">
      <!-- 0 -->
      <g transform="translate(22.6375 250.039219)scale(0.1 -0.1)">
       <use xlink:href="#DejaVuSans-30"/>
      </g>
     </g>
    </g>
    <g id="ytick_2">
     <g id="line2d_6">
      <g>
       <use style="stroke:#000000;stroke-width:0.8;" x="36" xlink:href="#mf22684d569" y="205.92"/>
      </g>
     </g>
     <g id="text_7">
      <!-- 20 -->
      <g transform="translate(16.275 209.719219)scale(0.1 -0.1)">
       <defs>
        <path d="M 1228 531 
L 3431 531 
L 3431 0 
L 469 0 
L 469 531 
Q 828 903 1448 1529 
Q 2069 2156 2228 2338 
Q 2531 2678 2651 2914 
Q 2772 3150 2772 3378 
Q 2772 3750 2511 3984 
Q 2250 4219 1831 4219 
Q 1534 4219 1204 4116 
Q 875 4013 500 3803 
L 500 4441 
Q 881 4594 1212 4672 
Q 1544 4750 1819 4750 
Q 2544 4750 2975 4387 
Q 3406 4025 3406 3419 
Q 3406 3131 3298 2873 
Q 3191 2616 2906 2266 
Q 2828 2175 2409 1742 
Q 1991 1309 1228 531 
z
" id="DejaVuSans-32" transform="scale(0.015625)"/>
       </defs>
       <use xlink:href="#DejaVuSans-32"/>
       <use x="63.623047" xlink:href="#DejaVuSans-30"/>
      </g>
     </g>
    </g>
    <g id="ytick_3">
     <g id="line2d_7">
      <g>
       <use style="stroke:#000000;stroke-width:0.8;" x="36" xlink:href="#mf22684d569" y="165.6"/>
      </g>
     </g>
     <g id="text_8">
      <!-- 40 -->
      <g transform="translate(16.275 169.399219)scale(0.1 -0.1)">
       <defs>
        <path d="M 2419 4116 
L 825 1625 
L 2419 1625 
L 2419 4116 
z
M 2253 4666 
L 3047 4666 
L 3047 1625 
L 3713 1625 
L 3713 1100 
L 3047 1100 
L 3047 0 
L 2419 0 
L 2419 1100 
L 313 1100 
L 313 1709 
L 2253 4666 
z
" id="DejaVuSans-34" transform="scale(0.015625)"/>
       </defs>
       <use xlink:href="#DejaVuSans-34"/>
       <use x="63.623047" xlink:href="#DejaVuSans-30"/>
      </g>
     </g>
    </g>
    <g id="ytick_4">
     <g id="line2d_8">
      <g>
       <use style="stroke:#000000;stroke-width:0.8;" x="36" xlink:href="#mf22684d569" y="125.28"/>
      </g>
     </g>
     <g id="text_9">
      <!-- 60 -->
      <g transform="translate(16.275 129.079219)scale(0.1 -0.1)">
       <defs>
        <path d="M 2113 2584 
Q 1688 2584 1439 2293 
Q 1191 2003 1191 1497 
Q 1191 994 1439 701 
Q 1688 409 2113 409 
Q 2538 409 2786 701 
Q 3034 994 3034 1497 
Q 3034 2003 2786 2293 
Q 2538 2584 2113 2584 
z
M 3366 4563 
L 3366 3988 
Q 3128 4100 2886 4159 
Q 2644 4219 2406 4219 
Q 1781 4219 1451 3797 
Q 1122 3375 1075 2522 
Q 1259 2794 1537 2939 
Q 1816 3084 2150 3084 
Q 2853 3084 3261 2657 
Q 3669 2231 3669 1497 
Q 3669 778 3244 343 
Q 2819 -91 2113 -91 
Q 1303 -91 875 529 
Q 447 1150 447 2328 
Q 447 3434 972 4092 
Q 1497 4750 2381 4750 
Q 2619 4750 2861 4703 
Q 3103 4656 3366 4563 
z
" id="DejaVuSans-36" transform="scale(0.015625)"/>
       </defs>
       <use xlink:href="#DejaVuSans-36"/>
       <use x="63.623047" xlink:href="#DejaVuSans-30"/>
      </g>
     </g>
    </g>
    <g id="ytick_5">
     <g id="line2d_9">
      <g>
       <use style="stroke:#000000;stroke-width:0.8;" x="36" xlink:href="#mf22684d569" y="84.96"/>
      </g>
     </g>
     <g id="text_10">
      <!-- 80 -->
      <g transform="translate(16.275 88.759219)scale(0.1 -0.1)">
       <defs>
        <path d="M 2034 2216 
Q 1584 2216 1326 1975 
Q 1069 1734 1069 1313 
Q 1069 891 1326 650 
Q 1584 409 2034 409 
Q 2484 409 2743 651 
Q 3003 894 3003 1313 
Q 3003 1734 2745 1975 
Q 2488 2216 2034 2216 
z
M 1403 2484 
Q 997 2584 770 2862 
Q 544 3141 544 3541 
Q 544 4100 942 4425 
Q 1341 4750 2034 4750 
Q 2731 4750 3128 4425 
Q 3525 4100 3525 3541 
Q 3525 3141 3298 2862 
Q 3072 2584 2669 2484 
Q 3125 2378 3379 2068 
Q 3634 1759 3634 1313 
Q 3634 634 3220 271 
Q 2806 -91 2034 -91 
Q 1263 -91 848 271 
Q 434 634 434 1313 
Q 434 1759 690 2068 
Q 947 2378 1403 2484 
z
M 1172 3481 
Q 1172 3119 1398 2916 
Q 1625 2713 2034 2713 
Q 2441 2713 2670 2916 
Q 2900 3119 2900 3481 
Q 2900 3844 2670 4047 
Q 2441 4250 2034 4250 
Q 1625 4250 1398 4047 
Q 1172 3844 1172 3481 
z
" id="DejaVuSans-38" transform="scale(0.015625)"/>
       </defs>
       <use xlink:href="#DejaVuSans-38"/>
       <use x="63.623047" xlink:href="#DejaVuSans-30"/>
      </g>
     </g>
    </g>
    <g id="ytick_6">
     <g id="line2d_10">
      <g>
       <use style="stroke:#000000;stroke-width:0.8;" x="36" xlink:href="#mf22684d569" y="44.64"/>
      </g>
     </g>
     <g id="text_11">
      <!-- 100 -->
      <g transform="translate(9.9125 48.439219)scale(0.1 -0.1)">
       <use xlink:href="#DejaVuSans-31"/>
       <use x="63.623047" xlink:href="#DejaVuSans-30"/>
       <use x="127.246094" xlink:href="#DejaVuSans-30"/>
      </g>
     </g>
    </g>
    <g id="text_12">
     <!-- count -->
     <g transform="translate(3.832812 159.54625)rotate(-90)scale(0.1 -0.1)">
      <defs>
       <path d="M 3122 3366 
L 3122 2828 
Q 2878 2963 2633 3030 
Q 2388 3097 2138 3097 
Q 1578 3097 1268 2742 
Q 959 2388 959 1747 
Q 959 1106 1268 751 
Q 1578 397 2138 397 
Q 2388 397 2633 464 
Q 2878 531 3122 666 
L 3122 134 
Q 2881 22 2623 -34 
Q 2366 -91 2075 -91 
Q 1284 -91 818 406 
Q 353 903 353 1747 
Q 353 2603 823 3093 
Q 1294 3584 2113 3584 
Q 2378 3584 2631 3529 
Q 2884 3475 3122 3366 
z
" id="DejaVuSans-63" transform="scale(0.015625)"/>
       <path d="M 1959 3097 
Q 1497 3097 1228 2736 
Q 959 2375 959 1747 
Q 959 1119 1226 758 
Q 1494 397 1959 397 
Q 2419 397 2687 759 
Q 2956 1122 2956 1747 
Q 2956 2369 2687 2733 
Q 2419 3097 1959 3097 
z
M 1959 3584 
Q 2709 3584 3137 3096 
Q 3566 2609 3566 1747 
Q 3566 888 3137 398 
Q 2709 -91 1959 -91 
Q 1206 -91 779 398 
Q 353 888 353 1747 
Q 353 2609 779 3096 
Q 1206 3584 1959 3584 
z
" id="DejaVuSans-6f" transform="scale(0.015625)"/>
       <path d="M 544 1381 
L 544 3500 
L 1119 3500 
L 1119 1403 
Q 1119 906 1312 657 
Q 1506 409 1894 409 
Q 2359 409 2629 706 
Q 2900 1003 2900 1516 
L 2900 3500 
L 3475 3500 
L 3475 0 
L 2900 0 
L 2900 538 
Q 2691 219 2414 64 
Q 2138 -91 1772 -91 
Q 1169 -91 856 284 
Q 544 659 544 1381 
z
M 1991 3584 
L 1991 3584 
z
" id="DejaVuSans-75" transform="scale(0.015625)"/>
       <path d="M 3513 2113 
L 3513 0 
L 2938 0 
L 2938 2094 
Q 2938 2591 2744 2837 
Q 2550 3084 2163 3084 
Q 1697 3084 1428 2787 
Q 1159 2491 1159 1978 
L 1159 0 
L 581 0 
L 581 3500 
L 1159 3500 
L 1159 2956 
Q 1366 3272 1645 3428 
Q 1925 3584 2291 3584 
Q 2894 3584 3203 3211 
Q 3513 2838 3513 2113 
z
" id="DejaVuSans-6e" transform="scale(0.015625)"/>
       <path d="M 1172 4494 
L 1172 3500 
L 2356 3500 
L 2356 3053 
L 1172 3053 
L 1172 1153 
Q 1172 725 1289 603 
Q 1406 481 1766 481 
L 2356 481 
L 2356 0 
L 1766 0 
Q 1100 0 847 248 
Q 594 497 594 1153 
L 594 3053 
L 172 3053 
L 172 3500 
L 594 3500 
L 594 4494 
L 1172 4494 
z
" id="DejaVuSans-74" transform="scale(0.015625)"/>
      </defs>
      <use xlink:href="#DejaVuSans-63"/>
      <use x="54.980469" xlink:href="#DejaVuSans-6f"/>
      <use x="116.162109" xlink:href="#DejaVuSans-75"/>
      <use x="179.541016" xlink:href="#DejaVuSans-6e"/>
      <use x="242.919922" xlink:href="#DejaVuSans-74"/>
     </g>
    </g>
   </g>
   <g id="LineCollection_1">
    <path clip-path="url(#pfb2a2d56d9)" d="M 109.554545 246.24 
L 109.554545 44.64 
" style="fill:none;stroke:#ff0000;stroke-dasharray:5.55,2.4;stroke-dashoffset:0;stroke-width:1.5;"/>
   </g>
   <g id="line2d_11">
    <path clip-path="url(#pfb2a2d56d9)" d="M 46.145455 143.424 
L 47.165098 149.472 
L 51.243672 157.536 
L 52.263316 165.6 
L 53.282959 165.6 
L 54.302603 169.632 
L 55.322246 171.648 
L 57.361534 171.648 
L 58.381177 173.664 
L 61.440108 167.616 
L 62.459726 167.616 
L 63.479344 165.6 
L 64.499089 167.616 
L 65.518707 171.648 
L 66.538325 171.648 
L 67.557944 169.632 
L 68.577562 173.664 
L 69.597307 171.648 
L 70.616925 167.616 
L 71.636543 165.6 
L 72.656161 167.616 
L 73.67578 163.584 
L 74.695525 161.568 
L 75.715143 167.616 
L 78.773997 161.568 
L 79.793742 163.584 
L 80.81336 163.584 
L 82.852597 159.552 
L 84.89196 159.552 
L 85.911578 163.584 
L 86.931196 163.584 
L 87.950815 171.648 
L 89.990178 163.584 
L 93.049032 157.536 
L 94.06865 159.552 
L 95.088395 159.552 
L 96.108014 157.536 
L 97.127632 157.536 
L 98.14725 161.568 
L 99.166868 161.568 
L 100.186613 157.536 
L 104.265086 157.536 
L 105.284831 151.488 
L 109.363304 143.424 
L 110.383049 145.44 
L 111.402667 149.472 
L 112.422285 147.456 
L 113.441903 149.472 
L 114.461521 145.44 
L 115.481266 145.44 
L 116.500885 143.424 
L 117.520503 139.392 
L 118.540121 139.392 
L 119.559739 135.36 
L 121.599102 135.36 
L 123.638339 131.328 
L 125.677702 131.328 
L 126.69732 133.344 
L 127.716938 129.312 
L 129.756175 129.312 
L 130.77592 127.296 
L 131.795538 131.328 
L 132.815156 125.28 
L 133.834774 123.264 
L 134.854392 119.232 
L 135.874137 117.216 
L 136.893755 117.216 
L 137.913374 113.184 
L 138.932992 107.136 
L 139.95261 103.104 
L 141.991973 99.072 
L 143.011591 101.088 
L 145.050828 101.088 
L 146.070573 97.056 
L 147.090191 95.04 
L 148.109809 97.056 
L 149.129427 95.04 
L 150.149172 95.04 
L 151.16879 88.992 
L 152.188409 88.992 
L 153.208027 84.96 
L 155.24739 80.928 
L 156.267008 76.896 
L 157.286626 76.896 
L 158.306245 78.912 
L 159.325863 76.896 
L 160.345608 76.896 
L 161.365226 72.864 
L 163.404462 68.832 
L 166.463444 68.832 
L 167.483062 66.816 
L 171.561661 66.816 
L 174.62115 60.768 
L 176.660386 60.768 
L 177.680005 58.752 
L 185.83695 58.752 
L 187.876186 54.72 
L 188.895805 54.72 
L 189.915423 52.704 
L 192.974277 52.704 
L 195.013514 48.672 
L 197.05275 48.672 
L 198.072368 46.656 
L 204.190077 46.656 
L 205.209695 44.64 
L 249.054545 44.64 
L 249.054545 44.64 
" style="fill:none;stroke:#1f77b4;stroke-linecap:square;stroke-width:1.5;"/>
   </g>
   <g id="line2d_12">
    <path clip-path="url(#pfb2a2d56d9)" d="M 46.145455 147.456 
L 47.165098 153.504 
L 48.184742 157.536 
L 51.243672 163.584 
L 52.263316 173.664 
L 53.282959 173.664 
L 54.302603 175.68 
L 55.322246 171.648 
L 56.34189 169.632 
L 57.361534 171.648 
L 58.381177 175.68 
L 59.400871 173.664 
L 60.42049 173.664 
L 61.440108 175.68 
L 62.459726 175.68 
L 63.479344 173.664 
L 64.499089 179.712 
L 65.518707 181.728 
L 66.538325 179.712 
L 68.577562 183.744 
L 69.597307 183.744 
L 70.616925 185.76 
L 71.636543 185.76 
L 72.656161 187.776 
L 73.67578 185.76 
L 74.695525 187.776 
L 75.715143 191.808 
L 76.734761 191.808 
L 77.754379 189.792 
L 78.773997 189.792 
L 79.793742 191.808 
L 80.81336 187.776 
L 81.832979 189.792 
L 82.852597 189.792 
L 83.872215 187.776 
L 85.911578 195.84 
L 86.931196 193.824 
L 87.950815 203.904 
L 89.990178 203.904 
L 94.06865 195.84 
L 95.088395 197.856 
L 96.108014 197.856 
L 97.127632 199.872 
L 98.14725 203.904 
L 99.166868 203.904 
L 100.186613 201.888 
L 101.206231 201.888 
L 102.22585 205.92 
L 105.284831 211.968 
L 106.304449 209.952 
L 107.324067 209.952 
L 108.343685 207.936 
L 109.363304 207.936 
L 110.383049 209.952 
L 111.402667 213.984 
L 112.422285 213.984 
L 113.441903 218.016 
L 114.461521 220.032 
L 117.520503 220.032 
L 118.540121 218.016 
L 119.559739 218.016 
L 120.579484 220.032 
L 121.599102 218.016 
L 122.61872 218.016 
L 123.638339 216 
L 124.657957 218.016 
L 125.677702 216 
L 126.69732 218.016 
L 127.716938 218.016 
L 128.736556 220.032 
L 130.77592 220.032 
L 131.795538 226.08 
L 132.815156 226.08 
L 133.834774 228.096 
L 134.854392 228.096 
L 135.874137 224.064 
L 136.893755 226.08 
L 137.913374 226.08 
L 138.932992 224.064 
L 140.972355 224.064 
L 143.011591 228.096 
L 144.03121 228.096 
L 145.050828 230.112 
L 147.090191 230.112 
L 148.109809 232.128 
L 151.16879 232.128 
L 152.188409 234.144 
L 153.208027 234.144 
L 154.227645 236.16 
L 156.267008 236.16 
L 158.306245 240.192 
L 162.384844 240.192 
L 163.404462 242.208 
L 164.42408 242.208 
L 165.443825 244.224 
L 172.58128 244.224 
L 173.601532 246.24 
L 249.054545 246.24 
L 249.054545 246.24 
" style="fill:none;stroke:#ff7f0e;stroke-linecap:square;stroke-width:1.5;"/>
   </g>
   <g id="line2d_13">
    <path clip-path="url(#pfb2a2d56d9)" d="M 46.145455 246.24 
L 47.165098 234.144 
L 48.184742 228.096 
L 51.243672 216 
L 52.263316 197.856 
L 53.282959 197.856 
L 54.302603 191.808 
L 56.34189 195.84 
L 57.361534 193.824 
L 58.381177 187.776 
L 59.400871 191.808 
L 60.42049 193.824 
L 62.459726 193.824 
L 63.479344 197.856 
L 64.499089 189.792 
L 65.518707 183.744 
L 66.538325 185.76 
L 67.557944 185.76 
L 68.577562 179.712 
L 71.636543 185.76 
L 72.656161 181.728 
L 73.67578 187.776 
L 74.695525 187.776 
L 75.715143 177.696 
L 76.734761 179.712 
L 77.754379 183.744 
L 78.773997 185.76 
L 79.793742 181.728 
L 80.81336 185.76 
L 81.832979 185.76 
L 83.872215 189.792 
L 84.89196 185.76 
L 85.911578 177.696 
L 86.931196 179.712 
L 87.950815 161.568 
L 93.049032 181.728 
L 94.06865 181.728 
L 95.088395 179.712 
L 96.108014 181.728 
L 97.127632 179.712 
L 98.14725 171.648 
L 99.166868 171.648 
L 100.186613 177.696 
L 101.206231 177.696 
L 102.22585 173.664 
L 104.265086 169.632 
L 106.304449 177.696 
L 107.324067 179.712 
L 108.343685 183.744 
L 109.363304 185.76 
L 110.383049 181.728 
L 111.402667 173.664 
L 112.422285 175.68 
L 113.441903 169.632 
L 114.461521 171.648 
L 115.481266 171.648 
L 116.500885 173.664 
L 117.520503 177.696 
L 118.540121 179.712 
L 119.559739 183.744 
L 120.579484 181.728 
L 122.61872 185.76 
L 123.638339 189.792 
L 124.657957 187.776 
L 125.677702 189.792 
L 126.69732 185.76 
L 127.716938 189.792 
L 128.736556 187.776 
L 129.756175 187.776 
L 130.77592 189.792 
L 131.795538 179.712 
L 132.815156 185.76 
L 133.834774 185.76 
L 134.854392 189.792 
L 135.874137 195.84 
L 136.893755 193.824 
L 137.913374 197.856 
L 138.932992 205.92 
L 139.95261 209.952 
L 140.972355 211.968 
L 141.991973 211.968 
L 143.011591 207.936 
L 144.03121 207.936 
L 145.050828 205.92 
L 146.070573 209.952 
L 147.090191 211.968 
L 148.109809 207.936 
L 149.129427 209.952 
L 150.149172 209.952 
L 151.16879 216 
L 152.188409 213.984 
L 153.208027 218.016 
L 154.227645 218.016 
L 155.24739 220.032 
L 156.267008 224.064 
L 157.286626 222.048 
L 158.306245 218.016 
L 159.325863 220.032 
L 160.345608 220.032 
L 161.365226 224.064 
L 162.384844 226.08 
L 164.42408 226.08 
L 165.443825 224.064 
L 166.463444 224.064 
L 167.483062 226.08 
L 171.561661 226.08 
L 172.58128 228.096 
L 173.601532 228.096 
L 174.62115 230.112 
L 176.660386 230.112 
L 177.680005 232.128 
L 185.83695 232.128 
L 187.876186 236.16 
L 188.895805 236.16 
L 189.915423 238.176 
L 192.974277 238.176 
L 195.013514 242.208 
L 197.05275 242.208 
L 198.072368 244.224 
L 204.190077 244.224 
L 205.209695 246.24 
L 249.054545 246.24 
L 249.054545 246.24 
" style="fill:none;stroke:#2ca02c;stroke-linecap:square;stroke-width:1.5;"/>
   </g>
   <g id="patch_3">
    <path d="M 36 256.32 
L 36 34.56 
" style="fill:none;stroke:#000000;stroke-linecap:square;stroke-linejoin:miter;stroke-width:0.8;"/>
   </g>
   <g id="patch_4">
    <path d="M 259.2 256.32 
L 259.2 34.56 
" style="fill:none;stroke:#000000;stroke-linecap:square;stroke-linejoin:miter;stroke-width:0.8;"/>
   </g>
   <g id="patch_5">
    <path d="M 36 256.32 
L 259.2 256.32 
" style="fill:none;stroke:#000000;stroke-linecap:square;stroke-linejoin:miter;stroke-width:0.8;"/>
   </g>
   <g id="patch_6">
    <path d="M 36 34.56 
L 259.2 34.56 
" style="fill:none;stroke:#000000;stroke-linecap:square;stroke-linejoin:miter;stroke-width:0.8;"/>
   </g>
   <g id="text_13">
    <!-- approximate majority -->
    <g transform="translate(50.554688 28.56)scale(0.18 -0.18)">
     <defs>
      <path d="M 2194 1759 
Q 1497 1759 1228 1600 
Q 959 1441 959 1056 
Q 959 750 1161 570 
Q 1363 391 1709 391 
Q 2188 391 2477 730 
Q 2766 1069 2766 1631 
L 2766 1759 
L 2194 1759 
z
M 3341 1997 
L 3341 0 
L 2766 0 
L 2766 531 
Q 2569 213 2275 61 
Q 1981 -91 1556 -91 
Q 1019 -91 701 211 
Q 384 513 384 1019 
Q 384 1609 779 1909 
Q 1175 2209 1959 2209 
L 2766 2209 
L 2766 2266 
Q 2766 2663 2505 2880 
Q 2244 3097 1772 3097 
Q 1472 3097 1187 3025 
Q 903 2953 641 2809 
L 641 3341 
Q 956 3463 1253 3523 
Q 1550 3584 1831 3584 
Q 2591 3584 2966 3190 
Q 3341 2797 3341 1997 
z
" id="DejaVuSans-61" transform="scale(0.015625)"/>
      <path d="M 1159 525 
L 1159 -1331 
L 581 -1331 
L 581 3500 
L 1159 3500 
L 1159 2969 
Q 1341 3281 1617 3432 
Q 1894 3584 2278 3584 
Q 2916 3584 3314 3078 
Q 3713 2572 3713 1747 
Q 3713 922 3314 415 
Q 2916 -91 2278 -91 
Q 1894 -91 1617 61 
Q 1341 213 1159 525 
z
M 3116 1747 
Q 3116 2381 2855 2742 
Q 2594 3103 2138 3103 
Q 1681 3103 1420 2742 
Q 1159 2381 1159 1747 
Q 1159 1113 1420 752 
Q 1681 391 2138 391 
Q 2594 391 2855 752 
Q 3116 1113 3116 1747 
z
" id="DejaVuSans-70" transform="scale(0.015625)"/>
      <path d="M 2631 2963 
Q 2534 3019 2420 3045 
Q 2306 3072 2169 3072 
Q 1681 3072 1420 2755 
Q 1159 2438 1159 1844 
L 1159 0 
L 581 0 
L 581 3500 
L 1159 3500 
L 1159 2956 
Q 1341 3275 1631 3429 
Q 1922 3584 2338 3584 
Q 2397 3584 2469 3576 
Q 2541 3569 2628 3553 
L 2631 2963 
z
" id="DejaVuSans-72" transform="scale(0.015625)"/>
      <path d="M 3513 3500 
L 2247 1797 
L 3578 0 
L 2900 0 
L 1881 1375 
L 863 0 
L 184 0 
L 1544 1831 
L 300 3500 
L 978 3500 
L 1906 2253 
L 2834 3500 
L 3513 3500 
z
" id="DejaVuSans-78" transform="scale(0.015625)"/>
      <path id="DejaVuSans-20" transform="scale(0.015625)"/>
      <path d="M 603 3500 
L 1178 3500 
L 1178 -63 
Q 1178 -731 923 -1031 
Q 669 -1331 103 -1331 
L -116 -1331 
L -116 -844 
L 38 -844 
Q 366 -844 484 -692 
Q 603 -541 603 -63 
L 603 3500 
z
M 603 4863 
L 1178 4863 
L 1178 4134 
L 603 4134 
L 603 4863 
z
" id="DejaVuSans-6a" transform="scale(0.015625)"/>
      <path d="M 2059 -325 
Q 1816 -950 1584 -1140 
Q 1353 -1331 966 -1331 
L 506 -1331 
L 506 -850 
L 844 -850 
Q 1081 -850 1212 -737 
Q 1344 -625 1503 -206 
L 1606 56 
L 191 3500 
L 800 3500 
L 1894 763 
L 2988 3500 
L 3597 3500 
L 2059 -325 
z
" id="DejaVuSans-79" transform="scale(0.015625)"/>
     </defs>
     <use xlink:href="#DejaVuSans-61"/>
     <use x="61.279297" xlink:href="#DejaVuSans-70"/>
     <use x="124.755859" xlink:href="#DejaVuSans-70"/>
     <use x="188.232422" xlink:href="#DejaVuSans-72"/>
     <use x="227.095703" xlink:href="#DejaVuSans-6f"/>
     <use x="285.152344" xlink:href="#DejaVuSans-78"/>
     <use x="344.332031" xlink:href="#DejaVuSans-69"/>
     <use x="372.115234" xlink:href="#DejaVuSans-6d"/>
     <use x="469.527344" xlink:href="#DejaVuSans-61"/>
     <use x="530.806641" xlink:href="#DejaVuSans-74"/>
     <use x="570.015625" xlink:href="#DejaVuSans-65"/>
     <use x="631.539062" xlink:href="#DejaVuSans-20"/>
     <use x="663.326172" xlink:href="#DejaVuSans-6d"/>
     <use x="760.738281" xlink:href="#DejaVuSans-61"/>
     <use x="822.017578" xlink:href="#DejaVuSans-6a"/>
     <use x="849.800781" xlink:href="#DejaVuSans-6f"/>
     <use x="910.982422" xlink:href="#DejaVuSans-72"/>
     <use x="952.095703" xlink:href="#DejaVuSans-69"/>
     <use x="979.878906" xlink:href="#DejaVuSans-74"/>
     <use x="1019.087891" xlink:href="#DejaVuSans-79"/>
    </g>
   </g>
   <g id="legend_1">
    <g id="patch_7">
     <path d="M 43 86.594375 
L 82.31875 86.594375 
Q 84.31875 86.594375 84.31875 84.594375 
L 84.31875 41.56 
Q 84.31875 39.56 82.31875 39.56 
L 43 39.56 
Q 41 39.56 41 41.56 
L 41 84.594375 
Q 41 86.594375 43 86.594375 
z
" style="fill:#ffffff;opacity:0.8;stroke:#cccccc;stroke-linejoin:miter;"/>
    </g>
    <g id="line2d_14">
     <path d="M 45 47.658438 
L 65 47.658438 
" style="fill:none;stroke:#1f77b4;stroke-linecap:square;stroke-width:1.5;"/>
    </g>
    <g id="line2d_15"/>
    <g id="text_14">
     <!-- A -->
     <g transform="translate(73 51.158438)scale(0.1 -0.1)">
      <defs>
       <path d="M 2188 4044 
L 1331 1722 
L 3047 1722 
L 2188 4044 
z
M 1831 4666 
L 2547 4666 
L 4325 0 
L 3669 0 
L 3244 1197 
L 1141 1197 
L 716 0 
L 50 0 
L 1831 4666 
z
" id="DejaVuSans-41" transform="scale(0.015625)"/>
      </defs>
      <use xlink:href="#DejaVuSans-41"/>
     </g>
    </g>
    <g id="line2d_16">
     <path d="M 45 62.336563 
L 65 62.336563 
" style="fill:none;stroke:#ff7f0e;stroke-linecap:square;stroke-width:1.5;"/>
    </g>
    <g id="line2d_17"/>
    <g id="text_15">
     <!-- B -->
     <g transform="translate(73 65.836563)scale(0.1 -0.1)">
      <defs>
       <path d="M 1259 2228 
L 1259 519 
L 2272 519 
Q 2781 519 3026 730 
Q 3272 941 3272 1375 
Q 3272 1813 3026 2020 
Q 2781 2228 2272 2228 
L 1259 2228 
z
M 1259 4147 
L 1259 2741 
L 2194 2741 
Q 2656 2741 2882 2914 
Q 3109 3088 3109 3444 
Q 3109 3797 2882 3972 
Q 2656 4147 2194 4147 
L 1259 4147 
z
M 628 4666 
L 2241 4666 
Q 2963 4666 3353 4366 
Q 3744 4066 3744 3513 
Q 3744 3084 3544 2831 
Q 3344 2578 2956 2516 
Q 3422 2416 3680 2098 
Q 3938 1781 3938 1306 
Q 3938 681 3513 340 
Q 3088 0 2303 0 
L 628 0 
L 628 4666 
z
" id="DejaVuSans-42" transform="scale(0.015625)"/>
      </defs>
      <use xlink:href="#DejaVuSans-42"/>
     </g>
    </g>
    <g id="line2d_18">
     <path d="M 45 77.014688 
L 65 77.014688 
" style="fill:none;stroke:#2ca02c;stroke-linecap:square;stroke-width:1.5;"/>
    </g>
    <g id="line2d_19"/>
    <g id="text_16">
     <!-- U -->
     <g transform="translate(73 80.514688)scale(0.1 -0.1)">
      <defs>
       <path d="M 556 4666 
L 1191 4666 
L 1191 1831 
Q 1191 1081 1462 751 
Q 1734 422 2344 422 
Q 2950 422 3222 751 
Q 3494 1081 3494 1831 
L 3494 4666 
L 4128 4666 
L 4128 1753 
Q 4128 841 3676 375 
Q 3225 -91 2344 -91 
Q 1459 -91 1007 375 
Q 556 841 556 1753 
L 556 4666 
z
" id="DejaVuSans-55" transform="scale(0.015625)"/>
      </defs>
      <use xlink:href="#DejaVuSans-55"/>
     </g>
    </g>
   </g>
  </g>
 </g>
 <defs>
  <clipPath id="pfb2a2d56d9">
   <rect height="221.76" width="223.2" x="36" y="34.56"/>
  </clipPath>
 </defs>
</svg>
