<?xml version="1.0" encoding="utf-8" standalone="no"?>
<!DOCTYPE svg PUBLIC "-//W3C//DTD SVG 1.1//EN"
  "http://www.w3.org/Graphics/SVG/1.1/DTD/svg11.dtd">
<svg height="261.36pt" version="1.1" viewBox="0 0 410.4 261.36" width="410.4pt" xmlns="http://www.w3.org/2000/svg" xmlns:xlink="http://www.w3.org/1999/xlink">
 <metadata>
  <rdf:RDF xmlns:cc="http://creativecommons.org/ns#" xmlns:dc="http://purl.org/dc/elements/1.1/" xmlns:rdf="http://www.w3.org/1999/02/22-rdf-syntax-ns#">
   <cc:Work>
    <dc:type rdf:resource="http://purl.org/dc/dcmitype/StillImage"/>
    <dc:date>2021-04-30T15:16:53.515315</dc:date>
    <dc:format>image/svg+xml</dc:format>
    <dc:creator>
     <cc:Agent>
      <dc:title>Matplotlib v3.4.1, https://matplotlib.org/</dc:title>
     </cc:Agent>
    </dc:creator>
   </cc:Work>
  </rdf:RDF>
 </metadata>
 <defs>
  <style type="text/css">*{stroke-linecap:butt;stroke-linejoin:round;}</style>
 </defs>
 <g id="figure_1">
  <g id="patch_1">
   <path d="M 0 261.36 
L 410.4 261.36 
L 410.4 0 
L 0 0 
z
" style="fill:#ffffff;"/>
  </g>
  <g id="axes_1">
   <g id="patch_2">
    <path d="M 51.3 232.6104 
L 369.36 232.6104 
L 369.36 31.3632 
L 51.3 31.3632 
z
" style="fill:#ffffff;"/>
   </g>
   <g id="matplotlib.axis_1">
    <g id="xtick_1">
     <g id="line2d_1">
      <defs>
       <path d="M 0 0 
L 0 3.5 
" id="m77b3c6291b" style="stroke:#000000;stroke-width:0.8;"/>
      </defs>
      <g>
       <use style="stroke:#000000;stroke-width:0.8;" x="65.757273" xlink:href="#m77b3c6291b" y="232.6104"/>
      </g>
     </g>
     <g id="text_1">
      <!-- 0 -->
      <g transform="translate(62.576023 247.208838)scale(0.1 -0.1)">
       <defs>
        <path d="M 2034 4250 
Q 1547 4250 1301 3770 
Q 1056 3291 1056 2328 
Q 1056 1369 1301 889 
Q 1547 409 2034 409 
Q 2525 409 2770 889 
Q 3016 1369 3016 2328 
Q 3016 3291 2770 3770 
Q 2525 4250 2034 4250 
z
M 2034 4750 
Q 2819 4750 3233 4129 
Q 3647 3509 3647 2328 
Q 3647 1150 3233 529 
Q 2819 -91 2034 -91 
Q 1250 -91 836 529 
Q 422 1150 422 2328 
Q 422 3509 836 4129 
Q 1250 4750 2034 4750 
z
" id="DejaVuSans-30" transform="scale(0.015625)"/>
       </defs>
       <use xlink:href="#DejaVuSans-30"/>
      </g>
     </g>
    </g>
    <g id="xtick_2">
     <g id="line2d_2">
      <g>
       <use style="stroke:#000000;stroke-width:0.8;" x="113.948182" xlink:href="#m77b3c6291b" y="232.6104"/>
      </g>
     </g>
     <g id="text_2">
      <!-- 5 -->
      <g transform="translate(110.766932 247.208838)scale(0.1 -0.1)">
       <defs>
        <path d="M 691 4666 
L 3169 4666 
L 3169 4134 
L 1269 4134 
L 1269 2991 
Q 1406 3038 1543 3061 
Q 1681 3084 1819 3084 
Q 2600 3084 3056 2656 
Q 3513 2228 3513 1497 
Q 3513 744 3044 326 
Q 2575 -91 1722 -91 
Q 1428 -91 1123 -41 
Q 819 9 494 109 
L 494 744 
Q 775 591 1075 516 
Q 1375 441 1709 441 
Q 2250 441 2565 725 
Q 2881 1009 2881 1497 
Q 2881 1984 2565 2268 
Q 2250 2553 1709 2553 
Q 1456 2553 1204 2497 
Q 953 2441 691 2322 
L 691 4666 
z
" id="DejaVuSans-35" transform="scale(0.015625)"/>
       </defs>
       <use xlink:href="#DejaVuSans-35"/>
      </g>
     </g>
    </g>
    <g id="xtick_3">
     <g id="line2d_3">
      <g>
       <use style="stroke:#000000;stroke-width:0.8;" x="162.139091" xlink:href="#m77b3c6291b" y="232.6104"/>
      </g>
     </g>
     <g id="text_3">
      <!-- 10 -->
      <g transform="translate(155.776591 247.208838)scale(0.1 -0.1)">
       <defs>
        <path d="M 794 531 
L 1825 531 
L 1825 4091 
L 703 3866 
L 703 4441 
L 1819 4666 
L 2450 4666 
L 2450 531 
L 3481 531 
L 3481 0 
L 794 0 
L 794 531 
z
" id="DejaVuSans-31" transform="scale(0.015625)"/>
       </defs>
       <use xlink:href="#DejaVuSans-31"/>
       <use x="63.623047" xlink:href="#DejaVuSans-30"/>
      </g>
     </g>
    </g>
    <g id="xtick_4">
     <g id="line2d_4">
      <g>
       <use style="stroke:#000000;stroke-width:0.8;" x="210.33" xlink:href="#m77b3c6291b" y="232.6104"/>
      </g>
     </g>
     <g id="text_4">
      <!-- 15 -->
      <g transform="translate(203.9675 247.208838)scale(0.1 -0.1)">
       <use xlink:href="#DejaVuSans-31"/>
       <use x="63.623047" xlink:href="#DejaVuSans-35"/>
      </g>
     </g>
    </g>
    <g id="xtick_5">
     <g id="line2d_5">
      <g>
       <use style="stroke:#000000;stroke-width:0.8;" x="258.520909" xlink:href="#m77b3c6291b" y="232.6104"/>
      </g>
     </g>
     <g id="text_5">
      <!-- 20 -->
      <g transform="translate(252.158409 247.208838)scale(0.1 -0.1)">
       <defs>
        <path d="M 1228 531 
L 3431 531 
L 3431 0 
L 469 0 
L 469 531 
Q 828 903 1448 1529 
Q 2069 2156 2228 2338 
Q 2531 2678 2651 2914 
Q 2772 3150 2772 3378 
Q 2772 3750 2511 3984 
Q 2250 4219 1831 4219 
Q 1534 4219 1204 4116 
Q 875 4013 500 3803 
L 500 4441 
Q 881 4594 1212 4672 
Q 1544 4750 1819 4750 
Q 2544 4750 2975 4387 
Q 3406 4025 3406 3419 
Q 3406 3131 3298 2873 
Q 3191 2616 2906 2266 
Q 2828 2175 2409 1742 
Q 1991 1309 1228 531 
z
" id="DejaVuSans-32" transform="scale(0.015625)"/>
       </defs>
       <use xlink:href="#DejaVuSans-32"/>
       <use x="63.623047" xlink:href="#DejaVuSans-30"/>
      </g>
     </g>
    </g>
    <g id="xtick_6">
     <g id="line2d_6">
      <g>
       <use style="stroke:#000000;stroke-width:0.8;" x="306.711818" xlink:href="#m77b3c6291b" y="232.6104"/>
      </g>
     </g>
     <g id="text_6">
      <!-- 25 -->
      <g transform="translate(300.349318 247.208838)scale(0.1 -0.1)">
       <use xlink:href="#DejaVuSans-32"/>
       <use x="63.623047" xlink:href="#DejaVuSans-35"/>
      </g>
     </g>
    </g>
    <g id="xtick_7">
     <g id="line2d_7">
      <g>
       <use style="stroke:#000000;stroke-width:0.8;" x="354.902727" xlink:href="#m77b3c6291b" y="232.6104"/>
      </g>
     </g>
     <g id="text_7">
      <!-- 30 -->
      <g transform="translate(348.540227 247.208838)scale(0.1 -0.1)">
       <defs>
        <path d="M 2597 2516 
Q 3050 2419 3304 2112 
Q 3559 1806 3559 1356 
Q 3559 666 3084 287 
Q 2609 -91 1734 -91 
Q 1441 -91 1130 -33 
Q 819 25 488 141 
L 488 750 
Q 750 597 1062 519 
Q 1375 441 1716 441 
Q 2309 441 2620 675 
Q 2931 909 2931 1356 
Q 2931 1769 2642 2001 
Q 2353 2234 1838 2234 
L 1294 2234 
L 1294 2753 
L 1863 2753 
Q 2328 2753 2575 2939 
Q 2822 3125 2822 3475 
Q 2822 3834 2567 4026 
Q 2313 4219 1838 4219 
Q 1578 4219 1281 4162 
Q 984 4106 628 3988 
L 628 4550 
Q 988 4650 1302 4700 
Q 1616 4750 1894 4750 
Q 2613 4750 3031 4423 
Q 3450 4097 3450 3541 
Q 3450 3153 3228 2886 
Q 3006 2619 2597 2516 
z
" id="DejaVuSans-33" transform="scale(0.015625)"/>
       </defs>
       <use xlink:href="#DejaVuSans-33"/>
       <use x="63.623047" xlink:href="#DejaVuSans-30"/>
      </g>
     </g>
    </g>
    <g id="text_8">
     <!-- Time -->
     <g transform="translate(198.096406 260.886963)scale(0.1 -0.1)">
      <defs>
       <path d="M -19 4666 
L 3928 4666 
L 3928 4134 
L 2272 4134 
L 2272 0 
L 1638 0 
L 1638 4134 
L -19 4134 
L -19 4666 
z
" id="DejaVuSans-54" transform="scale(0.015625)"/>
       <path d="M 603 3500 
L 1178 3500 
L 1178 0 
L 603 0 
L 603 3500 
z
M 603 4863 
L 1178 4863 
L 1178 4134 
L 603 4134 
L 603 4863 
z
" id="DejaVuSans-69" transform="scale(0.015625)"/>
       <path d="M 3328 2828 
Q 3544 3216 3844 3400 
Q 4144 3584 4550 3584 
Q 5097 3584 5394 3201 
Q 5691 2819 5691 2113 
L 5691 0 
L 5113 0 
L 5113 2094 
Q 5113 2597 4934 2840 
Q 4756 3084 4391 3084 
Q 3944 3084 3684 2787 
Q 3425 2491 3425 1978 
L 3425 0 
L 2847 0 
L 2847 2094 
Q 2847 2600 2669 2842 
Q 2491 3084 2119 3084 
Q 1678 3084 1418 2786 
Q 1159 2488 1159 1978 
L 1159 0 
L 581 0 
L 581 3500 
L 1159 3500 
L 1159 2956 
Q 1356 3278 1631 3431 
Q 1906 3584 2284 3584 
Q 2666 3584 2933 3390 
Q 3200 3197 3328 2828 
z
" id="DejaVuSans-6d" transform="scale(0.015625)"/>
       <path d="M 3597 1894 
L 3597 1613 
L 953 1613 
Q 991 1019 1311 708 
Q 1631 397 2203 397 
Q 2534 397 2845 478 
Q 3156 559 3463 722 
L 3463 178 
Q 3153 47 2828 -22 
Q 2503 -91 2169 -91 
Q 1331 -91 842 396 
Q 353 884 353 1716 
Q 353 2575 817 3079 
Q 1281 3584 2069 3584 
Q 2775 3584 3186 3129 
Q 3597 2675 3597 1894 
z
M 3022 2063 
Q 3016 2534 2758 2815 
Q 2500 3097 2075 3097 
Q 1594 3097 1305 2825 
Q 1016 2553 972 2059 
L 3022 2063 
z
" id="DejaVuSans-65" transform="scale(0.015625)"/>
      </defs>
      <use xlink:href="#DejaVuSans-54"/>
      <use x="57.958984" xlink:href="#DejaVuSans-69"/>
      <use x="85.742188" xlink:href="#DejaVuSans-6d"/>
      <use x="183.154297" xlink:href="#DejaVuSans-65"/>
     </g>
    </g>
   </g>
   <g id="matplotlib.axis_2">
    <g id="ytick_1">
     <g id="line2d_8">
      <defs>
       <path d="M 0 0 
L -3.5 0 
" id="m119fcfc7b6" style="stroke:#000000;stroke-width:0.8;"/>
      </defs>
      <g>
       <use style="stroke:#000000;stroke-width:0.8;" x="51.3" xlink:href="#m119fcfc7b6" y="223.4628"/>
      </g>
     </g>
     <g id="text_9">
      <!-- 0 -->
      <g transform="translate(37.9375 227.262019)scale(0.1 -0.1)">
       <use xlink:href="#DejaVuSans-30"/>
      </g>
     </g>
    </g>
    <g id="ytick_2">
     <g id="line2d_9">
      <g>
       <use style="stroke:#000000;stroke-width:0.8;" x="51.3" xlink:href="#m119fcfc7b6" y="186.8724"/>
      </g>
     </g>
     <g id="text_10">
      <!-- 20 -->
      <g transform="translate(31.575 190.671619)scale(0.1 -0.1)">
       <use xlink:href="#DejaVuSans-32"/>
       <use x="63.623047" xlink:href="#DejaVuSans-30"/>
      </g>
     </g>
    </g>
    <g id="ytick_3">
     <g id="line2d_10">
      <g>
       <use style="stroke:#000000;stroke-width:0.8;" x="51.3" xlink:href="#m119fcfc7b6" y="150.282"/>
      </g>
     </g>
     <g id="text_11">
      <!-- 40 -->
      <g transform="translate(31.575 154.081219)scale(0.1 -0.1)">
       <defs>
        <path d="M 2419 4116 
L 825 1625 
L 2419 1625 
L 2419 4116 
z
M 2253 4666 
L 3047 4666 
L 3047 1625 
L 3713 1625 
L 3713 1100 
L 3047 1100 
L 3047 0 
L 2419 0 
L 2419 1100 
L 313 1100 
L 313 1709 
L 2253 4666 
z
" id="DejaVuSans-34" transform="scale(0.015625)"/>
       </defs>
       <use xlink:href="#DejaVuSans-34"/>
       <use x="63.623047" xlink:href="#DejaVuSans-30"/>
      </g>
     </g>
    </g>
    <g id="ytick_4">
     <g id="line2d_11">
      <g>
       <use style="stroke:#000000;stroke-width:0.8;" x="51.3" xlink:href="#m119fcfc7b6" y="113.6916"/>
      </g>
     </g>
     <g id="text_12">
      <!-- 60 -->
      <g transform="translate(31.575 117.490819)scale(0.1 -0.1)">
       <defs>
        <path d="M 2113 2584 
Q 1688 2584 1439 2293 
Q 1191 2003 1191 1497 
Q 1191 994 1439 701 
Q 1688 409 2113 409 
Q 2538 409 2786 701 
Q 3034 994 3034 1497 
Q 3034 2003 2786 2293 
Q 2538 2584 2113 2584 
z
M 3366 4563 
L 3366 3988 
Q 3128 4100 2886 4159 
Q 2644 4219 2406 4219 
Q 1781 4219 1451 3797 
Q 1122 3375 1075 2522 
Q 1259 2794 1537 2939 
Q 1816 3084 2150 3084 
Q 2853 3084 3261 2657 
Q 3669 2231 3669 1497 
Q 3669 778 3244 343 
Q 2819 -91 2113 -91 
Q 1303 -91 875 529 
Q 447 1150 447 2328 
Q 447 3434 972 4092 
Q 1497 4750 2381 4750 
Q 2619 4750 2861 4703 
Q 3103 4656 3366 4563 
z
" id="DejaVuSans-36" transform="scale(0.015625)"/>
       </defs>
       <use xlink:href="#DejaVuSans-36"/>
       <use x="63.623047" xlink:href="#DejaVuSans-30"/>
      </g>
     </g>
    </g>
    <g id="ytick_5">
     <g id="line2d_12">
      <g>
       <use style="stroke:#000000;stroke-width:0.8;" x="51.3" xlink:href="#m119fcfc7b6" y="77.1012"/>
      </g>
     </g>
     <g id="text_13">
      <!-- 80 -->
      <g transform="translate(31.575 80.900419)scale(0.1 -0.1)">
       <defs>
        <path d="M 2034 2216 
Q 1584 2216 1326 1975 
Q 1069 1734 1069 1313 
Q 1069 891 1326 650 
Q 1584 409 2034 409 
Q 2484 409 2743 651 
Q 3003 894 3003 1313 
Q 3003 1734 2745 1975 
Q 2488 2216 2034 2216 
z
M 1403 2484 
Q 997 2584 770 2862 
Q 544 3141 544 3541 
Q 544 4100 942 4425 
Q 1341 4750 2034 4750 
Q 2731 4750 3128 4425 
Q 3525 4100 3525 3541 
Q 3525 3141 3298 2862 
Q 3072 2584 2669 2484 
Q 3125 2378 3379 2068 
Q 3634 1759 3634 1313 
Q 3634 634 3220 271 
Q 2806 -91 2034 -91 
Q 1263 -91 848 271 
Q 434 634 434 1313 
Q 434 1759 690 2068 
Q 947 2378 1403 2484 
z
M 1172 3481 
Q 1172 3119 1398 2916 
Q 1625 2713 2034 2713 
Q 2441 2713 2670 2916 
Q 2900 3119 2900 3481 
Q 2900 3844 2670 4047 
Q 2441 4250 2034 4250 
Q 1625 4250 1398 4047 
Q 1172 3844 1172 3481 
z
" id="DejaVuSans-38" transform="scale(0.015625)"/>
       </defs>
       <use xlink:href="#DejaVuSans-38"/>
       <use x="63.623047" xlink:href="#DejaVuSans-30"/>
      </g>
     </g>
    </g>
    <g id="ytick_6">
     <g id="line2d_13">
      <g>
       <use style="stroke:#000000;stroke-width:0.8;" x="51.3" xlink:href="#m119fcfc7b6" y="40.5108"/>
      </g>
     </g>
     <g id="text_14">
      <!-- 100 -->
      <g transform="translate(25.2125 44.310019)scale(0.1 -0.1)">
       <use xlink:href="#DejaVuSans-31"/>
       <use x="63.623047" xlink:href="#DejaVuSans-30"/>
       <use x="127.246094" xlink:href="#DejaVuSans-30"/>
      </g>
     </g>
    </g>
    <g id="text_15">
     <!-- Value -->
     <g transform="translate(19.132812 145.71805)rotate(-90)scale(0.1 -0.1)">
      <defs>
       <path d="M 1831 0 
L 50 4666 
L 709 4666 
L 2188 738 
L 3669 4666 
L 4325 4666 
L 2547 0 
L 1831 0 
z
" id="DejaVuSans-56" transform="scale(0.015625)"/>
       <path d="M 2194 1759 
Q 1497 1759 1228 1600 
Q 959 1441 959 1056 
Q 959 750 1161 570 
Q 1363 391 1709 391 
Q 2188 391 2477 730 
Q 2766 1069 2766 1631 
L 2766 1759 
L 2194 1759 
z
M 3341 1997 
L 3341 0 
L 2766 0 
L 2766 531 
Q 2569 213 2275 61 
Q 1981 -91 1556 -91 
Q 1019 -91 701 211 
Q 384 513 384 1019 
Q 384 1609 779 1909 
Q 1175 2209 1959 2209 
L 2766 2209 
L 2766 2266 
Q 2766 2663 2505 2880 
Q 2244 3097 1772 3097 
Q 1472 3097 1187 3025 
Q 903 2953 641 2809 
L 641 3341 
Q 956 3463 1253 3523 
Q 1550 3584 1831 3584 
Q 2591 3584 2966 3190 
Q 3341 2797 3341 1997 
z
" id="DejaVuSans-61" transform="scale(0.015625)"/>
       <path d="M 603 4863 
L 1178 4863 
L 1178 0 
L 603 0 
L 603 4863 
z
" id="DejaVuSans-6c" transform="scale(0.015625)"/>
       <path d="M 544 1381 
L 544 3500 
L 1119 3500 
L 1119 1403 
Q 1119 906 1312 657 
Q 1506 409 1894 409 
Q 2359 409 2629 706 
Q 2900 1003 2900 1516 
L 2900 3500 
L 3475 3500 
L 3475 0 
L 2900 0 
L 2900 538 
Q 2691 219 2414 64 
Q 2138 -91 1772 -91 
Q 1169 -91 856 284 
Q 544 659 544 1381 
z
M 1991 3584 
L 1991 3584 
z
" id="DejaVuSans-75" transform="scale(0.015625)"/>
      </defs>
      <use xlink:href="#DejaVuSans-56"/>
      <use x="60.658203" xlink:href="#DejaVuSans-61"/>
      <use x="121.9375" xlink:href="#DejaVuSans-6c"/>
      <use x="149.720703" xlink:href="#DejaVuSans-75"/>
      <use x="213.099609" xlink:href="#DejaVuSans-65"/>
     </g>
    </g>
   </g>
   <g id="LineCollection_1">
    <path clip-path="url(#pfcabd6dbc1)" d="M 113.948182 223.4628 
L 113.948182 40.5108 
" style="fill:none;stroke:#ff0000;stroke-dasharray:5.55,2.4;stroke-dashoffset:0;stroke-width:1.5;"/>
   </g>
   <g id="line2d_14">
    <path clip-path="url(#pfcabd6dbc1)" d="M 65.757273 130.15728 
L 66.72431 131.9868 
L 68.658394 139.30488 
L 69.625441 146.62296 
L 70.592479 146.62296 
L 71.559526 148.45248 
L 72.526563 146.62296 
L 73.49361 148.45248 
L 75.427646 155.77056 
L 76.394741 155.77056 
L 77.36174 157.60008 
L 78.328835 155.77056 
L 80.262929 159.4296 
L 81.229928 159.4296 
L 82.197023 155.77056 
L 85.098116 161.25912 
L 86.065115 161.25912 
L 87.03221 159.4296 
L 87.999209 161.25912 
L 88.966304 157.60008 
L 89.933302 159.4296 
L 90.900398 163.08864 
L 91.867396 164.91816 
L 92.834395 163.08864 
L 93.80149 168.5772 
L 94.768489 168.5772 
L 96.702583 175.89528 
L 99.603772 175.89528 
L 100.570771 174.06576 
L 102.504865 177.7248 
L 104.438959 177.7248 
L 105.405958 179.55432 
L 106.373053 185.04288 
L 107.340052 194.19048 
L 108.307147 194.19048 
L 109.274146 192.36096 
L 111.208239 192.36096 
L 112.175238 188.70192 
L 113.142333 186.8724 
L 114.109332 188.70192 
L 115.076427 192.36096 
L 119.911614 192.36096 
L 123.779802 199.67904 
L 124.746801 197.84952 
L 126.680895 197.84952 
L 128.614989 194.19048 
L 129.581987 196.02 
L 134.41727 196.02 
L 135.384269 197.84952 
L 136.351268 197.84952 
L 138.285362 201.50856 
L 140.219456 201.50856 
L 141.186551 203.33808 
L 142.15355 201.50856 
L 143.120645 201.50856 
L 145.054643 205.1676 
L 146.021738 208.82664 
L 146.988737 210.65616 
L 147.955832 210.65616 
L 150.856924 216.14472 
L 151.82402 216.14472 
L 152.791018 217.97424 
L 153.758017 217.97424 
L 154.725112 216.14472 
L 156.659206 216.14472 
L 157.626205 217.97424 
L 168.264155 217.97424 
L 169.230865 219.80376 
L 173.098667 219.80376 
L 174.066341 221.63328 
L 177.934143 221.63328 
L 178.900853 223.4628 
L 354.902727 223.4628 
L 354.902727 223.4628 
" style="fill:none;stroke:#1f77b4;stroke-linecap:square;stroke-width:1.5;"/>
   </g>
   <g id="line2d_15">
    <path clip-path="url(#pfcabd6dbc1)" d="M 65.757273 133.81632 
L 66.72431 135.64584 
L 68.658394 142.96392 
L 69.625441 148.45248 
L 70.592479 148.45248 
L 71.559526 150.282 
L 73.49361 146.62296 
L 75.427646 153.94104 
L 78.328835 153.94104 
L 79.295834 157.60008 
L 80.262929 155.77056 
L 81.229928 155.77056 
L 82.197023 152.11152 
L 83.164022 155.77056 
L 84.131021 150.282 
L 85.098116 150.282 
L 86.065115 148.45248 
L 87.03221 148.45248 
L 87.999209 150.282 
L 88.966304 148.45248 
L 89.933302 144.79344 
L 90.900398 148.45248 
L 91.867396 150.282 
L 92.834395 150.282 
L 93.80149 155.77056 
L 96.702583 150.282 
L 98.636677 150.282 
L 99.603772 146.62296 
L 102.504865 152.11152 
L 103.471864 150.282 
L 104.438959 152.11152 
L 105.405958 150.282 
L 106.373053 153.94104 
L 107.340052 159.4296 
L 108.307147 157.60008 
L 109.274146 153.94104 
L 111.208239 150.282 
L 112.175238 152.11152 
L 113.142333 152.11152 
L 114.109332 153.94104 
L 115.076427 157.60008 
L 116.043426 157.60008 
L 117.010521 152.11152 
L 118.944519 152.11152 
L 120.878613 155.77056 
L 122.812707 152.11152 
L 123.779802 153.94104 
L 124.746801 153.94104 
L 127.647893 142.96392 
L 128.614989 142.96392 
L 129.581987 141.1344 
L 130.549083 135.64584 
L 131.516081 135.64584 
L 132.483177 131.9868 
L 133.450175 130.15728 
L 134.41727 122.8392 
L 136.351268 115.52112 
L 137.318363 117.35064 
L 138.285362 113.6916 
L 142.15355 106.37352 
L 143.120645 102.71448 
L 145.054643 102.71448 
L 146.988737 99.05544 
L 147.955832 95.3964 
L 148.92283 95.3964 
L 149.889926 97.22592 
L 150.856924 97.22592 
L 151.82402 95.3964 
L 152.791018 95.3964 
L 156.659206 88.07832 
L 157.626205 89.90784 
L 158.5933 89.90784 
L 159.560299 82.58976 
L 160.527394 77.1012 
L 161.494393 73.44216 
L 162.461006 73.44216 
L 163.42868 67.9536 
L 164.395389 66.12408 
L 165.362099 62.46504 
L 167.296482 62.46504 
L 168.264155 60.63552 
L 169.230865 62.46504 
L 170.197575 60.63552 
L 171.165248 60.63552 
L 173.098667 56.97648 
L 174.066341 56.97648 
L 176.967434 51.48792 
L 178.900853 51.48792 
L 179.868526 47.82888 
L 180.835236 45.99936 
L 181.801946 45.99936 
L 183.736329 42.34032 
L 201.142885 42.34032 
L 202.110559 40.5108 
L 354.902727 40.5108 
L 354.902727 40.5108 
" style="fill:none;stroke:#ff7f0e;stroke-linecap:square;stroke-width:1.5;"/>
   </g>
   <g id="line2d_16">
    <path clip-path="url(#pfcabd6dbc1)" d="M 65.757273 223.4628 
L 66.72431 219.80376 
L 68.658394 205.1676 
L 69.625441 192.36096 
L 70.592479 192.36096 
L 71.559526 188.70192 
L 72.526563 192.36096 
L 73.49361 192.36096 
L 75.427646 177.7248 
L 76.394741 177.7248 
L 77.36174 175.89528 
L 78.328835 177.7248 
L 79.295834 172.23624 
L 81.229928 172.23624 
L 82.197023 179.55432 
L 83.164022 174.06576 
L 84.131021 177.7248 
L 85.098116 175.89528 
L 87.03221 179.55432 
L 87.999209 175.89528 
L 88.966304 181.38384 
L 89.933302 183.21336 
L 90.900398 175.89528 
L 91.867396 172.23624 
L 92.834395 174.06576 
L 93.80149 163.08864 
L 94.768489 164.91816 
L 96.702583 161.25912 
L 98.636677 161.25912 
L 99.603772 164.91816 
L 100.570771 164.91816 
L 102.504865 157.60008 
L 103.471864 159.4296 
L 104.438959 157.60008 
L 105.405958 157.60008 
L 106.373053 148.45248 
L 107.340052 133.81632 
L 108.307147 135.64584 
L 109.274146 141.1344 
L 113.142333 148.45248 
L 114.109332 144.79344 
L 115.076427 137.47536 
L 116.043426 137.47536 
L 117.010521 142.96392 
L 118.944519 142.96392 
L 119.911614 141.1344 
L 120.878613 137.47536 
L 122.812707 137.47536 
L 123.779802 133.81632 
L 124.746801 135.64584 
L 126.680895 142.96392 
L 127.647893 148.45248 
L 128.614989 150.282 
L 129.581987 150.282 
L 130.549083 155.77056 
L 131.516081 155.77056 
L 132.483177 159.4296 
L 133.450175 161.25912 
L 134.41727 168.5772 
L 135.384269 170.40672 
L 136.351268 174.06576 
L 137.318363 170.40672 
L 140.219456 175.89528 
L 141.186551 175.89528 
L 143.120645 183.21336 
L 146.021738 177.7248 
L 146.988737 177.7248 
L 147.955832 181.38384 
L 148.92283 179.55432 
L 149.889926 175.89528 
L 150.856924 174.06576 
L 151.82402 175.89528 
L 152.791018 174.06576 
L 153.758017 175.89528 
L 154.725112 179.55432 
L 156.659206 183.21336 
L 157.626205 179.55432 
L 158.5933 179.55432 
L 159.560299 186.8724 
L 160.527394 192.36096 
L 161.494393 196.02 
L 162.461006 196.02 
L 163.42868 201.50856 
L 164.395389 203.33808 
L 165.362099 206.99712 
L 167.296482 206.99712 
L 168.264155 208.82664 
L 169.230865 205.1676 
L 170.197575 206.99712 
L 171.165248 206.99712 
L 173.098667 210.65616 
L 174.066341 208.82664 
L 176.967434 214.3152 
L 177.934143 214.3152 
L 178.900853 212.48568 
L 179.868526 216.14472 
L 180.835236 217.97424 
L 181.801946 217.97424 
L 183.736329 221.63328 
L 201.142885 221.63328 
L 202.110559 223.4628 
L 354.902727 223.4628 
L 354.902727 223.4628 
" style="fill:none;stroke:#2ca02c;stroke-linecap:square;stroke-width:1.5;"/>
   </g>
   <g id="patch_3">
    <path d="M 51.3 232.6104 
L 51.3 31.3632 
" style="fill:none;stroke:#000000;stroke-linecap:square;stroke-linejoin:miter;stroke-width:0.8;"/>
   </g>
   <g id="patch_4">
    <path d="M 369.36 232.6104 
L 369.36 31.3632 
" style="fill:none;stroke:#000000;stroke-linecap:square;stroke-linejoin:miter;stroke-width:0.8;"/>
   </g>
   <g id="patch_5">
    <path d="M 51.3 232.6104 
L 369.36 232.6104 
" style="fill:none;stroke:#000000;stroke-linecap:square;stroke-linejoin:miter;stroke-width:0.8;"/>
   </g>
   <g id="patch_6">
    <path d="M 51.3 31.3632 
L 369.36 31.3632 
" style="fill:none;stroke:#000000;stroke-linecap:square;stroke-linejoin:miter;stroke-width:0.8;"/>
   </g>
   <g id="text_16">
    <!-- Approximate Majority -->
    <g transform="translate(113.644688 25.3632)scale(0.18 -0.18)">
     <defs>
      <path d="M 2188 4044 
L 1331 1722 
L 3047 1722 
L 2188 4044 
z
M 1831 4666 
L 2547 4666 
L 4325 0 
L 3669 0 
L 3244 1197 
L 1141 1197 
L 716 0 
L 50 0 
L 1831 4666 
z
" id="DejaVuSans-41" transform="scale(0.015625)"/>
      <path d="M 1159 525 
L 1159 -1331 
L 581 -1331 
L 581 3500 
L 1159 3500 
L 1159 2969 
Q 1341 3281 1617 3432 
Q 1894 3584 2278 3584 
Q 2916 3584 3314 3078 
Q 3713 2572 3713 1747 
Q 3713 922 3314 415 
Q 2916 -91 2278 -91 
Q 1894 -91 1617 61 
Q 1341 213 1159 525 
z
M 3116 1747 
Q 3116 2381 2855 2742 
Q 2594 3103 2138 3103 
Q 1681 3103 1420 2742 
Q 1159 2381 1159 1747 
Q 1159 1113 1420 752 
Q 1681 391 2138 391 
Q 2594 391 2855 752 
Q 3116 1113 3116 1747 
z
" id="DejaVuSans-70" transform="scale(0.015625)"/>
      <path d="M 2631 2963 
Q 2534 3019 2420 3045 
Q 2306 3072 2169 3072 
Q 1681 3072 1420 2755 
Q 1159 2438 1159 1844 
L 1159 0 
L 581 0 
L 581 3500 
L 1159 3500 
L 1159 2956 
Q 1341 3275 1631 3429 
Q 1922 3584 2338 3584 
Q 2397 3584 2469 3576 
Q 2541 3569 2628 3553 
L 2631 2963 
z
" id="DejaVuSans-72" transform="scale(0.015625)"/>
      <path d="M 1959 3097 
Q 1497 3097 1228 2736 
Q 959 2375 959 1747 
Q 959 1119 1226 758 
Q 1494 397 1959 397 
Q 2419 397 2687 759 
Q 2956 1122 2956 1747 
Q 2956 2369 2687 2733 
Q 2419 3097 1959 3097 
z
M 1959 3584 
Q 2709 3584 3137 3096 
Q 3566 2609 3566 1747 
Q 3566 888 3137 398 
Q 2709 -91 1959 -91 
Q 1206 -91 779 398 
Q 353 888 353 1747 
Q 353 2609 779 3096 
Q 1206 3584 1959 3584 
z
" id="DejaVuSans-6f" transform="scale(0.015625)"/>
      <path d="M 3513 3500 
L 2247 1797 
L 3578 0 
L 2900 0 
L 1881 1375 
L 863 0 
L 184 0 
L 1544 1831 
L 300 3500 
L 978 3500 
L 1906 2253 
L 2834 3500 
L 3513 3500 
z
" id="DejaVuSans-78" transform="scale(0.015625)"/>
      <path d="M 1172 4494 
L 1172 3500 
L 2356 3500 
L 2356 3053 
L 1172 3053 
L 1172 1153 
Q 1172 725 1289 603 
Q 1406 481 1766 481 
L 2356 481 
L 2356 0 
L 1766 0 
Q 1100 0 847 248 
Q 594 497 594 1153 
L 594 3053 
L 172 3053 
L 172 3500 
L 594 3500 
L 594 4494 
L 1172 4494 
z
" id="DejaVuSans-74" transform="scale(0.015625)"/>
      <path id="DejaVuSans-20" transform="scale(0.015625)"/>
      <path d="M 628 4666 
L 1569 4666 
L 2759 1491 
L 3956 4666 
L 4897 4666 
L 4897 0 
L 4281 0 
L 4281 4097 
L 3078 897 
L 2444 897 
L 1241 4097 
L 1241 0 
L 628 0 
L 628 4666 
z
" id="DejaVuSans-4d" transform="scale(0.015625)"/>
      <path d="M 603 3500 
L 1178 3500 
L 1178 -63 
Q 1178 -731 923 -1031 
Q 669 -1331 103 -1331 
L -116 -1331 
L -116 -844 
L 38 -844 
Q 366 -844 484 -692 
Q 603 -541 603 -63 
L 603 3500 
z
M 603 4863 
L 1178 4863 
L 1178 4134 
L 603 4134 
L 603 4863 
z
" id="DejaVuSans-6a" transform="scale(0.015625)"/>
      <path d="M 2059 -325 
Q 1816 -950 1584 -1140 
Q 1353 -1331 966 -1331 
L 506 -1331 
L 506 -850 
L 844 -850 
Q 1081 -850 1212 -737 
Q 1344 -625 1503 -206 
L 1606 56 
L 191 3500 
L 800 3500 
L 1894 763 
L 2988 3500 
L 3597 3500 
L 2059 -325 
z
" id="DejaVuSans-79" transform="scale(0.015625)"/>
     </defs>
     <use xlink:href="#DejaVuSans-41"/>
     <use x="68.408203" xlink:href="#DejaVuSans-70"/>
     <use x="131.884766" xlink:href="#DejaVuSans-70"/>
     <use x="195.361328" xlink:href="#DejaVuSans-72"/>
     <use x="234.224609" xlink:href="#DejaVuSans-6f"/>
     <use x="292.28125" xlink:href="#DejaVuSans-78"/>
     <use x="351.460938" xlink:href="#DejaVuSans-69"/>
     <use x="379.244141" xlink:href="#DejaVuSans-6d"/>
     <use x="476.65625" xlink:href="#DejaVuSans-61"/>
     <use x="537.935547" xlink:href="#DejaVuSans-74"/>
     <use x="577.144531" xlink:href="#DejaVuSans-65"/>
     <use x="638.667969" xlink:href="#DejaVuSans-20"/>
     <use x="670.455078" xlink:href="#DejaVuSans-4d"/>
     <use x="756.734375" xlink:href="#DejaVuSans-61"/>
     <use x="818.013672" xlink:href="#DejaVuSans-6a"/>
     <use x="845.796875" xlink:href="#DejaVuSans-6f"/>
     <use x="906.978516" xlink:href="#DejaVuSans-72"/>
     <use x="948.091797" xlink:href="#DejaVuSans-69"/>
     <use x="975.875" xlink:href="#DejaVuSans-74"/>
     <use x="1015.083984" xlink:href="#DejaVuSans-79"/>
    </g>
   </g>
   <g id="legend_1">
    <g id="patch_7">
     <path d="M 58.3 83.397575 
L 97.61875 83.397575 
Q 99.61875 83.397575 99.61875 81.397575 
L 99.61875 38.3632 
Q 99.61875 36.3632 97.61875 36.3632 
L 58.3 36.3632 
Q 56.3 36.3632 56.3 38.3632 
L 56.3 81.397575 
Q 56.3 83.397575 58.3 83.397575 
z
" style="fill:#ffffff;opacity:0.8;stroke:#cccccc;stroke-linejoin:miter;"/>
    </g>
    <g id="line2d_17">
     <path d="M 60.3 44.461638 
L 80.3 44.461638 
" style="fill:none;stroke:#1f77b4;stroke-linecap:square;stroke-width:1.5;"/>
    </g>
    <g id="line2d_18"/>
    <g id="text_17">
     <!-- A -->
     <g transform="translate(88.3 47.961638)scale(0.1 -0.1)">
      <use xlink:href="#DejaVuSans-41"/>
     </g>
    </g>
    <g id="line2d_19">
     <path d="M 60.3 59.139763 
L 80.3 59.139763 
" style="fill:none;stroke:#ff7f0e;stroke-linecap:square;stroke-width:1.5;"/>
    </g>
    <g id="line2d_20"/>
    <g id="text_18">
     <!-- B -->
     <g transform="translate(88.3 62.639763)scale(0.1 -0.1)">
      <defs>
       <path d="M 1259 2228 
L 1259 519 
L 2272 519 
Q 2781 519 3026 730 
Q 3272 941 3272 1375 
Q 3272 1813 3026 2020 
Q 2781 2228 2272 2228 
L 1259 2228 
z
M 1259 4147 
L 1259 2741 
L 2194 2741 
Q 2656 2741 2882 2914 
Q 3109 3088 3109 3444 
Q 3109 3797 2882 3972 
Q 2656 4147 2194 4147 
L 1259 4147 
z
M 628 4666 
L 2241 4666 
Q 2963 4666 3353 4366 
Q 3744 4066 3744 3513 
Q 3744 3084 3544 2831 
Q 3344 2578 2956 2516 
Q 3422 2416 3680 2098 
Q 3938 1781 3938 1306 
Q 3938 681 3513 340 
Q 3088 0 2303 0 
L 628 0 
L 628 4666 
z
" id="DejaVuSans-42" transform="scale(0.015625)"/>
      </defs>
      <use xlink:href="#DejaVuSans-42"/>
     </g>
    </g>
    <g id="line2d_21">
     <path d="M 60.3 73.817888 
L 80.3 73.817888 
" style="fill:none;stroke:#2ca02c;stroke-linecap:square;stroke-width:1.5;"/>
    </g>
    <g id="line2d_22"/>
    <g id="text_19">
     <!-- U -->
     <g transform="translate(88.3 77.317888)scale(0.1 -0.1)">
      <defs>
       <path d="M 556 4666 
L 1191 4666 
L 1191 1831 
Q 1191 1081 1462 751 
Q 1734 422 2344 422 
Q 2950 422 3222 751 
Q 3494 1081 3494 1831 
L 3494 4666 
L 4128 4666 
L 4128 1753 
Q 4128 841 3676 375 
Q 3225 -91 2344 -91 
Q 1459 -91 1007 375 
Q 556 841 556 1753 
L 556 4666 
z
" id="DejaVuSans-55" transform="scale(0.015625)"/>
      </defs>
      <use xlink:href="#DejaVuSans-55"/>
     </g>
    </g>
   </g>
  </g>
 </g>
 <defs>
  <clipPath id="pfcabd6dbc1">
   <rect height="201.2472" width="318.06" x="51.3" y="31.3632"/>
  </clipPath>
 </defs>
</svg>
