<?xml version="1.0" encoding="utf-8" standalone="no"?>
<!DOCTYPE svg PUBLIC "-//W3C//DTD SVG 1.1//EN"
  "http://www.w3.org/Graphics/SVG/1.1/DTD/svg11.dtd">
<svg height="347.04pt" version="1.1" viewBox="0 0 452.16 347.04" width="452.16pt" xmlns="http://www.w3.org/2000/svg" xmlns:xlink="http://www.w3.org/1999/xlink">
 <metadata>
  <rdf:RDF xmlns:cc="http://creativecommons.org/ns#" xmlns:dc="http://purl.org/dc/elements/1.1/" xmlns:rdf="http://www.w3.org/1999/02/22-rdf-syntax-ns#">
   <cc:Work>
    <dc:type rdf:resource="http://purl.org/dc/dcmitype/StillImage"/>
    <dc:date>2021-05-01T13:00:27.244509</dc:date>
    <dc:format>image/svg+xml</dc:format>
    <dc:creator>
     <cc:Agent>
      <dc:title>Matplotlib v3.4.1, https://matplotlib.org/</dc:title>
     </cc:Agent>
    </dc:creator>
   </cc:Work>
  </rdf:RDF>
 </metadata>
 <defs>
  <style type="text/css">*{stroke-linecap:butt;stroke-linejoin:round;}</style>
 </defs>
 <g id="figure_1">
  <g id="patch_1">
   <path d="M 0 347.04 
L 452.16 347.04 
L 452.16 0 
L 0 0 
z
" style="fill:#ffffff;"/>
  </g>
  <g id="axes_1">
   <g id="patch_2">
    <path d="M 56.52 277.632 
L 406.944 277.632 
L 406.944 41.6448 
L 56.52 41.6448 
z
" style="fill:#ffffff;"/>
   </g>
   <g id="matplotlib.axis_1">
    <g id="xtick_1">
     <g id="line2d_1">
      <defs>
       <path d="M 0 0 
L 0 3.5 
" id="m7a31276805" style="stroke:#000000;stroke-width:0.8;"/>
      </defs>
      <g>
       <use style="stroke:#000000;stroke-width:0.8;" x="56.52" xlink:href="#m7a31276805" y="277.632"/>
      </g>
     </g>
     <g id="text_1">
      <!-- 00:00:00 -->
      <g transform="translate(42.592206 321.76284)rotate(-45)scale(0.1 -0.1)">
       <defs>
        <path d="M 2034 4250 
Q 1547 4250 1301 3770 
Q 1056 3291 1056 2328 
Q 1056 1369 1301 889 
Q 1547 409 2034 409 
Q 2525 409 2770 889 
Q 3016 1369 3016 2328 
Q 3016 3291 2770 3770 
Q 2525 4250 2034 4250 
z
M 2034 4750 
Q 2819 4750 3233 4129 
Q 3647 3509 3647 2328 
Q 3647 1150 3233 529 
Q 2819 -91 2034 -91 
Q 1250 -91 836 529 
Q 422 1150 422 2328 
Q 422 3509 836 4129 
Q 1250 4750 2034 4750 
z
" id="DejaVuSans-30" transform="scale(0.015625)"/>
        <path d="M 750 794 
L 1409 794 
L 1409 0 
L 750 0 
L 750 794 
z
M 750 3309 
L 1409 3309 
L 1409 2516 
L 750 2516 
L 750 3309 
z
" id="DejaVuSans-3a" transform="scale(0.015625)"/>
       </defs>
       <use xlink:href="#DejaVuSans-30"/>
       <use x="63.623047" xlink:href="#DejaVuSans-30"/>
       <use x="127.246094" xlink:href="#DejaVuSans-3a"/>
       <use x="160.9375" xlink:href="#DejaVuSans-30"/>
       <use x="224.560547" xlink:href="#DejaVuSans-30"/>
       <use x="288.183594" xlink:href="#DejaVuSans-3a"/>
       <use x="321.875" xlink:href="#DejaVuSans-30"/>
       <use x="385.498047" xlink:href="#DejaVuSans-30"/>
      </g>
     </g>
    </g>
    <g id="xtick_2">
     <g id="line2d_2">
      <g>
       <use style="stroke:#000000;stroke-width:0.8;" x="105.154537" xlink:href="#m7a31276805" y="277.632"/>
      </g>
     </g>
     <g id="text_2">
      <!-- 05:33:20 -->
      <g transform="translate(91.226743 321.76284)rotate(-45)scale(0.1 -0.1)">
       <defs>
        <path d="M 691 4666 
L 3169 4666 
L 3169 4134 
L 1269 4134 
L 1269 2991 
Q 1406 3038 1543 3061 
Q 1681 3084 1819 3084 
Q 2600 3084 3056 2656 
Q 3513 2228 3513 1497 
Q 3513 744 3044 326 
Q 2575 -91 1722 -91 
Q 1428 -91 1123 -41 
Q 819 9 494 109 
L 494 744 
Q 775 591 1075 516 
Q 1375 441 1709 441 
Q 2250 441 2565 725 
Q 2881 1009 2881 1497 
Q 2881 1984 2565 2268 
Q 2250 2553 1709 2553 
Q 1456 2553 1204 2497 
Q 953 2441 691 2322 
L 691 4666 
z
" id="DejaVuSans-35" transform="scale(0.015625)"/>
        <path d="M 2597 2516 
Q 3050 2419 3304 2112 
Q 3559 1806 3559 1356 
Q 3559 666 3084 287 
Q 2609 -91 1734 -91 
Q 1441 -91 1130 -33 
Q 819 25 488 141 
L 488 750 
Q 750 597 1062 519 
Q 1375 441 1716 441 
Q 2309 441 2620 675 
Q 2931 909 2931 1356 
Q 2931 1769 2642 2001 
Q 2353 2234 1838 2234 
L 1294 2234 
L 1294 2753 
L 1863 2753 
Q 2328 2753 2575 2939 
Q 2822 3125 2822 3475 
Q 2822 3834 2567 4026 
Q 2313 4219 1838 4219 
Q 1578 4219 1281 4162 
Q 984 4106 628 3988 
L 628 4550 
Q 988 4650 1302 4700 
Q 1616 4750 1894 4750 
Q 2613 4750 3031 4423 
Q 3450 4097 3450 3541 
Q 3450 3153 3228 2886 
Q 3006 2619 2597 2516 
z
" id="DejaVuSans-33" transform="scale(0.015625)"/>
        <path d="M 1228 531 
L 3431 531 
L 3431 0 
L 469 0 
L 469 531 
Q 828 903 1448 1529 
Q 2069 2156 2228 2338 
Q 2531 2678 2651 2914 
Q 2772 3150 2772 3378 
Q 2772 3750 2511 3984 
Q 2250 4219 1831 4219 
Q 1534 4219 1204 4116 
Q 875 4013 500 3803 
L 500 4441 
Q 881 4594 1212 4672 
Q 1544 4750 1819 4750 
Q 2544 4750 2975 4387 
Q 3406 4025 3406 3419 
Q 3406 3131 3298 2873 
Q 3191 2616 2906 2266 
Q 2828 2175 2409 1742 
Q 1991 1309 1228 531 
z
" id="DejaVuSans-32" transform="scale(0.015625)"/>
       </defs>
       <use xlink:href="#DejaVuSans-30"/>
       <use x="63.623047" xlink:href="#DejaVuSans-35"/>
       <use x="127.246094" xlink:href="#DejaVuSans-3a"/>
       <use x="160.9375" xlink:href="#DejaVuSans-33"/>
       <use x="224.560547" xlink:href="#DejaVuSans-33"/>
       <use x="288.183594" xlink:href="#DejaVuSans-3a"/>
       <use x="321.875" xlink:href="#DejaVuSans-32"/>
       <use x="385.498047" xlink:href="#DejaVuSans-30"/>
      </g>
     </g>
    </g>
    <g id="xtick_3">
     <g id="line2d_3">
      <g>
       <use style="stroke:#000000;stroke-width:0.8;" x="153.789075" xlink:href="#m7a31276805" y="277.632"/>
      </g>
     </g>
     <g id="text_3">
      <!-- 11:06:40 -->
      <g transform="translate(139.861281 321.76284)rotate(-45)scale(0.1 -0.1)">
       <defs>
        <path d="M 794 531 
L 1825 531 
L 1825 4091 
L 703 3866 
L 703 4441 
L 1819 4666 
L 2450 4666 
L 2450 531 
L 3481 531 
L 3481 0 
L 794 0 
L 794 531 
z
" id="DejaVuSans-31" transform="scale(0.015625)"/>
        <path d="M 2113 2584 
Q 1688 2584 1439 2293 
Q 1191 2003 1191 1497 
Q 1191 994 1439 701 
Q 1688 409 2113 409 
Q 2538 409 2786 701 
Q 3034 994 3034 1497 
Q 3034 2003 2786 2293 
Q 2538 2584 2113 2584 
z
M 3366 4563 
L 3366 3988 
Q 3128 4100 2886 4159 
Q 2644 4219 2406 4219 
Q 1781 4219 1451 3797 
Q 1122 3375 1075 2522 
Q 1259 2794 1537 2939 
Q 1816 3084 2150 3084 
Q 2853 3084 3261 2657 
Q 3669 2231 3669 1497 
Q 3669 778 3244 343 
Q 2819 -91 2113 -91 
Q 1303 -91 875 529 
Q 447 1150 447 2328 
Q 447 3434 972 4092 
Q 1497 4750 2381 4750 
Q 2619 4750 2861 4703 
Q 3103 4656 3366 4563 
z
" id="DejaVuSans-36" transform="scale(0.015625)"/>
        <path d="M 2419 4116 
L 825 1625 
L 2419 1625 
L 2419 4116 
z
M 2253 4666 
L 3047 4666 
L 3047 1625 
L 3713 1625 
L 3713 1100 
L 3047 1100 
L 3047 0 
L 2419 0 
L 2419 1100 
L 313 1100 
L 313 1709 
L 2253 4666 
z
" id="DejaVuSans-34" transform="scale(0.015625)"/>
       </defs>
       <use xlink:href="#DejaVuSans-31"/>
       <use x="63.623047" xlink:href="#DejaVuSans-31"/>
       <use x="127.246094" xlink:href="#DejaVuSans-3a"/>
       <use x="160.9375" xlink:href="#DejaVuSans-30"/>
       <use x="224.560547" xlink:href="#DejaVuSans-36"/>
       <use x="288.183594" xlink:href="#DejaVuSans-3a"/>
       <use x="321.875" xlink:href="#DejaVuSans-34"/>
       <use x="385.498047" xlink:href="#DejaVuSans-30"/>
      </g>
     </g>
    </g>
    <g id="xtick_4">
     <g id="line2d_4">
      <g>
       <use style="stroke:#000000;stroke-width:0.8;" x="202.423612" xlink:href="#m7a31276805" y="277.632"/>
      </g>
     </g>
     <g id="text_4">
      <!-- 16:40:00 -->
      <g transform="translate(188.495818 321.76284)rotate(-45)scale(0.1 -0.1)">
       <use xlink:href="#DejaVuSans-31"/>
       <use x="63.623047" xlink:href="#DejaVuSans-36"/>
       <use x="127.246094" xlink:href="#DejaVuSans-3a"/>
       <use x="160.9375" xlink:href="#DejaVuSans-34"/>
       <use x="224.560547" xlink:href="#DejaVuSans-30"/>
       <use x="288.183594" xlink:href="#DejaVuSans-3a"/>
       <use x="321.875" xlink:href="#DejaVuSans-30"/>
       <use x="385.498047" xlink:href="#DejaVuSans-30"/>
      </g>
     </g>
    </g>
    <g id="xtick_5">
     <g id="line2d_5">
      <g>
       <use style="stroke:#000000;stroke-width:0.8;" x="251.058149" xlink:href="#m7a31276805" y="277.632"/>
      </g>
     </g>
     <g id="text_5">
      <!-- 22:13:20 -->
      <g transform="translate(237.130355 321.76284)rotate(-45)scale(0.1 -0.1)">
       <use xlink:href="#DejaVuSans-32"/>
       <use x="63.623047" xlink:href="#DejaVuSans-32"/>
       <use x="127.246094" xlink:href="#DejaVuSans-3a"/>
       <use x="160.9375" xlink:href="#DejaVuSans-31"/>
       <use x="224.560547" xlink:href="#DejaVuSans-33"/>
       <use x="288.183594" xlink:href="#DejaVuSans-3a"/>
       <use x="321.875" xlink:href="#DejaVuSans-32"/>
       <use x="385.498047" xlink:href="#DejaVuSans-30"/>
      </g>
     </g>
    </g>
    <g id="xtick_6">
     <g id="line2d_6">
      <g>
       <use style="stroke:#000000;stroke-width:0.8;" x="299.692687" xlink:href="#m7a31276805" y="277.632"/>
      </g>
     </g>
     <g id="text_6">
      <!-- 1 days 03:46:40 -->
      <g transform="translate(272.922618 347.447389)rotate(-45)scale(0.1 -0.1)">
       <defs>
        <path id="DejaVuSans-20" transform="scale(0.015625)"/>
        <path d="M 2906 2969 
L 2906 4863 
L 3481 4863 
L 3481 0 
L 2906 0 
L 2906 525 
Q 2725 213 2448 61 
Q 2172 -91 1784 -91 
Q 1150 -91 751 415 
Q 353 922 353 1747 
Q 353 2572 751 3078 
Q 1150 3584 1784 3584 
Q 2172 3584 2448 3432 
Q 2725 3281 2906 2969 
z
M 947 1747 
Q 947 1113 1208 752 
Q 1469 391 1925 391 
Q 2381 391 2643 752 
Q 2906 1113 2906 1747 
Q 2906 2381 2643 2742 
Q 2381 3103 1925 3103 
Q 1469 3103 1208 2742 
Q 947 2381 947 1747 
z
" id="DejaVuSans-64" transform="scale(0.015625)"/>
        <path d="M 2194 1759 
Q 1497 1759 1228 1600 
Q 959 1441 959 1056 
Q 959 750 1161 570 
Q 1363 391 1709 391 
Q 2188 391 2477 730 
Q 2766 1069 2766 1631 
L 2766 1759 
L 2194 1759 
z
M 3341 1997 
L 3341 0 
L 2766 0 
L 2766 531 
Q 2569 213 2275 61 
Q 1981 -91 1556 -91 
Q 1019 -91 701 211 
Q 384 513 384 1019 
Q 384 1609 779 1909 
Q 1175 2209 1959 2209 
L 2766 2209 
L 2766 2266 
Q 2766 2663 2505 2880 
Q 2244 3097 1772 3097 
Q 1472 3097 1187 3025 
Q 903 2953 641 2809 
L 641 3341 
Q 956 3463 1253 3523 
Q 1550 3584 1831 3584 
Q 2591 3584 2966 3190 
Q 3341 2797 3341 1997 
z
" id="DejaVuSans-61" transform="scale(0.015625)"/>
        <path d="M 2059 -325 
Q 1816 -950 1584 -1140 
Q 1353 -1331 966 -1331 
L 506 -1331 
L 506 -850 
L 844 -850 
Q 1081 -850 1212 -737 
Q 1344 -625 1503 -206 
L 1606 56 
L 191 3500 
L 800 3500 
L 1894 763 
L 2988 3500 
L 3597 3500 
L 2059 -325 
z
" id="DejaVuSans-79" transform="scale(0.015625)"/>
        <path d="M 2834 3397 
L 2834 2853 
Q 2591 2978 2328 3040 
Q 2066 3103 1784 3103 
Q 1356 3103 1142 2972 
Q 928 2841 928 2578 
Q 928 2378 1081 2264 
Q 1234 2150 1697 2047 
L 1894 2003 
Q 2506 1872 2764 1633 
Q 3022 1394 3022 966 
Q 3022 478 2636 193 
Q 2250 -91 1575 -91 
Q 1294 -91 989 -36 
Q 684 19 347 128 
L 347 722 
Q 666 556 975 473 
Q 1284 391 1588 391 
Q 1994 391 2212 530 
Q 2431 669 2431 922 
Q 2431 1156 2273 1281 
Q 2116 1406 1581 1522 
L 1381 1569 
Q 847 1681 609 1914 
Q 372 2147 372 2553 
Q 372 3047 722 3315 
Q 1072 3584 1716 3584 
Q 2034 3584 2315 3537 
Q 2597 3491 2834 3397 
z
" id="DejaVuSans-73" transform="scale(0.015625)"/>
       </defs>
       <use xlink:href="#DejaVuSans-31"/>
       <use x="63.623047" xlink:href="#DejaVuSans-20"/>
       <use x="95.410156" xlink:href="#DejaVuSans-64"/>
       <use x="158.886719" xlink:href="#DejaVuSans-61"/>
       <use x="220.166016" xlink:href="#DejaVuSans-79"/>
       <use x="279.345703" xlink:href="#DejaVuSans-73"/>
       <use x="331.445312" xlink:href="#DejaVuSans-20"/>
       <use x="363.232422" xlink:href="#DejaVuSans-30"/>
       <use x="426.855469" xlink:href="#DejaVuSans-33"/>
       <use x="490.478516" xlink:href="#DejaVuSans-3a"/>
       <use x="524.169922" xlink:href="#DejaVuSans-34"/>
       <use x="587.792969" xlink:href="#DejaVuSans-36"/>
       <use x="651.416016" xlink:href="#DejaVuSans-3a"/>
       <use x="685.107422" xlink:href="#DejaVuSans-34"/>
       <use x="748.730469" xlink:href="#DejaVuSans-30"/>
      </g>
     </g>
    </g>
    <g id="xtick_7">
     <g id="line2d_7">
      <g>
       <use style="stroke:#000000;stroke-width:0.8;" x="348.327224" xlink:href="#m7a31276805" y="277.632"/>
      </g>
     </g>
     <g id="text_7">
      <!-- 1 days 09:20:00 -->
      <g transform="translate(321.557156 347.447389)rotate(-45)scale(0.1 -0.1)">
       <defs>
        <path d="M 703 97 
L 703 672 
Q 941 559 1184 500 
Q 1428 441 1663 441 
Q 2288 441 2617 861 
Q 2947 1281 2994 2138 
Q 2813 1869 2534 1725 
Q 2256 1581 1919 1581 
Q 1219 1581 811 2004 
Q 403 2428 403 3163 
Q 403 3881 828 4315 
Q 1253 4750 1959 4750 
Q 2769 4750 3195 4129 
Q 3622 3509 3622 2328 
Q 3622 1225 3098 567 
Q 2575 -91 1691 -91 
Q 1453 -91 1209 -44 
Q 966 3 703 97 
z
M 1959 2075 
Q 2384 2075 2632 2365 
Q 2881 2656 2881 3163 
Q 2881 3666 2632 3958 
Q 2384 4250 1959 4250 
Q 1534 4250 1286 3958 
Q 1038 3666 1038 3163 
Q 1038 2656 1286 2365 
Q 1534 2075 1959 2075 
z
" id="DejaVuSans-39" transform="scale(0.015625)"/>
       </defs>
       <use xlink:href="#DejaVuSans-31"/>
       <use x="63.623047" xlink:href="#DejaVuSans-20"/>
       <use x="95.410156" xlink:href="#DejaVuSans-64"/>
       <use x="158.886719" xlink:href="#DejaVuSans-61"/>
       <use x="220.166016" xlink:href="#DejaVuSans-79"/>
       <use x="279.345703" xlink:href="#DejaVuSans-73"/>
       <use x="331.445312" xlink:href="#DejaVuSans-20"/>
       <use x="363.232422" xlink:href="#DejaVuSans-30"/>
       <use x="426.855469" xlink:href="#DejaVuSans-39"/>
       <use x="490.478516" xlink:href="#DejaVuSans-3a"/>
       <use x="524.169922" xlink:href="#DejaVuSans-32"/>
       <use x="587.792969" xlink:href="#DejaVuSans-30"/>
       <use x="651.416016" xlink:href="#DejaVuSans-3a"/>
       <use x="685.107422" xlink:href="#DejaVuSans-30"/>
       <use x="748.730469" xlink:href="#DejaVuSans-30"/>
      </g>
     </g>
    </g>
    <g id="xtick_8">
     <g id="line2d_8">
      <g>
       <use style="stroke:#000000;stroke-width:0.8;" x="396.961761" xlink:href="#m7a31276805" y="277.632"/>
      </g>
     </g>
     <g id="text_8">
      <!-- 1 days 14:53:20 -->
      <g transform="translate(370.191693 347.447389)rotate(-45)scale(0.1 -0.1)">
       <use xlink:href="#DejaVuSans-31"/>
       <use x="63.623047" xlink:href="#DejaVuSans-20"/>
       <use x="95.410156" xlink:href="#DejaVuSans-64"/>
       <use x="158.886719" xlink:href="#DejaVuSans-61"/>
       <use x="220.166016" xlink:href="#DejaVuSans-79"/>
       <use x="279.345703" xlink:href="#DejaVuSans-73"/>
       <use x="331.445312" xlink:href="#DejaVuSans-20"/>
       <use x="363.232422" xlink:href="#DejaVuSans-31"/>
       <use x="426.855469" xlink:href="#DejaVuSans-34"/>
       <use x="490.478516" xlink:href="#DejaVuSans-3a"/>
       <use x="524.169922" xlink:href="#DejaVuSans-35"/>
       <use x="587.792969" xlink:href="#DejaVuSans-33"/>
       <use x="651.416016" xlink:href="#DejaVuSans-3a"/>
       <use x="685.107422" xlink:href="#DejaVuSans-32"/>
       <use x="748.730469" xlink:href="#DejaVuSans-30"/>
      </g>
     </g>
    </g>
   </g>
   <g id="matplotlib.axis_2">
    <g id="ytick_1">
     <g id="line2d_9">
      <defs>
       <path d="M 0 0 
L -3.5 0 
" id="mdc81efbe28" style="stroke:#000000;stroke-width:0.8;"/>
      </defs>
      <g>
       <use style="stroke:#000000;stroke-width:0.8;" x="56.52" xlink:href="#mdc81efbe28" y="266.905309"/>
      </g>
     </g>
     <g id="text_9">
      <!-- 0 -->
      <g transform="translate(43.1575 270.704528)scale(0.1 -0.1)">
       <use xlink:href="#DejaVuSans-30"/>
      </g>
     </g>
    </g>
    <g id="ytick_2">
     <g id="line2d_10">
      <g>
       <use style="stroke:#000000;stroke-width:0.8;" x="56.52" xlink:href="#mdc81efbe28" y="222.375086"/>
      </g>
     </g>
     <g id="text_10">
      <!-- 1 -->
      <g transform="translate(43.1575 226.174305)scale(0.1 -0.1)">
       <use xlink:href="#DejaVuSans-31"/>
      </g>
     </g>
    </g>
    <g id="ytick_3">
     <g id="line2d_11">
      <g>
       <use style="stroke:#000000;stroke-width:0.8;" x="56.52" xlink:href="#mdc81efbe28" y="177.844863"/>
      </g>
     </g>
     <g id="text_11">
      <!-- 2 -->
      <g transform="translate(43.1575 181.644081)scale(0.1 -0.1)">
       <use xlink:href="#DejaVuSans-32"/>
      </g>
     </g>
    </g>
    <g id="ytick_4">
     <g id="line2d_12">
      <g>
       <use style="stroke:#000000;stroke-width:0.8;" x="56.52" xlink:href="#mdc81efbe28" y="133.314639"/>
      </g>
     </g>
     <g id="text_12">
      <!-- 3 -->
      <g transform="translate(43.1575 137.113858)scale(0.1 -0.1)">
       <use xlink:href="#DejaVuSans-33"/>
      </g>
     </g>
    </g>
    <g id="ytick_5">
     <g id="line2d_13">
      <g>
       <use style="stroke:#000000;stroke-width:0.8;" x="56.52" xlink:href="#mdc81efbe28" y="88.784416"/>
      </g>
     </g>
     <g id="text_13">
      <!-- 4 -->
      <g transform="translate(43.1575 92.583635)scale(0.1 -0.1)">
       <use xlink:href="#DejaVuSans-34"/>
      </g>
     </g>
    </g>
    <g id="ytick_6">
     <g id="line2d_14">
      <g>
       <use style="stroke:#000000;stroke-width:0.8;" x="56.52" xlink:href="#mdc81efbe28" y="44.254193"/>
      </g>
     </g>
     <g id="text_14">
      <!-- 5 -->
      <g transform="translate(43.1575 48.053411)scale(0.1 -0.1)">
       <use xlink:href="#DejaVuSans-35"/>
      </g>
     </g>
    </g>
    <g id="text_15">
     <!-- count -->
     <g transform="translate(37.077813 173.74465)rotate(-90)scale(0.1 -0.1)">
      <defs>
       <path d="M 3122 3366 
L 3122 2828 
Q 2878 2963 2633 3030 
Q 2388 3097 2138 3097 
Q 1578 3097 1268 2742 
Q 959 2388 959 1747 
Q 959 1106 1268 751 
Q 1578 397 2138 397 
Q 2388 397 2633 464 
Q 2878 531 3122 666 
L 3122 134 
Q 2881 22 2623 -34 
Q 2366 -91 2075 -91 
Q 1284 -91 818 406 
Q 353 903 353 1747 
Q 353 2603 823 3093 
Q 1294 3584 2113 3584 
Q 2378 3584 2631 3529 
Q 2884 3475 3122 3366 
z
" id="DejaVuSans-63" transform="scale(0.015625)"/>
       <path d="M 1959 3097 
Q 1497 3097 1228 2736 
Q 959 2375 959 1747 
Q 959 1119 1226 758 
Q 1494 397 1959 397 
Q 2419 397 2687 759 
Q 2956 1122 2956 1747 
Q 2956 2369 2687 2733 
Q 2419 3097 1959 3097 
z
M 1959 3584 
Q 2709 3584 3137 3096 
Q 3566 2609 3566 1747 
Q 3566 888 3137 398 
Q 2709 -91 1959 -91 
Q 1206 -91 779 398 
Q 353 888 353 1747 
Q 353 2609 779 3096 
Q 1206 3584 1959 3584 
z
" id="DejaVuSans-6f" transform="scale(0.015625)"/>
       <path d="M 544 1381 
L 544 3500 
L 1119 3500 
L 1119 1403 
Q 1119 906 1312 657 
Q 1506 409 1894 409 
Q 2359 409 2629 706 
Q 2900 1003 2900 1516 
L 2900 3500 
L 3475 3500 
L 3475 0 
L 2900 0 
L 2900 538 
Q 2691 219 2414 64 
Q 2138 -91 1772 -91 
Q 1169 -91 856 284 
Q 544 659 544 1381 
z
M 1991 3584 
L 1991 3584 
z
" id="DejaVuSans-75" transform="scale(0.015625)"/>
       <path d="M 3513 2113 
L 3513 0 
L 2938 0 
L 2938 2094 
Q 2938 2591 2744 2837 
Q 2550 3084 2163 3084 
Q 1697 3084 1428 2787 
Q 1159 2491 1159 1978 
L 1159 0 
L 581 0 
L 581 3500 
L 1159 3500 
L 1159 2956 
Q 1366 3272 1645 3428 
Q 1925 3584 2291 3584 
Q 2894 3584 3203 3211 
Q 3513 2838 3513 2113 
z
" id="DejaVuSans-6e" transform="scale(0.015625)"/>
       <path d="M 1172 4494 
L 1172 3500 
L 2356 3500 
L 2356 3053 
L 1172 3053 
L 1172 1153 
Q 1172 725 1289 603 
Q 1406 481 1766 481 
L 2356 481 
L 2356 0 
L 1766 0 
Q 1100 0 847 248 
Q 594 497 594 1153 
L 594 3053 
L 172 3053 
L 172 3500 
L 594 3500 
L 594 4494 
L 1172 4494 
z
" id="DejaVuSans-74" transform="scale(0.015625)"/>
      </defs>
      <use xlink:href="#DejaVuSans-63"/>
      <use x="54.980469" xlink:href="#DejaVuSans-6f"/>
      <use x="116.162109" xlink:href="#DejaVuSans-75"/>
      <use x="179.541016" xlink:href="#DejaVuSans-6e"/>
      <use x="242.919922" xlink:href="#DejaVuSans-74"/>
     </g>
    </g>
    <g id="text_16">
     <!-- 1e10 -->
     <g transform="translate(56.52 38.6448)scale(0.1 -0.1)">
      <defs>
       <path d="M 3597 1894 
L 3597 1613 
L 953 1613 
Q 991 1019 1311 708 
Q 1631 397 2203 397 
Q 2534 397 2845 478 
Q 3156 559 3463 722 
L 3463 178 
Q 3153 47 2828 -22 
Q 2503 -91 2169 -91 
Q 1331 -91 842 396 
Q 353 884 353 1716 
Q 353 2575 817 3079 
Q 1281 3584 2069 3584 
Q 2775 3584 3186 3129 
Q 3597 2675 3597 1894 
z
M 3022 2063 
Q 3016 2534 2758 2815 
Q 2500 3097 2075 3097 
Q 1594 3097 1305 2825 
Q 1016 2553 972 2059 
L 3022 2063 
z
" id="DejaVuSans-65" transform="scale(0.015625)"/>
      </defs>
      <use xlink:href="#DejaVuSans-31"/>
      <use x="63.623047" xlink:href="#DejaVuSans-65"/>
      <use x="125.146484" xlink:href="#DejaVuSans-31"/>
      <use x="188.769531" xlink:href="#DejaVuSans-30"/>
     </g>
    </g>
   </g>
   <g id="line2d_15">
    <path clip-path="url(#p4fcd85d159)" d="M 56.52 170.365091 
L 57.33706 181.496786 
L 58.21005 190.448136 
L 59.136538 197.721297 
L 60.111661 203.673263 
L 61.137849 208.609634 
L 62.229695 212.788966 
L 63.365311 216.279591 
L 64.566584 219.267856 
L 65.845673 221.852807 
L 67.185554 224.059985 
L 68.622705 225.99209 
L 70.10849 227.624309 
L 71.696407 229.049237 
L 73.40348 230.293069 
L 75.331839 231.417883 
L 77.37449 232.355151 
L 79.519273 233.11872 
L 82.03611 233.786493 
L 84.825301 234.300105 
L 87.986546 234.652616 
L 91.432303 234.810476 
L 95.16014 234.756258 
L 98.873387 234.491889 
L 102.893031 233.975056 
L 106.817838 233.22676 
L 110.674557 232.228128 
L 113.969547 231.134545 
L 117.087021 229.85858 
L 120.002662 228.413256 
L 122.682425 226.830563 
L 125.291667 225.012679 
L 127.716099 223.036344 
L 130.006786 220.872582 
L 132.095639 218.610211 
L 134.267171 215.921686 
L 136.341434 212.989138 
L 138.369495 209.733028 
L 140.395123 206.050149 
L 142.437774 201.852903 
L 144.487719 197.105673 
L 146.525506 191.815644 
L 148.609496 185.785897 
L 150.822368 178.684319 
L 153.203028 170.263743 
L 155.851179 160.047174 
L 159.163191 146.334487 
L 167.372701 111.995946 
L 170.003829 102.203453 
L 172.294516 94.513811 
L 174.371211 88.282246 
L 176.379817 82.937108 
L 178.322767 78.390438 
L 180.190333 74.567002 
L 182.060331 71.235831 
L 183.920602 68.371213 
L 185.778442 65.910873 
L 187.660598 63.779504 
L 189.598684 61.91664 
L 191.631608 60.275059 
L 193.705871 58.88099 
L 195.945492 57.643043 
L 198.367492 56.562321 
L 200.991325 55.636162 
L 203.975054 54.825902 
L 207.345427 54.147849 
L 211.331027 53.582044 
L 216.087485 53.136601 
L 222.140053 52.797816 
L 230.595168 52.559626 
L 244.53869 52.420261 
L 277.454544 52.373502 
L 406.944 52.371491 
L 406.944 52.371491 
" style="fill:none;stroke:#1f77b4;stroke-linecap:square;stroke-width:1.5;"/>
   </g>
   <g id="line2d_16">
    <path clip-path="url(#p4fcd85d159)" d="M 56.52 148.911709 
L 57.361377 160.423506 
L 58.261116 169.775454 
L 59.219217 177.472677 
L 60.233247 183.864673 
L 61.303207 189.226678 
L 62.43396 193.7804 
L 63.623074 197.665196 
L 64.875414 201.010735 
L 66.200705 203.923686 
L 67.596516 206.460693 
L 69.077438 208.695331 
L 70.667787 210.691168 
L 72.360269 212.46071 
L 74.252152 214.105018 
L 76.226715 215.533076 
L 78.534423 216.918772 
L 80.968582 218.132914 
L 83.83802 219.327687 
L 87.186508 220.497872 
L 91.884604 221.893895 
L 107.822142 226.354143 
L 112.442423 227.966991 
L 116.269961 229.524193 
L 119.961322 231.26044 
L 123.655115 233.269249 
L 126.835814 235.243188 
L 130.123509 237.541087 
L 133.301776 240.019749 
L 136.764555 243.000403 
L 140.735565 246.728926 
L 153.348932 258.871537 
L 155.977629 260.923321 
L 158.355858 262.496616 
L 160.639249 263.733478 
L 162.83753 264.673086 
L 165.154966 265.41904 
L 167.628032 265.980178 
L 170.460994 266.392883 
L 174.016179 266.676411 
L 179.049853 266.839159 
L 189.265538 266.90112 
L 291.979249 266.905309 
L 406.944 266.905309 
L 406.944 266.905309 
" style="fill:none;stroke:#ff7f0e;stroke-linecap:square;stroke-width:1.5;"/>
   </g>
   <g id="line2d_17">
    <path clip-path="url(#p4fcd85d159)" d="M 56.52 266.905309 
L 57.349219 244.26366 
L 58.234367 225.986405 
L 59.170582 211.101321 
L 60.160295 198.795037 
L 61.201074 188.539372 
L 62.302646 179.845867 
L 63.450422 172.520542 
L 64.646831 166.28786 
L 65.896739 160.932731 
L 67.202576 156.304828 
L 68.593524 152.21593 
L 69.986903 148.79822 
L 71.472688 145.743568 
L 72.985223 143.131572 
L 74.57314 140.82048 
L 76.212124 138.808246 
L 78.00917 136.95388 
L 79.954552 135.278662 
L 81.977749 133.830547 
L 84.207642 132.510848 
L 86.439967 131.421628 
L 88.9641 130.411342 
L 91.814084 129.49281 
L 95.318202 128.610201 
L 99.374323 127.841495 
L 104.106463 127.195085 
L 108.738903 126.763333 
L 114.300262 126.476644 
L 119.049425 126.459013 
L 122.376027 126.616302 
L 126.01389 127.016954 
L 128.761742 127.538504 
L 131.259125 128.23276 
L 133.469565 129.072508 
L 135.538965 130.100123 
L 137.370055 131.243803 
L 139.206009 132.655905 
L 140.881468 134.214443 
L 142.617721 136.143052 
L 144.261569 138.302856 
L 145.920006 140.848593 
L 147.580876 143.803879 
L 149.287948 147.297803 
L 151.10688 151.557355 
L 152.959856 156.479923 
L 154.941713 162.384234 
L 157.178902 169.78 
L 159.858665 179.467377 
L 163.931807 195.133545 
L 168.260281 211.502836 
L 170.952203 220.817868 
L 173.238026 227.957678 
L 175.3974 233.973371 
L 177.413301 238.932897 
L 179.361114 243.136985 
L 181.262725 246.715412 
L 183.122996 249.751995 
L 184.978403 252.366237 
L 186.87515 254.657198 
L 188.796215 256.631442 
L 190.756186 258.333695 
L 192.837745 259.845406 
L 195.011708 261.149047 
L 197.334008 262.2832 
L 199.911638 263.286979 
L 202.708124 264.134532 
L 205.852347 264.855163 
L 209.541276 265.46709 
L 214.059425 265.974782 
L 219.666987 266.363848 
L 227.086186 266.641106 
L 238.340218 266.816434 
L 260.072561 266.894475 
L 383.161711 266.905309 
L 406.944 266.905309 
L 406.944 266.905309 
" style="fill:none;stroke:#2ca02c;stroke-linecap:square;stroke-width:1.5;"/>
   </g>
   <g id="patch_3">
    <path d="M 56.52 277.632 
L 56.52 41.6448 
" style="fill:none;stroke:#000000;stroke-linecap:square;stroke-linejoin:miter;stroke-width:0.8;"/>
   </g>
   <g id="patch_4">
    <path d="M 406.944 277.632 
L 406.944 41.6448 
" style="fill:none;stroke:#000000;stroke-linecap:square;stroke-linejoin:miter;stroke-width:0.8;"/>
   </g>
   <g id="patch_5">
    <path d="M 56.52 277.632 
L 406.944 277.632 
" style="fill:none;stroke:#000000;stroke-linecap:square;stroke-linejoin:miter;stroke-width:0.8;"/>
   </g>
   <g id="patch_6">
    <path d="M 56.52 41.6448 
L 406.944 41.6448 
" style="fill:none;stroke:#000000;stroke-linecap:square;stroke-linejoin:miter;stroke-width:0.8;"/>
   </g>
   <g id="text_17">
    <!-- approximate majority, experimental conditions -->
    <g transform="translate(90.640125 35.6448)scale(0.12 -0.12)">
     <defs>
      <path d="M 1159 525 
L 1159 -1331 
L 581 -1331 
L 581 3500 
L 1159 3500 
L 1159 2969 
Q 1341 3281 1617 3432 
Q 1894 3584 2278 3584 
Q 2916 3584 3314 3078 
Q 3713 2572 3713 1747 
Q 3713 922 3314 415 
Q 2916 -91 2278 -91 
Q 1894 -91 1617 61 
Q 1341 213 1159 525 
z
M 3116 1747 
Q 3116 2381 2855 2742 
Q 2594 3103 2138 3103 
Q 1681 3103 1420 2742 
Q 1159 2381 1159 1747 
Q 1159 1113 1420 752 
Q 1681 391 2138 391 
Q 2594 391 2855 752 
Q 3116 1113 3116 1747 
z
" id="DejaVuSans-70" transform="scale(0.015625)"/>
      <path d="M 2631 2963 
Q 2534 3019 2420 3045 
Q 2306 3072 2169 3072 
Q 1681 3072 1420 2755 
Q 1159 2438 1159 1844 
L 1159 0 
L 581 0 
L 581 3500 
L 1159 3500 
L 1159 2956 
Q 1341 3275 1631 3429 
Q 1922 3584 2338 3584 
Q 2397 3584 2469 3576 
Q 2541 3569 2628 3553 
L 2631 2963 
z
" id="DejaVuSans-72" transform="scale(0.015625)"/>
      <path d="M 3513 3500 
L 2247 1797 
L 3578 0 
L 2900 0 
L 1881 1375 
L 863 0 
L 184 0 
L 1544 1831 
L 300 3500 
L 978 3500 
L 1906 2253 
L 2834 3500 
L 3513 3500 
z
" id="DejaVuSans-78" transform="scale(0.015625)"/>
      <path d="M 603 3500 
L 1178 3500 
L 1178 0 
L 603 0 
L 603 3500 
z
M 603 4863 
L 1178 4863 
L 1178 4134 
L 603 4134 
L 603 4863 
z
" id="DejaVuSans-69" transform="scale(0.015625)"/>
      <path d="M 3328 2828 
Q 3544 3216 3844 3400 
Q 4144 3584 4550 3584 
Q 5097 3584 5394 3201 
Q 5691 2819 5691 2113 
L 5691 0 
L 5113 0 
L 5113 2094 
Q 5113 2597 4934 2840 
Q 4756 3084 4391 3084 
Q 3944 3084 3684 2787 
Q 3425 2491 3425 1978 
L 3425 0 
L 2847 0 
L 2847 2094 
Q 2847 2600 2669 2842 
Q 2491 3084 2119 3084 
Q 1678 3084 1418 2786 
Q 1159 2488 1159 1978 
L 1159 0 
L 581 0 
L 581 3500 
L 1159 3500 
L 1159 2956 
Q 1356 3278 1631 3431 
Q 1906 3584 2284 3584 
Q 2666 3584 2933 3390 
Q 3200 3197 3328 2828 
z
" id="DejaVuSans-6d" transform="scale(0.015625)"/>
      <path d="M 603 3500 
L 1178 3500 
L 1178 -63 
Q 1178 -731 923 -1031 
Q 669 -1331 103 -1331 
L -116 -1331 
L -116 -844 
L 38 -844 
Q 366 -844 484 -692 
Q 603 -541 603 -63 
L 603 3500 
z
M 603 4863 
L 1178 4863 
L 1178 4134 
L 603 4134 
L 603 4863 
z
" id="DejaVuSans-6a" transform="scale(0.015625)"/>
      <path d="M 750 794 
L 1409 794 
L 1409 256 
L 897 -744 
L 494 -744 
L 750 256 
L 750 794 
z
" id="DejaVuSans-2c" transform="scale(0.015625)"/>
      <path d="M 603 4863 
L 1178 4863 
L 1178 0 
L 603 0 
L 603 4863 
z
" id="DejaVuSans-6c" transform="scale(0.015625)"/>
     </defs>
     <use xlink:href="#DejaVuSans-61"/>
     <use x="61.279297" xlink:href="#DejaVuSans-70"/>
     <use x="124.755859" xlink:href="#DejaVuSans-70"/>
     <use x="188.232422" xlink:href="#DejaVuSans-72"/>
     <use x="227.095703" xlink:href="#DejaVuSans-6f"/>
     <use x="285.152344" xlink:href="#DejaVuSans-78"/>
     <use x="344.332031" xlink:href="#DejaVuSans-69"/>
     <use x="372.115234" xlink:href="#DejaVuSans-6d"/>
     <use x="469.527344" xlink:href="#DejaVuSans-61"/>
     <use x="530.806641" xlink:href="#DejaVuSans-74"/>
     <use x="570.015625" xlink:href="#DejaVuSans-65"/>
     <use x="631.539062" xlink:href="#DejaVuSans-20"/>
     <use x="663.326172" xlink:href="#DejaVuSans-6d"/>
     <use x="760.738281" xlink:href="#DejaVuSans-61"/>
     <use x="822.017578" xlink:href="#DejaVuSans-6a"/>
     <use x="849.800781" xlink:href="#DejaVuSans-6f"/>
     <use x="910.982422" xlink:href="#DejaVuSans-72"/>
     <use x="952.095703" xlink:href="#DejaVuSans-69"/>
     <use x="979.878906" xlink:href="#DejaVuSans-74"/>
     <use x="1019.087891" xlink:href="#DejaVuSans-79"/>
     <use x="1078.267578" xlink:href="#DejaVuSans-2c"/>
     <use x="1110.054688" xlink:href="#DejaVuSans-20"/>
     <use x="1141.841797" xlink:href="#DejaVuSans-65"/>
     <use x="1201.615234" xlink:href="#DejaVuSans-78"/>
     <use x="1260.794922" xlink:href="#DejaVuSans-70"/>
     <use x="1324.271484" xlink:href="#DejaVuSans-65"/>
     <use x="1385.794922" xlink:href="#DejaVuSans-72"/>
     <use x="1426.908203" xlink:href="#DejaVuSans-69"/>
     <use x="1454.691406" xlink:href="#DejaVuSans-6d"/>
     <use x="1552.103516" xlink:href="#DejaVuSans-65"/>
     <use x="1613.626953" xlink:href="#DejaVuSans-6e"/>
     <use x="1677.005859" xlink:href="#DejaVuSans-74"/>
     <use x="1716.214844" xlink:href="#DejaVuSans-61"/>
     <use x="1777.494141" xlink:href="#DejaVuSans-6c"/>
     <use x="1805.277344" xlink:href="#DejaVuSans-20"/>
     <use x="1837.064453" xlink:href="#DejaVuSans-63"/>
     <use x="1892.044922" xlink:href="#DejaVuSans-6f"/>
     <use x="1953.226562" xlink:href="#DejaVuSans-6e"/>
     <use x="2016.605469" xlink:href="#DejaVuSans-64"/>
     <use x="2080.082031" xlink:href="#DejaVuSans-69"/>
     <use x="2107.865234" xlink:href="#DejaVuSans-74"/>
     <use x="2147.074219" xlink:href="#DejaVuSans-69"/>
     <use x="2174.857422" xlink:href="#DejaVuSans-6f"/>
     <use x="2236.039062" xlink:href="#DejaVuSans-6e"/>
     <use x="2299.417969" xlink:href="#DejaVuSans-73"/>
    </g>
   </g>
   <g id="legend_1">
    <g id="patch_7">
     <path d="M 63.52 93.679175 
L 102.83875 93.679175 
Q 104.83875 93.679175 104.83875 91.679175 
L 104.83875 48.6448 
Q 104.83875 46.6448 102.83875 46.6448 
L 63.52 46.6448 
Q 61.52 46.6448 61.52 48.6448 
L 61.52 91.679175 
Q 61.52 93.679175 63.52 93.679175 
z
" style="fill:#ffffff;opacity:0.8;stroke:#cccccc;stroke-linejoin:miter;"/>
    </g>
    <g id="line2d_18">
     <path d="M 65.52 54.743237 
L 85.52 54.743237 
" style="fill:none;stroke:#1f77b4;stroke-linecap:square;stroke-width:1.5;"/>
    </g>
    <g id="line2d_19"/>
    <g id="text_18">
     <!-- A -->
     <g transform="translate(93.52 58.243237)scale(0.1 -0.1)">
      <defs>
       <path d="M 2188 4044 
L 1331 1722 
L 3047 1722 
L 2188 4044 
z
M 1831 4666 
L 2547 4666 
L 4325 0 
L 3669 0 
L 3244 1197 
L 1141 1197 
L 716 0 
L 50 0 
L 1831 4666 
z
" id="DejaVuSans-41" transform="scale(0.015625)"/>
      </defs>
      <use xlink:href="#DejaVuSans-41"/>
     </g>
    </g>
    <g id="line2d_20">
     <path d="M 65.52 69.421362 
L 85.52 69.421362 
" style="fill:none;stroke:#ff7f0e;stroke-linecap:square;stroke-width:1.5;"/>
    </g>
    <g id="line2d_21"/>
    <g id="text_19">
     <!-- B -->
     <g transform="translate(93.52 72.921362)scale(0.1 -0.1)">
      <defs>
       <path d="M 1259 2228 
L 1259 519 
L 2272 519 
Q 2781 519 3026 730 
Q 3272 941 3272 1375 
Q 3272 1813 3026 2020 
Q 2781 2228 2272 2228 
L 1259 2228 
z
M 1259 4147 
L 1259 2741 
L 2194 2741 
Q 2656 2741 2882 2914 
Q 3109 3088 3109 3444 
Q 3109 3797 2882 3972 
Q 2656 4147 2194 4147 
L 1259 4147 
z
M 628 4666 
L 2241 4666 
Q 2963 4666 3353 4366 
Q 3744 4066 3744 3513 
Q 3744 3084 3544 2831 
Q 3344 2578 2956 2516 
Q 3422 2416 3680 2098 
Q 3938 1781 3938 1306 
Q 3938 681 3513 340 
Q 3088 0 2303 0 
L 628 0 
L 628 4666 
z
" id="DejaVuSans-42" transform="scale(0.015625)"/>
      </defs>
      <use xlink:href="#DejaVuSans-42"/>
     </g>
    </g>
    <g id="line2d_22">
     <path d="M 65.52 84.099487 
L 85.52 84.099487 
" style="fill:none;stroke:#2ca02c;stroke-linecap:square;stroke-width:1.5;"/>
    </g>
    <g id="line2d_23"/>
    <g id="text_20">
     <!-- U -->
     <g transform="translate(93.52 87.599487)scale(0.1 -0.1)">
      <defs>
       <path d="M 556 4666 
L 1191 4666 
L 1191 1831 
Q 1191 1081 1462 751 
Q 1734 422 2344 422 
Q 2950 422 3222 751 
Q 3494 1081 3494 1831 
L 3494 4666 
L 4128 4666 
L 4128 1753 
Q 4128 841 3676 375 
Q 3225 -91 2344 -91 
Q 1459 -91 1007 375 
Q 556 841 556 1753 
L 556 4666 
z
" id="DejaVuSans-55" transform="scale(0.015625)"/>
      </defs>
      <use xlink:href="#DejaVuSans-55"/>
     </g>
    </g>
   </g>
  </g>
 </g>
 <defs>
  <clipPath id="p4fcd85d159">
   <rect height="235.9872" width="350.424" x="56.52" y="41.6448"/>
  </clipPath>
 </defs>
</svg>
