<?xml version="1.0" encoding="utf-8" standalone="no"?>
<!DOCTYPE svg PUBLIC "-//W3C//DTD SVG 1.1//EN"
  "http://www.w3.org/Graphics/SVG/1.1/DTD/svg11.dtd">
<svg height="270.72pt" version="1.1" viewBox="0 0 382.32 270.72" width="382.32pt" xmlns="http://www.w3.org/2000/svg" xmlns:xlink="http://www.w3.org/1999/xlink">
 <metadata>
  <rdf:RDF xmlns:cc="http://creativecommons.org/ns#" xmlns:dc="http://purl.org/dc/elements/1.1/" xmlns:rdf="http://www.w3.org/1999/02/22-rdf-syntax-ns#">
   <cc:Work>
    <dc:type rdf:resource="http://purl.org/dc/dcmitype/StillImage"/>
    <dc:date>2021-05-03T10:58:28.318605</dc:date>
    <dc:format>image/svg+xml</dc:format>
    <dc:creator>
     <cc:Agent>
      <dc:title>Matplotlib v3.4.1, https://matplotlib.org/</dc:title>
     </cc:Agent>
    </dc:creator>
   </cc:Work>
  </rdf:RDF>
 </metadata>
 <defs>
  <style type="text/css">*{stroke-linecap:butt;stroke-linejoin:round;}</style>
 </defs>
 <g id="figure_1">
  <g id="patch_1">
   <path d="M 0 270.72 
L 382.32 270.72 
L 382.32 0 
L 0 0 
z
" style="fill:#ffffff;"/>
  </g>
  <g id="axes_1">
   <g id="patch_2">
    <path d="M 47.79 240.9408 
L 344.088 240.9408 
L 344.088 32.4864 
L 47.79 32.4864 
z
" style="fill:#ffffff;"/>
   </g>
   <g id="matplotlib.axis_1">
    <g id="xtick_1">
     <g id="line2d_1">
      <defs>
       <path d="M 0 0 
L 0 3.5 
" id="mec311ef724" style="stroke:#000000;stroke-width:0.8;"/>
      </defs>
      <g>
       <use style="stroke:#000000;stroke-width:0.8;" x="61.258091" xlink:href="#mec311ef724" y="240.9408"/>
      </g>
     </g>
     <g id="text_1">
      <!-- 0 -->
      <g transform="translate(58.076841 255.539237)scale(0.1 -0.1)">
       <defs>
        <path d="M 2034 4250 
Q 1547 4250 1301 3770 
Q 1056 3291 1056 2328 
Q 1056 1369 1301 889 
Q 1547 409 2034 409 
Q 2525 409 2770 889 
Q 3016 1369 3016 2328 
Q 3016 3291 2770 3770 
Q 2525 4250 2034 4250 
z
M 2034 4750 
Q 2819 4750 3233 4129 
Q 3647 3509 3647 2328 
Q 3647 1150 3233 529 
Q 2819 -91 2034 -91 
Q 1250 -91 836 529 
Q 422 1150 422 2328 
Q 422 3509 836 4129 
Q 1250 4750 2034 4750 
z
" id="DejaVuSans-30" transform="scale(0.015625)"/>
       </defs>
       <use xlink:href="#DejaVuSans-30"/>
      </g>
     </g>
    </g>
    <g id="xtick_2">
     <g id="line2d_2">
      <g>
       <use style="stroke:#000000;stroke-width:0.8;" x="116.229891" xlink:href="#mec311ef724" y="240.9408"/>
      </g>
     </g>
     <g id="text_2">
      <!-- 5 -->
      <g transform="translate(113.048641 255.539237)scale(0.1 -0.1)">
       <defs>
        <path d="M 691 4666 
L 3169 4666 
L 3169 4134 
L 1269 4134 
L 1269 2991 
Q 1406 3038 1543 3061 
Q 1681 3084 1819 3084 
Q 2600 3084 3056 2656 
Q 3513 2228 3513 1497 
Q 3513 744 3044 326 
Q 2575 -91 1722 -91 
Q 1428 -91 1123 -41 
Q 819 9 494 109 
L 494 744 
Q 775 591 1075 516 
Q 1375 441 1709 441 
Q 2250 441 2565 725 
Q 2881 1009 2881 1497 
Q 2881 1984 2565 2268 
Q 2250 2553 1709 2553 
Q 1456 2553 1204 2497 
Q 953 2441 691 2322 
L 691 4666 
z
" id="DejaVuSans-35" transform="scale(0.015625)"/>
       </defs>
       <use xlink:href="#DejaVuSans-35"/>
      </g>
     </g>
    </g>
    <g id="xtick_3">
     <g id="line2d_3">
      <g>
       <use style="stroke:#000000;stroke-width:0.8;" x="171.20169" xlink:href="#mec311ef724" y="240.9408"/>
      </g>
     </g>
     <g id="text_3">
      <!-- 10 -->
      <g transform="translate(164.83919 255.539237)scale(0.1 -0.1)">
       <defs>
        <path d="M 794 531 
L 1825 531 
L 1825 4091 
L 703 3866 
L 703 4441 
L 1819 4666 
L 2450 4666 
L 2450 531 
L 3481 531 
L 3481 0 
L 794 0 
L 794 531 
z
" id="DejaVuSans-31" transform="scale(0.015625)"/>
       </defs>
       <use xlink:href="#DejaVuSans-31"/>
       <use x="63.623047" xlink:href="#DejaVuSans-30"/>
      </g>
     </g>
    </g>
    <g id="xtick_4">
     <g id="line2d_4">
      <g>
       <use style="stroke:#000000;stroke-width:0.8;" x="226.17349" xlink:href="#mec311ef724" y="240.9408"/>
      </g>
     </g>
     <g id="text_4">
      <!-- 15 -->
      <g transform="translate(219.81099 255.539237)scale(0.1 -0.1)">
       <use xlink:href="#DejaVuSans-31"/>
       <use x="63.623047" xlink:href="#DejaVuSans-35"/>
      </g>
     </g>
    </g>
    <g id="xtick_5">
     <g id="line2d_5">
      <g>
       <use style="stroke:#000000;stroke-width:0.8;" x="281.145289" xlink:href="#mec311ef724" y="240.9408"/>
      </g>
     </g>
     <g id="text_5">
      <!-- 20 -->
      <g transform="translate(274.782789 255.539237)scale(0.1 -0.1)">
       <defs>
        <path d="M 1228 531 
L 3431 531 
L 3431 0 
L 469 0 
L 469 531 
Q 828 903 1448 1529 
Q 2069 2156 2228 2338 
Q 2531 2678 2651 2914 
Q 2772 3150 2772 3378 
Q 2772 3750 2511 3984 
Q 2250 4219 1831 4219 
Q 1534 4219 1204 4116 
Q 875 4013 500 3803 
L 500 4441 
Q 881 4594 1212 4672 
Q 1544 4750 1819 4750 
Q 2544 4750 2975 4387 
Q 3406 4025 3406 3419 
Q 3406 3131 3298 2873 
Q 3191 2616 2906 2266 
Q 2828 2175 2409 1742 
Q 1991 1309 1228 531 
z
" id="DejaVuSans-32" transform="scale(0.015625)"/>
       </defs>
       <use xlink:href="#DejaVuSans-32"/>
       <use x="63.623047" xlink:href="#DejaVuSans-30"/>
      </g>
     </g>
    </g>
    <g id="xtick_6">
     <g id="line2d_6">
      <g>
       <use style="stroke:#000000;stroke-width:0.8;" x="336.117089" xlink:href="#mec311ef724" y="240.9408"/>
      </g>
     </g>
     <g id="text_6">
      <!-- 25 -->
      <g transform="translate(329.754589 255.539237)scale(0.1 -0.1)">
       <use xlink:href="#DejaVuSans-32"/>
       <use x="63.623047" xlink:href="#DejaVuSans-35"/>
      </g>
     </g>
    </g>
    <g id="text_7">
     <!-- time (continuous units) -->
     <g transform="translate(137.774937 269.217362)scale(0.1 -0.1)">
      <defs>
       <path d="M 1172 4494 
L 1172 3500 
L 2356 3500 
L 2356 3053 
L 1172 3053 
L 1172 1153 
Q 1172 725 1289 603 
Q 1406 481 1766 481 
L 2356 481 
L 2356 0 
L 1766 0 
Q 1100 0 847 248 
Q 594 497 594 1153 
L 594 3053 
L 172 3053 
L 172 3500 
L 594 3500 
L 594 4494 
L 1172 4494 
z
" id="DejaVuSans-74" transform="scale(0.015625)"/>
       <path d="M 603 3500 
L 1178 3500 
L 1178 0 
L 603 0 
L 603 3500 
z
M 603 4863 
L 1178 4863 
L 1178 4134 
L 603 4134 
L 603 4863 
z
" id="DejaVuSans-69" transform="scale(0.015625)"/>
       <path d="M 3328 2828 
Q 3544 3216 3844 3400 
Q 4144 3584 4550 3584 
Q 5097 3584 5394 3201 
Q 5691 2819 5691 2113 
L 5691 0 
L 5113 0 
L 5113 2094 
Q 5113 2597 4934 2840 
Q 4756 3084 4391 3084 
Q 3944 3084 3684 2787 
Q 3425 2491 3425 1978 
L 3425 0 
L 2847 0 
L 2847 2094 
Q 2847 2600 2669 2842 
Q 2491 3084 2119 3084 
Q 1678 3084 1418 2786 
Q 1159 2488 1159 1978 
L 1159 0 
L 581 0 
L 581 3500 
L 1159 3500 
L 1159 2956 
Q 1356 3278 1631 3431 
Q 1906 3584 2284 3584 
Q 2666 3584 2933 3390 
Q 3200 3197 3328 2828 
z
" id="DejaVuSans-6d" transform="scale(0.015625)"/>
       <path d="M 3597 1894 
L 3597 1613 
L 953 1613 
Q 991 1019 1311 708 
Q 1631 397 2203 397 
Q 2534 397 2845 478 
Q 3156 559 3463 722 
L 3463 178 
Q 3153 47 2828 -22 
Q 2503 -91 2169 -91 
Q 1331 -91 842 396 
Q 353 884 353 1716 
Q 353 2575 817 3079 
Q 1281 3584 2069 3584 
Q 2775 3584 3186 3129 
Q 3597 2675 3597 1894 
z
M 3022 2063 
Q 3016 2534 2758 2815 
Q 2500 3097 2075 3097 
Q 1594 3097 1305 2825 
Q 1016 2553 972 2059 
L 3022 2063 
z
" id="DejaVuSans-65" transform="scale(0.015625)"/>
       <path id="DejaVuSans-20" transform="scale(0.015625)"/>
       <path d="M 1984 4856 
Q 1566 4138 1362 3434 
Q 1159 2731 1159 2009 
Q 1159 1288 1364 580 
Q 1569 -128 1984 -844 
L 1484 -844 
Q 1016 -109 783 600 
Q 550 1309 550 2009 
Q 550 2706 781 3412 
Q 1013 4119 1484 4856 
L 1984 4856 
z
" id="DejaVuSans-28" transform="scale(0.015625)"/>
       <path d="M 3122 3366 
L 3122 2828 
Q 2878 2963 2633 3030 
Q 2388 3097 2138 3097 
Q 1578 3097 1268 2742 
Q 959 2388 959 1747 
Q 959 1106 1268 751 
Q 1578 397 2138 397 
Q 2388 397 2633 464 
Q 2878 531 3122 666 
L 3122 134 
Q 2881 22 2623 -34 
Q 2366 -91 2075 -91 
Q 1284 -91 818 406 
Q 353 903 353 1747 
Q 353 2603 823 3093 
Q 1294 3584 2113 3584 
Q 2378 3584 2631 3529 
Q 2884 3475 3122 3366 
z
" id="DejaVuSans-63" transform="scale(0.015625)"/>
       <path d="M 1959 3097 
Q 1497 3097 1228 2736 
Q 959 2375 959 1747 
Q 959 1119 1226 758 
Q 1494 397 1959 397 
Q 2419 397 2687 759 
Q 2956 1122 2956 1747 
Q 2956 2369 2687 2733 
Q 2419 3097 1959 3097 
z
M 1959 3584 
Q 2709 3584 3137 3096 
Q 3566 2609 3566 1747 
Q 3566 888 3137 398 
Q 2709 -91 1959 -91 
Q 1206 -91 779 398 
Q 353 888 353 1747 
Q 353 2609 779 3096 
Q 1206 3584 1959 3584 
z
" id="DejaVuSans-6f" transform="scale(0.015625)"/>
       <path d="M 3513 2113 
L 3513 0 
L 2938 0 
L 2938 2094 
Q 2938 2591 2744 2837 
Q 2550 3084 2163 3084 
Q 1697 3084 1428 2787 
Q 1159 2491 1159 1978 
L 1159 0 
L 581 0 
L 581 3500 
L 1159 3500 
L 1159 2956 
Q 1366 3272 1645 3428 
Q 1925 3584 2291 3584 
Q 2894 3584 3203 3211 
Q 3513 2838 3513 2113 
z
" id="DejaVuSans-6e" transform="scale(0.015625)"/>
       <path d="M 544 1381 
L 544 3500 
L 1119 3500 
L 1119 1403 
Q 1119 906 1312 657 
Q 1506 409 1894 409 
Q 2359 409 2629 706 
Q 2900 1003 2900 1516 
L 2900 3500 
L 3475 3500 
L 3475 0 
L 2900 0 
L 2900 538 
Q 2691 219 2414 64 
Q 2138 -91 1772 -91 
Q 1169 -91 856 284 
Q 544 659 544 1381 
z
M 1991 3584 
L 1991 3584 
z
" id="DejaVuSans-75" transform="scale(0.015625)"/>
       <path d="M 2834 3397 
L 2834 2853 
Q 2591 2978 2328 3040 
Q 2066 3103 1784 3103 
Q 1356 3103 1142 2972 
Q 928 2841 928 2578 
Q 928 2378 1081 2264 
Q 1234 2150 1697 2047 
L 1894 2003 
Q 2506 1872 2764 1633 
Q 3022 1394 3022 966 
Q 3022 478 2636 193 
Q 2250 -91 1575 -91 
Q 1294 -91 989 -36 
Q 684 19 347 128 
L 347 722 
Q 666 556 975 473 
Q 1284 391 1588 391 
Q 1994 391 2212 530 
Q 2431 669 2431 922 
Q 2431 1156 2273 1281 
Q 2116 1406 1581 1522 
L 1381 1569 
Q 847 1681 609 1914 
Q 372 2147 372 2553 
Q 372 3047 722 3315 
Q 1072 3584 1716 3584 
Q 2034 3584 2315 3537 
Q 2597 3491 2834 3397 
z
" id="DejaVuSans-73" transform="scale(0.015625)"/>
       <path d="M 513 4856 
L 1013 4856 
Q 1481 4119 1714 3412 
Q 1947 2706 1947 2009 
Q 1947 1309 1714 600 
Q 1481 -109 1013 -844 
L 513 -844 
Q 928 -128 1133 580 
Q 1338 1288 1338 2009 
Q 1338 2731 1133 3434 
Q 928 4138 513 4856 
z
" id="DejaVuSans-29" transform="scale(0.015625)"/>
      </defs>
      <use xlink:href="#DejaVuSans-74"/>
      <use x="39.208984" xlink:href="#DejaVuSans-69"/>
      <use x="66.992188" xlink:href="#DejaVuSans-6d"/>
      <use x="164.404297" xlink:href="#DejaVuSans-65"/>
      <use x="225.927734" xlink:href="#DejaVuSans-20"/>
      <use x="257.714844" xlink:href="#DejaVuSans-28"/>
      <use x="296.728516" xlink:href="#DejaVuSans-63"/>
      <use x="351.708984" xlink:href="#DejaVuSans-6f"/>
      <use x="412.890625" xlink:href="#DejaVuSans-6e"/>
      <use x="476.269531" xlink:href="#DejaVuSans-74"/>
      <use x="515.478516" xlink:href="#DejaVuSans-69"/>
      <use x="543.261719" xlink:href="#DejaVuSans-6e"/>
      <use x="606.640625" xlink:href="#DejaVuSans-75"/>
      <use x="670.019531" xlink:href="#DejaVuSans-6f"/>
      <use x="731.201172" xlink:href="#DejaVuSans-75"/>
      <use x="794.580078" xlink:href="#DejaVuSans-73"/>
      <use x="846.679688" xlink:href="#DejaVuSans-20"/>
      <use x="878.466797" xlink:href="#DejaVuSans-75"/>
      <use x="941.845703" xlink:href="#DejaVuSans-6e"/>
      <use x="1005.224609" xlink:href="#DejaVuSans-69"/>
      <use x="1033.007812" xlink:href="#DejaVuSans-74"/>
      <use x="1072.216797" xlink:href="#DejaVuSans-73"/>
      <use x="1124.316406" xlink:href="#DejaVuSans-29"/>
     </g>
    </g>
   </g>
   <g id="matplotlib.axis_2">
    <g id="ytick_1">
     <g id="line2d_7">
      <defs>
       <path d="M 0 0 
L -3.5 0 
" id="m44d4b91de0" style="stroke:#000000;stroke-width:0.8;"/>
      </defs>
      <g>
       <use style="stroke:#000000;stroke-width:0.8;" x="47.79" xlink:href="#m44d4b91de0" y="240.9408"/>
      </g>
     </g>
     <g id="text_8">
      <!-- $\mathdefault{0}$ -->
      <g transform="translate(34.39 244.740019)scale(0.1 -0.1)">
       <use transform="translate(0 0.78125)" xlink:href="#DejaVuSans-30"/>
      </g>
     </g>
    </g>
    <g id="ytick_2">
     <g id="line2d_8">
      <g>
       <use style="stroke:#000000;stroke-width:0.8;" x="47.79" xlink:href="#m44d4b91de0" y="218.282713"/>
      </g>
     </g>
     <g id="text_9">
      <!-- $\mathdefault{10^{0}}$ -->
      <g transform="translate(23.19 222.081932)scale(0.1 -0.1)">
       <use transform="translate(0 0.765625)" xlink:href="#DejaVuSans-31"/>
       <use transform="translate(63.623047 0.765625)" xlink:href="#DejaVuSans-30"/>
       <use transform="translate(128.203125 39.046875)scale(0.7)" xlink:href="#DejaVuSans-30"/>
      </g>
     </g>
    </g>
    <g id="ytick_3">
     <g id="line2d_9">
      <g>
       <use style="stroke:#000000;stroke-width:0.8;" x="47.79" xlink:href="#m44d4b91de0" y="167.117444"/>
      </g>
     </g>
     <g id="text_10">
      <!-- $\mathdefault{10^{1}}$ -->
      <g transform="translate(23.19 170.916663)scale(0.1 -0.1)">
       <use transform="translate(0 0.684375)" xlink:href="#DejaVuSans-31"/>
       <use transform="translate(63.623047 0.684375)" xlink:href="#DejaVuSans-30"/>
       <use transform="translate(128.203125 38.965625)scale(0.7)" xlink:href="#DejaVuSans-31"/>
      </g>
     </g>
    </g>
    <g id="ytick_4">
     <g id="line2d_10">
      <g>
       <use style="stroke:#000000;stroke-width:0.8;" x="47.79" xlink:href="#m44d4b91de0" y="126.332888"/>
      </g>
     </g>
     <g id="text_11">
      <!-- $\mathdefault{10^{2}}$ -->
      <g transform="translate(23.19 130.132107)scale(0.1 -0.1)">
       <use transform="translate(0 0.765625)" xlink:href="#DejaVuSans-31"/>
       <use transform="translate(63.623047 0.765625)" xlink:href="#DejaVuSans-30"/>
       <use transform="translate(128.203125 39.046875)scale(0.7)" xlink:href="#DejaVuSans-32"/>
      </g>
     </g>
    </g>
    <g id="ytick_5">
     <g id="line2d_11">
      <g>
       <use style="stroke:#000000;stroke-width:0.8;" x="47.79" xlink:href="#m44d4b91de0" y="85.548331"/>
      </g>
     </g>
     <g id="text_12">
      <!-- $\mathdefault{10^{3}}$ -->
      <g transform="translate(23.19 89.34755)scale(0.1 -0.1)">
       <defs>
        <path d="M 2597 2516 
Q 3050 2419 3304 2112 
Q 3559 1806 3559 1356 
Q 3559 666 3084 287 
Q 2609 -91 1734 -91 
Q 1441 -91 1130 -33 
Q 819 25 488 141 
L 488 750 
Q 750 597 1062 519 
Q 1375 441 1716 441 
Q 2309 441 2620 675 
Q 2931 909 2931 1356 
Q 2931 1769 2642 2001 
Q 2353 2234 1838 2234 
L 1294 2234 
L 1294 2753 
L 1863 2753 
Q 2328 2753 2575 2939 
Q 2822 3125 2822 3475 
Q 2822 3834 2567 4026 
Q 2313 4219 1838 4219 
Q 1578 4219 1281 4162 
Q 984 4106 628 3988 
L 628 4550 
Q 988 4650 1302 4700 
Q 1616 4750 1894 4750 
Q 2613 4750 3031 4423 
Q 3450 4097 3450 3541 
Q 3450 3153 3228 2886 
Q 3006 2619 2597 2516 
z
" id="DejaVuSans-33" transform="scale(0.015625)"/>
       </defs>
       <use transform="translate(0 0.765625)" xlink:href="#DejaVuSans-31"/>
       <use transform="translate(63.623047 0.765625)" xlink:href="#DejaVuSans-30"/>
       <use transform="translate(128.203125 39.046875)scale(0.7)" xlink:href="#DejaVuSans-33"/>
      </g>
     </g>
    </g>
    <g id="ytick_6">
     <g id="line2d_12">
      <g>
       <use style="stroke:#000000;stroke-width:0.8;" x="47.79" xlink:href="#m44d4b91de0" y="44.763775"/>
      </g>
     </g>
     <g id="text_13">
      <!-- $\mathdefault{10^{4}}$ -->
      <g transform="translate(23.19 48.562994)scale(0.1 -0.1)">
       <defs>
        <path d="M 2419 4116 
L 825 1625 
L 2419 1625 
L 2419 4116 
z
M 2253 4666 
L 3047 4666 
L 3047 1625 
L 3713 1625 
L 3713 1100 
L 3047 1100 
L 3047 0 
L 2419 0 
L 2419 1100 
L 313 1100 
L 313 1709 
L 2253 4666 
z
" id="DejaVuSans-34" transform="scale(0.015625)"/>
       </defs>
       <use transform="translate(0 0.684375)" xlink:href="#DejaVuSans-31"/>
       <use transform="translate(63.623047 0.684375)" xlink:href="#DejaVuSans-30"/>
       <use transform="translate(128.203125 38.965625)scale(0.7)" xlink:href="#DejaVuSans-34"/>
      </g>
     </g>
    </g>
    <g id="text_14">
     <!-- count -->
     <g transform="translate(17.110312 150.81985)rotate(-90)scale(0.1 -0.1)">
      <use xlink:href="#DejaVuSans-63"/>
      <use x="54.980469" xlink:href="#DejaVuSans-6f"/>
      <use x="116.162109" xlink:href="#DejaVuSans-75"/>
      <use x="179.541016" xlink:href="#DejaVuSans-6e"/>
      <use x="242.919922" xlink:href="#DejaVuSans-74"/>
     </g>
    </g>
   </g>
   <g id="line2d_13">
    <path clip-path="url(#pf4ff0d3acc)" d="M 61.258091 44.763775 
L 63.456963 48.055605 
L 66.755271 53.394582 
L 68.954143 56.812371 
L 71.153015 60.260606 
L 79.948503 74.132939 
L 81.047939 76.035333 
L 82.147375 77.61515 
L 85.445683 83.320962 
L 86.545119 84.870674 
L 92.042299 94.361728 
L 93.141735 96.96151 
L 94.241171 98.997208 
L 99.738351 107.051726 
L 100.837787 108.414899 
L 101.937223 110.460922 
L 103.036659 112.048178 
L 106.334967 118.118996 
L 107.434403 119.508925 
L 109.633275 122.810741 
L 110.732711 124.012049 
L 111.832147 126.332888 
L 112.931583 128.003367 
L 114.031019 128.799568 
L 115.130455 131.907204 
L 116.229891 133.963134 
L 117.329327 134.516695 
L 118.428763 135.678587 
L 119.528199 137.915566 
L 120.627635 139.333323 
L 121.727071 142.125327 
L 122.826506 143.011137 
L 123.925942 144.927871 
L 125.025378 147.658266 
L 126.124814 148.258747 
L 127.22425 149.524465 
L 128.323686 150.19294 
L 129.423122 152.364535 
L 130.522558 156.706269 
L 131.621994 156.706269 
L 132.72143 158.792501 
L 134.920302 161.157677 
L 137.119174 161.157677 
L 138.21861 163.888072 
L 139.318046 165.429262 
L 140.417482 171.069876 
L 141.516918 173.435052 
L 142.616354 173.435052 
L 143.71579 176.165447 
L 145.914662 176.165447 
L 147.014098 183.347251 
L 149.21297 183.347251 
L 150.312406 188.442822 
L 153.610714 188.442822 
L 154.71015 195.624626 
L 162.406202 195.624626 
L 163.505638 218.282713 
L 174.499998 218.282713 
L 175.599434 240.9408 
L 330.619909 240.9408 
L 330.619909 240.9408 
" style="fill:none;stroke:#1f77b4;stroke-linecap:square;stroke-width:1.5;"/>
   </g>
   <g id="line2d_14">
    <path clip-path="url(#pf4ff0d3acc)" d="M 61.258091 240.9408 
L 62.357527 88.998712 
L 63.456963 77.842967 
L 64.556399 71.973507 
L 65.655835 68.407158 
L 66.755271 66.35086 
L 68.954143 64.192868 
L 70.053579 63.39929 
L 72.252451 63.02786 
L 73.351887 63.032828 
L 77.749631 64.470885 
L 79.948503 65.536954 
L 84.346247 68.74002 
L 87.644555 71.932401 
L 88.743991 72.816316 
L 90.942863 74.931706 
L 93.141735 76.937874 
L 94.241171 78.166915 
L 95.340607 79.1759 
L 97.539479 81.723891 
L 99.738351 83.924676 
L 105.235531 90.881658 
L 110.732711 98.438408 
L 111.832147 99.149248 
L 114.031019 101.956155 
L 115.130455 102.827062 
L 116.229891 104.501155 
L 117.329327 106.580934 
L 118.428763 108.286547 
L 119.528199 109.070993 
L 120.627635 110.900097 
L 121.727071 111.579979 
L 122.826506 113.023425 
L 123.925942 114.23353 
L 125.025378 115.628937 
L 126.124814 117.678911 
L 129.423122 120.7568 
L 130.522558 121.415334 
L 131.621994 124.012049 
L 132.72143 125.300799 
L 134.920302 130.28532 
L 136.019738 131.907204 
L 137.119174 133.163938 
L 138.21861 133.963134 
L 139.318046 134.237752 
L 140.417482 134.237752 
L 141.516918 135.380891 
L 142.616354 137.915566 
L 143.71579 140.08716 
L 144.815226 141.281714 
L 145.914662 143.471228 
L 147.014098 144.428894 
L 149.21297 147.658266 
L 150.312406 148.258747 
L 151.411842 149.524465 
L 152.511278 151.610698 
L 153.610714 153.975873 
L 154.71015 154.84007 
L 155.809586 157.718687 
L 156.909022 158.792501 
L 158.008458 158.792501 
L 160.20733 161.157677 
L 162.406202 173.435052 
L 163.505638 171.069876 
L 164.605074 173.435052 
L 165.70451 195.624626 
L 167.903382 195.624626 
L 169.002818 218.282713 
L 174.499998 218.282713 
L 175.599434 195.624626 
L 184.394922 195.624626 
L 185.494358 218.282713 
L 204.18477 218.282713 
L 205.284206 240.9408 
L 330.619909 240.9408 
L 330.619909 240.9408 
" style="fill:none;stroke:#ff7f0e;stroke-linecap:square;stroke-width:1.5;"/>
   </g>
   <g id="line2d_15">
    <path clip-path="url(#pf4ff0d3acc)" d="M 61.258091 240.9408 
L 62.357527 143.943589 
L 63.456963 119.997577 
L 64.556399 105.347286 
L 65.655835 96.234402 
L 66.755271 90.27001 
L 67.854707 84.973256 
L 68.954143 81.286871 
L 71.153015 76.401415 
L 73.351887 73.068425 
L 74.451323 72.014709 
L 76.650195 70.152635 
L 81.047939 68.447582 
L 83.246811 68.299809 
L 84.346247 68.286436 
L 85.445683 68.080436 
L 86.545119 68.219722 
L 88.743991 68.801844 
L 89.843427 69.396632 
L 90.942863 69.785142 
L 92.042299 70.429574 
L 94.241171 71.478417 
L 97.539479 73.341949 
L 99.738351 74.902549 
L 103.036659 76.937874 
L 105.235531 78.496898 
L 107.434403 80.51042 
L 108.533839 81.300801 
L 111.832147 84.300335 
L 115.130455 87.692224 
L 116.229891 88.117102 
L 117.329327 88.977203 
L 118.428763 90.223823 
L 119.528199 91.739871 
L 120.627635 92.747857 
L 121.727071 94.507992 
L 122.826506 95.629604 
L 123.925942 97.029115 
L 125.025378 98.075434 
L 126.124814 98.921675 
L 128.323686 102.045839 
L 130.522558 104.501155 
L 131.621994 105.401536 
L 132.72143 106.580934 
L 133.820866 107.596769 
L 137.119174 111.96928 
L 138.21861 112.857109 
L 140.417482 115.340922 
L 141.516918 117.03863 
L 142.616354 118.007945 
L 143.71579 118.684938 
L 145.914662 121.148975 
L 147.014098 122.23932 
L 148.113534 124.168107 
L 149.21297 125.300799 
L 150.312406 126.690729 
L 151.411842 127.428856 
L 153.610714 130.065286 
L 154.71015 132.650496 
L 155.809586 132.650496 
L 156.909022 134.516695 
L 158.008458 136.602928 
L 159.107894 137.915566 
L 160.20733 137.915566 
L 161.306766 137.24709 
L 162.406202 138.968103 
L 163.505638 140.476462 
L 164.605074 141.698499 
L 165.70451 141.698499 
L 166.803946 143.011137 
L 169.002818 147.658266 
L 170.102254 149.524465 
L 171.20169 150.887638 
L 173.400562 152.364535 
L 175.599434 155.748602 
L 176.69887 155.748602 
L 177.798306 158.792501 
L 179.997178 161.157677 
L 181.096614 161.157677 
L 182.19605 163.888072 
L 183.295486 165.429262 
L 184.394922 165.429262 
L 185.494358 163.888072 
L 187.69323 163.888072 
L 188.792666 167.117444 
L 189.892102 168.983643 
L 190.991538 171.069876 
L 196.488718 171.069876 
L 197.588154 176.165447 
L 198.68759 179.394819 
L 199.787026 179.394819 
L 200.886462 183.347251 
L 204.18477 183.347251 
L 205.284206 179.394819 
L 206.383642 183.347251 
L 210.781386 183.347251 
L 211.880822 188.442822 
L 212.980258 188.442822 
L 214.079694 195.624626 
L 215.17913 218.282713 
L 225.074054 218.282713 
L 226.17349 240.9408 
L 330.619909 240.9408 
L 330.619909 240.9408 
" style="fill:none;stroke:#2ca02c;stroke-linecap:square;stroke-width:1.5;"/>
   </g>
   <g id="line2d_16">
    <path clip-path="url(#pf4ff0d3acc)" d="M 61.258091 240.9408 
L 62.357527 218.282713 
L 63.456963 171.069876 
L 64.556399 151.610698 
L 65.655835 134.800101 
L 66.755271 122.810741 
L 67.854707 115.245949 
L 70.053579 102.501198 
L 72.252451 93.958499 
L 74.451323 87.335983 
L 75.550759 84.853634 
L 77.749631 80.806083 
L 79.948503 77.946448 
L 82.147375 75.74782 
L 83.246811 74.825033 
L 84.346247 74.114353 
L 85.445683 73.728484 
L 86.545119 73.182615 
L 87.644555 72.499784 
L 88.743991 72.172154 
L 89.843427 71.526506 
L 92.042299 71.106176 
L 94.241171 71.168986 
L 96.440043 71.687749 
L 97.539479 71.647301 
L 98.638915 71.73641 
L 100.837787 72.263951 
L 103.036659 73.147401 
L 105.235531 73.929557 
L 106.334967 74.077239 
L 107.434403 74.69019 
L 109.633275 75.565424 
L 111.832147 76.840104 
L 112.931583 77.245543 
L 115.130455 78.496898 
L 116.229891 79.843425 
L 118.428763 81.468826 
L 120.627635 83.026651 
L 122.826506 84.267351 
L 123.925942 85.076436 
L 125.025378 86.124399 
L 126.124814 86.929226 
L 127.22425 87.533009 
L 133.820866 93.732138 
L 134.920302 94.449342 
L 136.019738 95.504867 
L 137.119174 96.894162 
L 138.21861 98.075434 
L 139.318046 98.884029 
L 140.417482 100.049746 
L 142.616354 101.956155 
L 143.71579 103.206969 
L 147.014098 105.510536 
L 148.113534 106.580934 
L 149.21297 108.095746 
L 150.312406 109.137959 
L 152.511278 112.207035 
L 154.71015 113.791798 
L 155.809586 114.964046 
L 156.909022 116.319763 
L 158.008458 116.830245 
L 159.107894 117.897586 
L 161.306766 121.148975 
L 162.406202 122.23932 
L 163.505638 123.703997 
L 164.605074 124.969715 
L 165.70451 125.468692 
L 166.803946 126.872397 
L 167.903382 129.00434 
L 169.002818 129.421124 
L 170.102254 129.421124 
L 171.20169 130.508122 
L 172.301126 131.428459 
L 173.400562 132.151519 
L 174.499998 133.163938 
L 177.798306 138.259509 
L 178.897742 140.476462 
L 181.096614 143.943589 
L 182.19605 143.943589 
L 183.295486 144.428894 
L 184.394922 145.441313 
L 185.494358 147.658266 
L 186.593794 150.19294 
L 187.69323 152.364535 
L 188.792666 153.151887 
L 189.892102 155.748602 
L 190.991538 156.706269 
L 192.090974 156.706269 
L 193.19041 159.935641 
L 195.389282 162.470315 
L 196.488718 168.983643 
L 197.588154 168.983643 
L 198.68759 167.117444 
L 200.886462 167.117444 
L 201.985898 171.069876 
L 204.18477 171.069876 
L 205.284206 176.165447 
L 206.383642 176.165447 
L 207.483078 179.394819 
L 208.582514 183.347251 
L 209.68195 183.347251 
L 210.781386 188.442822 
L 211.880822 183.347251 
L 214.079694 183.347251 
L 215.17913 188.442822 
L 225.074054 188.442822 
L 226.17349 183.347251 
L 228.372362 183.347251 
L 229.471798 188.442822 
L 230.571234 188.442822 
L 231.67067 195.624626 
L 238.267286 195.624626 
L 239.366722 218.282713 
L 255.858262 218.282713 
L 256.957698 240.9408 
L 330.619909 240.9408 
L 330.619909 240.9408 
" style="fill:none;stroke:#d62728;stroke-linecap:square;stroke-width:1.5;"/>
   </g>
   <g id="line2d_17">
    <path clip-path="url(#pf4ff0d3acc)" d="M 61.258091 240.9408 
L 63.456963 240.9408 
L 64.556399 218.282713 
L 65.655835 188.442822 
L 66.755271 165.429262 
L 67.854707 151.610698 
L 68.954143 140.874512 
L 70.053579 133.963134 
L 71.153015 125.982134 
L 72.252451 120.373121 
L 73.351887 115.725992 
L 74.451323 109.961945 
L 75.550759 105.841621 
L 76.650195 102.593692 
L 77.749631 98.846462 
L 78.849067 95.818371 
L 81.047939 91.146928 
L 82.147375 88.912833 
L 86.545119 81.752459 
L 87.644555 81.079219 
L 89.843427 79.040454 
L 93.141735 76.624752 
L 95.340607 75.545273 
L 96.440043 75.137155 
L 97.539479 74.931706 
L 98.638915 74.480346 
L 99.738351 74.348092 
L 101.937223 73.746669 
L 104.136095 73.431091 
L 106.334967 73.683102 
L 107.434403 73.64688 
L 110.732711 74.08651 
L 112.931583 74.728612 
L 114.031019 74.786401 
L 115.130455 75.374911 
L 116.229891 75.484958 
L 117.329327 75.963016 
L 118.428763 76.275047 
L 119.528199 76.411987 
L 120.627635 76.689083 
L 123.925942 78.676236 
L 125.025378 78.9304 
L 126.124814 79.804961 
L 127.22425 80.417371 
L 128.323686 80.792536 
L 129.423122 81.525191 
L 130.522558 82.098925 
L 131.621994 82.934717 
L 133.820866 84.021908 
L 136.019738 85.762167 
L 137.119174 86.401018 
L 138.21861 87.335983 
L 140.417482 89.390405 
L 141.516918 90.200775 
L 142.616354 91.195589 
L 143.71579 91.891261 
L 144.815226 93.042848 
L 145.914662 93.844957 
L 147.014098 95.07508 
L 148.113534 96.009172 
L 149.21297 96.364403 
L 150.312406 97.267786 
L 152.511278 98.003723 
L 153.610714 98.846462 
L 154.71015 100.089956 
L 155.809586 100.829797 
L 156.909022 101.427384 
L 159.107894 103.159033 
L 160.20733 104.346908 
L 163.505638 107.352455 
L 164.605074 108.0326 
L 165.70451 109.137959 
L 166.803946 109.961945 
L 167.903382 110.103081 
L 169.002818 111.123837 
L 170.102254 113.023425 
L 171.20169 114.055513 
L 173.400562 116.319763 
L 174.499998 118.343207 
L 175.599434 120.121875 
L 177.798306 122.810741 
L 178.897742 123.251739 
L 179.997178 124.168107 
L 182.19605 126.690729 
L 183.295486 127.809785 
L 184.394922 128.597138 
L 185.494358 129.211506 
L 186.593794 130.065286 
L 187.69323 130.508122 
L 189.892102 132.905356 
L 190.991538 132.905356 
L 192.090974 134.516695 
L 193.19041 134.516695 
L 194.289846 135.380891 
L 195.389282 136.92208 
L 196.488718 136.92208 
L 197.588154 137.578174 
L 198.68759 138.968103 
L 199.787026 139.706231 
L 201.985898 143.011137 
L 203.085334 145.970083 
L 204.18477 147.077476 
L 205.284206 146.515127 
L 206.383642 146.515127 
L 207.483078 147.077476 
L 208.582514 146.515127 
L 209.68195 148.880302 
L 211.880822 150.19294 
L 212.980258 151.610698 
L 214.079694 152.364535 
L 216.278566 152.364535 
L 217.378002 154.84007 
L 219.576874 156.706269 
L 220.67631 158.792501 
L 221.775746 158.792501 
L 222.875182 161.157677 
L 223.974618 162.470315 
L 225.074054 162.470315 
L 226.17349 165.429262 
L 227.272926 165.429262 
L 228.372362 167.117444 
L 229.471798 165.429262 
L 230.571234 168.983643 
L 231.67067 171.069876 
L 233.869542 171.069876 
L 234.968978 173.435052 
L 236.068414 176.165447 
L 237.16785 179.394819 
L 238.267286 179.394819 
L 239.366722 176.165447 
L 240.466158 179.394819 
L 241.565594 183.347251 
L 243.764466 183.347251 
L 244.863902 188.442822 
L 252.559954 188.442822 
L 253.65939 195.624626 
L 255.858262 195.624626 
L 256.957698 188.442822 
L 265.753186 188.442822 
L 266.852622 195.624626 
L 270.150929 195.624626 
L 271.250365 218.282713 
L 285.543033 218.282713 
L 286.642469 240.9408 
L 330.619909 240.9408 
L 330.619909 240.9408 
" style="fill:none;stroke:#9467bd;stroke-linecap:square;stroke-width:1.5;"/>
   </g>
   <g id="line2d_18">
    <path clip-path="url(#pf4ff0d3acc)" d="M 61.258091 240.9408 
L 64.556399 240.9408 
L 65.655835 218.282713 
L 66.755271 218.282713 
L 67.854707 179.394819 
L 68.954143 165.429262 
L 70.053579 161.157677 
L 71.153015 153.975873 
L 72.252451 145.441313 
L 73.351887 140.08716 
L 74.451323 135.981372 
L 75.550759 128.003367 
L 77.749631 121.960377 
L 82.147375 107.782242 
L 83.246811 104.708928 
L 84.346247 102.135979 
L 85.445683 100.292387 
L 86.545119 98.884029 
L 87.644555 95.945343 
L 88.743991 93.704045 
L 89.843427 92.30141 
L 90.942863 90.177757 
L 92.042299 88.510499 
L 93.141735 86.531601 
L 96.440043 82.215937 
L 97.539479 81.245145 
L 100.837787 79.99812 
L 101.937223 79.412319 
L 103.036659 78.628235 
L 104.136095 78.39016 
L 105.235531 77.61515 
L 107.434403 76.699828 
L 109.633275 76.285543 
L 110.732711 75.942408 
L 111.832147 75.839727 
L 114.031019 75.942408 
L 118.428763 75.235833 
L 119.528199 75.494996 
L 120.627635 75.983648 
L 121.727071 75.839727 
L 122.826506 76.222659 
L 123.925942 76.1913 
L 127.22425 77.334439 
L 128.323686 77.831506 
L 129.423122 78.108631 
L 132.72143 79.43739 
L 133.820866 79.972244 
L 136.019738 80.630777 
L 137.119174 80.846786 
L 138.21861 81.482901 
L 139.318046 81.709624 
L 141.516918 82.980624 
L 142.616354 83.652047 
L 143.71579 84.136025 
L 145.914662 85.389632 
L 147.014098 85.888107 
L 148.113534 86.625467 
L 149.21297 87.792465 
L 150.312406 88.406123 
L 153.610714 90.786172 
L 154.71015 91.21997 
L 158.008458 93.647993 
L 159.107894 94.420089 
L 160.20733 95.442827 
L 161.306766 96.266813 
L 162.406202 97.233493 
L 163.505638 97.896698 
L 165.70451 100.009627 
L 166.803946 100.704324 
L 167.903382 101.866923 
L 169.002818 102.409185 
L 170.102254 103.255036 
L 171.20169 104.244819 
L 172.301126 105.078502 
L 173.400562 106.992188 
L 175.599434 108.805632 
L 176.69887 109.137959 
L 177.798306 109.137959 
L 178.897742 110.679148 
L 179.997178 111.657157 
L 182.19605 113.191317 
L 185.494358 117.678911 
L 186.593794 117.462902 
L 187.69323 118.456387 
L 188.792666 119.874144 
L 189.892102 120.500093 
L 190.991538 122.099299 
L 192.090974 124.168107 
L 195.389282 127.055948 
L 196.488718 127.809785 
L 197.588154 129.633252 
L 199.787026 133.963134 
L 201.985898 135.088115 
L 203.085334 135.380891 
L 204.18477 136.602928 
L 205.284206 138.259509 
L 207.483078 138.968103 
L 208.582514 140.874512 
L 209.68195 140.476462 
L 210.781386 141.698499 
L 214.079694 144.428894 
L 216.278566 145.441313 
L 217.378002 145.441313 
L 218.477438 147.658266 
L 219.576874 147.077476 
L 220.67631 149.524465 
L 221.775746 149.524465 
L 222.875182 148.880302 
L 223.974618 150.19294 
L 225.074054 150.887638 
L 226.17349 150.887638 
L 227.272926 153.975873 
L 229.471798 153.975873 
L 230.571234 153.151887 
L 231.67067 153.975873 
L 233.869542 157.718687 
L 234.968978 156.706269 
L 236.068414 156.706269 
L 238.267286 158.792501 
L 239.366722 161.157677 
L 241.565594 161.157677 
L 243.764466 163.888072 
L 244.863902 167.117444 
L 245.963338 167.117444 
L 247.062774 168.983643 
L 248.16221 173.435052 
L 249.261646 176.165447 
L 250.361082 176.165447 
L 251.460518 179.394819 
L 253.65939 179.394819 
L 254.758826 183.347251 
L 259.15657 183.347251 
L 260.256006 188.442822 
L 263.554314 188.442822 
L 264.65375 195.624626 
L 265.753186 195.624626 
L 266.852622 188.442822 
L 267.952058 188.442822 
L 269.051494 195.624626 
L 270.150929 195.624626 
L 271.250365 188.442822 
L 272.349801 195.624626 
L 274.548673 195.624626 
L 275.648109 218.282713 
L 285.543033 218.282713 
L 286.642469 195.624626 
L 287.741905 195.624626 
L 288.841341 218.282713 
L 291.040213 218.282713 
L 292.139649 240.9408 
L 330.619909 240.9408 
L 330.619909 240.9408 
" style="fill:none;stroke:#8c564b;stroke-linecap:square;stroke-width:1.5;"/>
   </g>
   <g id="line2d_19">
    <path clip-path="url(#pf4ff0d3acc)" d="M 61.258091 240.9408 
L 68.954143 240.9408 
L 70.053579 195.624626 
L 71.153015 179.394819 
L 73.351887 167.117444 
L 74.451323 157.718687 
L 75.550759 154.84007 
L 76.650195 147.658266 
L 77.749631 142.125327 
L 79.948503 135.981372 
L 81.047939 130.962313 
L 82.147375 128.396994 
L 83.246811 125.134484 
L 84.346247 122.666148 
L 85.445683 117.897586 
L 86.545119 114.144298 
L 87.644555 110.974364 
L 89.843427 106.292919 
L 90.942863 105.131934 
L 92.042299 103.546207 
L 94.241171 98.846462 
L 95.340607 97.096979 
L 96.440043 96.169758 
L 99.738351 90.738622 
L 100.837787 88.827368 
L 101.937223 87.592547 
L 103.036659 86.625467 
L 104.136095 85.372086 
L 105.235531 84.333381 
L 107.434403 82.767401 
L 108.533839 81.939287 
L 110.732711 80.860374 
L 111.832147 79.9335 
L 112.931583 79.337319 
L 114.031019 79.250218 
L 115.130455 78.532621 
L 116.229891 78.073752 
L 117.329327 77.831506 
L 118.428763 77.854435 
L 119.528199 77.67183 
L 120.627635 77.245543 
L 121.727071 77.179162 
L 123.925942 76.796824 
L 125.025378 76.742872 
L 128.323686 76.2122 
L 129.423122 76.507415 
L 132.72143 76.732101 
L 137.119174 77.9234 
L 139.318046 79.065004 
L 140.417482 79.114205 
L 141.516918 79.412319 
L 142.616354 79.43739 
L 143.71579 80.037006 
L 144.815226 80.193409 
L 145.914662 80.833208 
L 150.312406 82.304205 
L 151.411842 82.934717 
L 154.71015 84.366489 
L 155.809586 85.110963 
L 159.107894 86.456864 
L 160.20733 86.910087 
L 162.406202 88.615493 
L 164.605074 90.13181 
L 169.002818 93.260516 
L 170.102254 93.39793 
L 171.20169 94.158966 
L 172.301126 95.28867 
L 173.400562 95.350172 
L 174.499998 95.977229 
L 175.599434 96.760229 
L 176.69887 98.111398 
L 178.897742 100.049746 
L 179.997178 100.579734 
L 182.19605 102.827062 
L 183.295486 103.255036 
L 184.394922 104.042388 
L 185.494358 105.025232 
L 186.593794 106.179012 
L 187.69323 106.814766 
L 188.792666 107.969678 
L 189.892102 108.350607 
L 190.991538 109.205179 
L 192.090974 109.613947 
L 193.19041 111.123837 
L 194.289846 111.812531 
L 196.488718 114.144298 
L 197.588154 114.964046 
L 198.68759 115.436407 
L 199.787026 116.319763 
L 200.886462 117.570577 
L 201.985898 119.269563 
L 203.085334 119.874144 
L 204.18477 121.415334 
L 205.284206 122.666148 
L 207.483078 125.809327 
L 208.582514 126.690729 
L 209.68195 128.396994 
L 210.781386 129.211506 
L 211.880822 129.211506 
L 212.980258 130.28532 
L 215.17913 132.151519 
L 216.278566 132.650496 
L 217.378002 132.650496 
L 218.477438 133.963134 
L 219.576874 136.289424 
L 222.875182 140.08716 
L 223.974618 140.08716 
L 225.074054 140.476462 
L 226.17349 140.476462 
L 227.272926 140.08716 
L 228.372362 141.281714 
L 229.471798 143.011137 
L 230.571234 144.428894 
L 231.67067 144.927871 
L 233.869542 144.927871 
L 234.968978 145.970083 
L 236.068414 146.515127 
L 237.16785 147.658266 
L 238.267286 149.524465 
L 239.366722 151.610698 
L 240.466158 153.151887 
L 241.565594 153.975873 
L 242.66503 153.975873 
L 243.764466 154.84007 
L 244.863902 153.151887 
L 245.963338 153.975873 
L 247.062774 153.151887 
L 248.16221 153.975873 
L 249.261646 156.706269 
L 250.361082 158.792501 
L 251.460518 158.792501 
L 252.559954 162.470315 
L 253.65939 161.157677 
L 254.758826 165.429262 
L 256.957698 168.983643 
L 258.057134 171.069876 
L 259.15657 173.435052 
L 260.256006 176.165447 
L 262.454878 176.165447 
L 263.554314 179.394819 
L 264.65375 176.165447 
L 266.852622 176.165447 
L 267.952058 183.347251 
L 269.051494 179.394819 
L 270.150929 183.347251 
L 272.349801 183.347251 
L 273.449237 188.442822 
L 275.648109 188.442822 
L 276.747545 218.282713 
L 278.946417 218.282713 
L 280.045853 240.9408 
L 287.741905 240.9408 
L 288.841341 218.282713 
L 289.940777 240.9408 
L 291.040213 240.9408 
L 292.139649 218.282713 
L 303.134009 218.282713 
L 304.233445 240.9408 
L 330.619909 240.9408 
L 330.619909 240.9408 
" style="fill:none;stroke:#e377c2;stroke-linecap:square;stroke-width:1.5;"/>
   </g>
   <g id="line2d_20">
    <path clip-path="url(#pf4ff0d3acc)" d="M 61.258091 240.9408 
L 65.655835 240.9408 
L 66.755271 218.282713 
L 72.252451 218.282713 
L 73.351887 188.442822 
L 76.650195 188.442822 
L 77.749631 171.069876 
L 78.849067 162.470315 
L 79.948503 155.748602 
L 81.047939 153.151887 
L 82.147375 149.524465 
L 83.246811 146.515127 
L 85.445683 136.92208 
L 86.545119 132.650496 
L 87.644555 129.00434 
L 88.743991 126.156643 
L 89.843427 121.960377 
L 90.942863 119.508925 
L 92.042299 116.020389 
L 93.141735 114.23353 
L 94.241171 112.048178 
L 95.340607 111.048943 
L 96.440043 107.474191 
L 98.638915 104.29579 
L 99.738351 102.317647 
L 100.837787 100.998489 
L 101.937223 99.26414 
L 104.136095 96.594225 
L 105.235531 95.660925 
L 106.334967 94.130189 
L 110.732711 89.723565 
L 111.832147 88.934263 
L 114.031019 86.6443 
L 115.130455 86.234529 
L 116.229891 85.512942 
L 117.329327 84.516243 
L 118.428763 83.892383 
L 119.528199 82.995953 
L 122.826506 80.860374 
L 123.925942 80.630777 
L 125.025378 80.765474 
L 126.124814 80.272131 
L 128.323686 79.62656 
L 129.423122 79.163544 
L 131.621994 78.628235 
L 132.72143 78.724368 
L 134.920302 78.062141 
L 137.119174 78.120272 
L 138.21861 77.67183 
L 142.616354 78.131921 
L 143.71579 78.284061 
L 145.914662 78.893867 
L 147.014098 79.188265 
L 148.113534 79.114205 
L 149.21297 79.287495 
L 150.312406 79.601221 
L 151.411842 79.588564 
L 152.511278 80.049987 
L 154.71015 81.134355 
L 156.909022 81.795399 
L 158.008458 82.348505 
L 159.107894 82.691868 
L 161.306766 83.072797 
L 162.406202 83.399232 
L 164.605074 84.283836 
L 165.70451 84.717906 
L 166.803946 85.442374 
L 167.903382 85.924255 
L 169.002818 86.25295 
L 170.102254 86.929226 
L 171.20169 87.3164 
L 172.301126 87.513208 
L 173.400562 88.323063 
L 175.599434 89.106649 
L 176.69887 89.790956 
L 177.798306 90.809995 
L 178.897742 91.293313 
L 181.096614 92.562661 
L 182.19605 93.015827 
L 183.295486 93.958499 
L 184.394922 94.714813 
L 185.494358 95.135843 
L 188.792666 97.790317 
L 189.892102 99.26414 
L 192.090974 101.040914 
L 193.19041 101.297621 
L 194.289846 102.593692 
L 195.389282 102.780141 
L 197.588154 103.992139 
L 199.787026 105.841621 
L 200.886462 106.407564 
L 203.085334 108.286547 
L 204.18477 109.070993 
L 205.284206 109.34039 
L 207.483078 111.35044 
L 208.582514 112.857109 
L 209.68195 113.618145 
L 210.781386 114.144298 
L 211.880822 115.628937 
L 212.980258 115.921712 
L 215.17913 118.118996 
L 216.278566 119.508925 
L 217.378002 120.247053 
L 218.477438 121.685759 
L 219.576874 121.281654 
L 220.67631 121.415334 
L 221.775746 122.666148 
L 222.875182 124.325553 
L 223.974618 126.510905 
L 225.074054 127.241421 
L 227.272926 129.211506 
L 229.471798 131.428459 
L 230.571234 132.151519 
L 231.67067 133.42635 
L 233.869542 135.088115 
L 234.968978 136.289424 
L 236.068414 137.24709 
L 237.16785 138.610263 
L 238.267286 138.610263 
L 239.366722 138.259509 
L 240.466158 138.610263 
L 242.66503 142.125327 
L 243.764466 142.125327 
L 244.863902 143.011137 
L 245.963338 143.011137 
L 247.062774 144.428894 
L 249.261646 146.515127 
L 251.460518 148.880302 
L 252.559954 148.258747 
L 253.65939 150.19294 
L 254.758826 149.524465 
L 255.858262 150.19294 
L 256.957698 150.19294 
L 260.256006 152.364535 
L 261.355442 154.84007 
L 262.454878 157.718687 
L 263.554314 159.935641 
L 264.65375 161.157677 
L 265.753186 165.429262 
L 266.852622 165.429262 
L 267.952058 163.888072 
L 271.250365 163.888072 
L 273.449237 161.157677 
L 274.548673 165.429262 
L 275.648109 165.429262 
L 276.747545 162.470315 
L 277.846981 162.470315 
L 278.946417 165.429262 
L 280.045853 163.888072 
L 281.145289 168.983643 
L 282.244725 171.069876 
L 283.344161 173.435052 
L 284.443597 173.435052 
L 285.543033 176.165447 
L 286.642469 179.394819 
L 287.741905 183.347251 
L 288.841341 188.442822 
L 289.940777 183.347251 
L 292.139649 183.347251 
L 293.239085 188.442822 
L 294.338521 195.624626 
L 297.636829 195.624626 
L 298.736265 218.282713 
L 300.935137 218.282713 
L 302.034573 240.9408 
L 303.134009 240.9408 
L 304.233445 218.282713 
L 309.730625 218.282713 
L 310.830061 240.9408 
L 330.619909 240.9408 
L 330.619909 240.9408 
" style="fill:none;stroke:#7f7f7f;stroke-linecap:square;stroke-width:1.5;"/>
   </g>
   <g id="line2d_21">
    <path clip-path="url(#pf4ff0d3acc)" d="M 61.258091 240.9408 
L 77.749631 240.9408 
L 78.849067 183.347251 
L 79.948503 176.165447 
L 81.047939 171.069876 
L 82.147375 163.888072 
L 84.346247 163.888072 
L 85.445683 157.718687 
L 86.545119 154.84007 
L 87.644555 152.364535 
L 88.743991 148.880302 
L 89.843427 144.428894 
L 90.942863 139.333323 
L 92.042299 137.578174 
L 93.141735 133.963134 
L 94.241171 131.193853 
L 95.340607 125.809327 
L 96.440043 124.644706 
L 98.638915 118.570294 
L 99.738351 116.219408 
L 100.837787 115.057516 
L 101.937223 113.446178 
L 103.036659 112.048178 
L 105.235531 108.805632 
L 106.334967 106.522955 
L 107.434403 104.55287 
L 108.533839 103.111226 
L 109.633275 102.135979 
L 110.732711 100.414965 
L 115.130455 94.537391 
L 116.229891 93.620033 
L 117.329327 93.233161 
L 118.428763 91.992911 
L 120.627635 90.479352 
L 121.727071 89.478636 
L 122.826506 88.699939 
L 123.925942 87.672243 
L 125.025378 86.161033 
L 126.124814 85.354558 
L 127.22425 84.768682 
L 128.323686 84.516243 
L 129.423122 83.811908 
L 130.522558 83.274166 
L 131.621994 83.196445 
L 133.820866 82.392916 
L 136.019738 81.231259 
L 137.119174 80.901202 
L 138.21861 80.846786 
L 139.318046 80.219611 
L 140.417482 80.180323 
L 143.71579 79.374779 
L 144.815226 79.412319 
L 145.914662 79.188265 
L 147.014098 79.399797 
L 150.312406 79.21302 
L 151.411842 79.462496 
L 152.511278 79.42485 
L 153.610714 79.538029 
L 154.71015 79.449938 
L 155.809586 79.512816 
L 160.20733 80.697997 
L 162.406202 80.724957 
L 163.505638 81.120555 
L 164.605074 81.286871 
L 165.70451 81.638461 
L 166.803946 81.610075 
L 167.903382 81.939287 
L 170.102254 82.934717 
L 172.301126 83.860149 
L 173.400562 84.021908 
L 174.499998 84.466184 
L 175.599434 85.180221 
L 176.69887 85.672755 
L 177.798306 85.996773 
L 178.897742 86.10611 
L 183.295486 87.732252 
L 185.494358 89.106649 
L 186.593794 89.456537 
L 187.69323 90.223823 
L 189.892102 91.050006 
L 190.991538 91.865939 
L 192.090974 92.249619 
L 193.19041 92.827823 
L 194.289846 92.961908 
L 195.389282 94.18779 
L 196.488718 95.166303 
L 197.588154 95.977229 
L 198.68759 96.462533 
L 199.787026 96.266813 
L 200.886462 96.894162 
L 201.985898 97.199265 
L 203.085334 97.967976 
L 204.18477 98.548766 
L 205.284206 99.496185 
L 206.383642 100.74605 
L 207.483078 101.040914 
L 208.582514 101.689796 
L 211.880822 104.761255 
L 212.980258 106.179012 
L 215.17913 107.352455 
L 216.278566 109.272655 
L 217.378002 110.752492 
L 218.477438 110.900097 
L 220.67631 112.940071 
L 221.775746 113.107172 
L 222.875182 114.144298 
L 223.974618 114.68656 
L 225.074054 115.436407 
L 226.17349 116.020389 
L 228.372362 118.118996 
L 230.571234 119.874144 
L 231.67067 120.627981 
L 232.770106 121.822536 
L 233.869542 123.551958 
L 234.968978 124.806465 
L 236.068414 126.872397 
L 237.16785 127.618297 
L 238.267286 128.799568 
L 239.366722 131.193853 
L 240.466158 130.962313 
L 241.565594 131.428459 
L 242.66503 131.666214 
L 243.764466 133.163938 
L 244.863902 132.905356 
L 245.963338 134.516695 
L 247.062774 135.380891 
L 248.16221 135.678587 
L 249.261646 136.289424 
L 250.361082 136.602928 
L 251.460518 136.289424 
L 252.559954 136.92208 
L 253.65939 136.602928 
L 254.758826 136.92208 
L 256.957698 138.968103 
L 258.057134 140.874512 
L 259.15657 142.125327 
L 260.256006 142.125327 
L 261.355442 143.011137 
L 262.454878 143.011137 
L 264.65375 143.943589 
L 265.753186 143.471228 
L 266.852622 145.970083 
L 267.952058 147.658266 
L 269.051494 148.258747 
L 270.150929 148.258747 
L 271.250365 150.19294 
L 272.349801 150.887638 
L 273.449237 153.151887 
L 274.548673 151.610698 
L 276.747545 151.610698 
L 277.846981 153.151887 
L 278.946417 152.364535 
L 280.045853 153.151887 
L 281.145289 153.151887 
L 282.244725 153.975873 
L 283.344161 153.975873 
L 284.443597 154.84007 
L 285.543033 154.84007 
L 286.642469 153.975873 
L 287.741905 155.748602 
L 289.940777 157.718687 
L 291.040213 159.935641 
L 293.239085 159.935641 
L 295.437957 162.470315 
L 296.537393 165.429262 
L 297.636829 165.429262 
L 298.736265 167.117444 
L 299.835701 167.117444 
L 300.935137 168.983643 
L 302.034573 167.117444 
L 304.233445 167.117444 
L 305.332881 171.069876 
L 306.432317 171.069876 
L 307.531753 173.435052 
L 308.631189 173.435052 
L 309.730625 176.165447 
L 310.830061 173.435052 
L 314.128369 173.435052 
L 315.227805 179.394819 
L 316.327241 183.347251 
L 317.426677 183.347251 
L 318.526113 188.442822 
L 319.625549 188.442822 
L 320.724985 195.624626 
L 324.023293 195.624626 
L 325.122729 218.282713 
L 329.520473 218.282713 
L 330.619909 240.9408 
L 330.619909 240.9408 
" style="fill:none;stroke:#bcbd22;stroke-linecap:square;stroke-width:1.5;"/>
   </g>
   <g id="line2d_22">
    <path clip-path="url(#pf4ff0d3acc)" d="M 61.258091 240.9408 
L 77.749631 240.9408 
L 78.849067 218.282713 
L 82.147375 218.282713 
L 83.246811 183.347251 
L 84.346247 176.165447 
L 85.445683 176.165447 
L 86.545119 171.069876 
L 87.644555 167.117444 
L 88.743991 161.157677 
L 89.843427 158.792501 
L 90.942863 153.975873 
L 92.042299 150.887638 
L 93.141735 145.970083 
L 95.340607 140.08716 
L 96.440043 136.289424 
L 97.539479 133.692708 
L 98.638915 130.508122 
L 100.837787 123.251739 
L 101.937223 120.373121 
L 103.036659 116.726965 
L 105.235531 111.579979 
L 106.334967 109.961945 
L 107.434403 108.095746 
L 109.633275 103.111226 
L 110.732711 101.47085 
L 111.832147 99.535156 
L 116.229891 92.536362 
L 117.329327 90.643902 
L 119.528199 87.453935 
L 121.727071 84.734815 
L 123.925942 82.304205 
L 125.025378 81.024254 
L 127.22425 78.688257 
L 129.423122 76.233124 
L 131.621994 73.746669 
L 132.72143 72.550731 
L 134.920302 70.726247 
L 139.318046 67.197688 
L 142.616354 64.797191 
L 144.815226 63.313269 
L 148.113534 61.256787 
L 150.312406 60.091471 
L 154.71015 57.852994 
L 159.107894 55.909084 
L 163.505638 54.26022 
L 169.002818 52.489653 
L 173.400562 51.313155 
L 179.997178 49.793342 
L 186.593794 48.61245 
L 190.991538 47.90692 
L 198.68759 47.026012 
L 203.085334 46.675297 
L 212.980258 45.937169 
L 225.074054 45.426052 
L 251.460518 44.959692 
L 293.239085 44.797461 
L 330.619909 44.763775 
L 330.619909 44.763775 
" style="fill:none;stroke:#17becf;stroke-linecap:square;stroke-width:1.5;"/>
   </g>
   <g id="patch_3">
    <path d="M 47.79 240.9408 
L 47.79 32.4864 
" style="fill:none;stroke:#000000;stroke-linecap:square;stroke-linejoin:miter;stroke-width:0.8;"/>
   </g>
   <g id="patch_4">
    <path d="M 344.088 240.9408 
L 344.088 32.4864 
" style="fill:none;stroke:#000000;stroke-linecap:square;stroke-linejoin:miter;stroke-width:0.8;"/>
   </g>
   <g id="patch_5">
    <path d="M 47.79 240.9408 
L 344.088 240.9408 
" style="fill:none;stroke:#000000;stroke-linecap:square;stroke-linejoin:miter;stroke-width:0.8;"/>
   </g>
   <g id="patch_6">
    <path d="M 47.79 32.4864 
L 344.088 32.4864 
" style="fill:none;stroke:#000000;stroke-linecap:square;stroke-linejoin:miter;stroke-width:0.8;"/>
   </g>
   <g id="text_15">
    <!-- unimolecular decay -->
    <g transform="translate(136.945875 26.4864)scale(0.12 -0.12)">
     <defs>
      <path d="M 603 4863 
L 1178 4863 
L 1178 0 
L 603 0 
L 603 4863 
z
" id="DejaVuSans-6c" transform="scale(0.015625)"/>
      <path d="M 2194 1759 
Q 1497 1759 1228 1600 
Q 959 1441 959 1056 
Q 959 750 1161 570 
Q 1363 391 1709 391 
Q 2188 391 2477 730 
Q 2766 1069 2766 1631 
L 2766 1759 
L 2194 1759 
z
M 3341 1997 
L 3341 0 
L 2766 0 
L 2766 531 
Q 2569 213 2275 61 
Q 1981 -91 1556 -91 
Q 1019 -91 701 211 
Q 384 513 384 1019 
Q 384 1609 779 1909 
Q 1175 2209 1959 2209 
L 2766 2209 
L 2766 2266 
Q 2766 2663 2505 2880 
Q 2244 3097 1772 3097 
Q 1472 3097 1187 3025 
Q 903 2953 641 2809 
L 641 3341 
Q 956 3463 1253 3523 
Q 1550 3584 1831 3584 
Q 2591 3584 2966 3190 
Q 3341 2797 3341 1997 
z
" id="DejaVuSans-61" transform="scale(0.015625)"/>
      <path d="M 2631 2963 
Q 2534 3019 2420 3045 
Q 2306 3072 2169 3072 
Q 1681 3072 1420 2755 
Q 1159 2438 1159 1844 
L 1159 0 
L 581 0 
L 581 3500 
L 1159 3500 
L 1159 2956 
Q 1341 3275 1631 3429 
Q 1922 3584 2338 3584 
Q 2397 3584 2469 3576 
Q 2541 3569 2628 3553 
L 2631 2963 
z
" id="DejaVuSans-72" transform="scale(0.015625)"/>
      <path d="M 2906 2969 
L 2906 4863 
L 3481 4863 
L 3481 0 
L 2906 0 
L 2906 525 
Q 2725 213 2448 61 
Q 2172 -91 1784 -91 
Q 1150 -91 751 415 
Q 353 922 353 1747 
Q 353 2572 751 3078 
Q 1150 3584 1784 3584 
Q 2172 3584 2448 3432 
Q 2725 3281 2906 2969 
z
M 947 1747 
Q 947 1113 1208 752 
Q 1469 391 1925 391 
Q 2381 391 2643 752 
Q 2906 1113 2906 1747 
Q 2906 2381 2643 2742 
Q 2381 3103 1925 3103 
Q 1469 3103 1208 2742 
Q 947 2381 947 1747 
z
" id="DejaVuSans-64" transform="scale(0.015625)"/>
      <path d="M 2059 -325 
Q 1816 -950 1584 -1140 
Q 1353 -1331 966 -1331 
L 506 -1331 
L 506 -850 
L 844 -850 
Q 1081 -850 1212 -737 
Q 1344 -625 1503 -206 
L 1606 56 
L 191 3500 
L 800 3500 
L 1894 763 
L 2988 3500 
L 3597 3500 
L 2059 -325 
z
" id="DejaVuSans-79" transform="scale(0.015625)"/>
     </defs>
     <use xlink:href="#DejaVuSans-75"/>
     <use x="63.378906" xlink:href="#DejaVuSans-6e"/>
     <use x="126.757812" xlink:href="#DejaVuSans-69"/>
     <use x="154.541016" xlink:href="#DejaVuSans-6d"/>
     <use x="251.953125" xlink:href="#DejaVuSans-6f"/>
     <use x="313.134766" xlink:href="#DejaVuSans-6c"/>
     <use x="340.917969" xlink:href="#DejaVuSans-65"/>
     <use x="402.441406" xlink:href="#DejaVuSans-63"/>
     <use x="457.421875" xlink:href="#DejaVuSans-75"/>
     <use x="520.800781" xlink:href="#DejaVuSans-6c"/>
     <use x="548.583984" xlink:href="#DejaVuSans-61"/>
     <use x="609.863281" xlink:href="#DejaVuSans-72"/>
     <use x="650.976562" xlink:href="#DejaVuSans-20"/>
     <use x="682.763672" xlink:href="#DejaVuSans-64"/>
     <use x="746.240234" xlink:href="#DejaVuSans-65"/>
     <use x="807.763672" xlink:href="#DejaVuSans-63"/>
     <use x="862.744141" xlink:href="#DejaVuSans-61"/>
     <use x="924.023438" xlink:href="#DejaVuSans-79"/>
    </g>
   </g>
   <g id="legend_1">
    <g id="patch_7">
     <path d="M 298.7255 211.604225 
L 337.088 211.604225 
Q 339.088 211.604225 339.088 209.604225 
L 339.088 63.822975 
Q 339.088 61.822975 337.088 61.822975 
L 298.7255 61.822975 
Q 296.7255 61.822975 296.7255 63.822975 
L 296.7255 209.604225 
Q 296.7255 211.604225 298.7255 211.604225 
z
" style="fill:#ffffff;opacity:0.8;stroke:#cccccc;stroke-linejoin:miter;"/>
    </g>
    <g id="line2d_23">
     <path d="M 300.7255 69.921413 
L 320.7255 69.921413 
" style="fill:none;stroke:#1f77b4;stroke-linecap:square;stroke-width:1.5;"/>
    </g>
    <g id="line2d_24"/>
    <g id="text_16">
     <!-- 0 -->
     <g transform="translate(328.7255 73.421413)scale(0.1 -0.1)">
      <use xlink:href="#DejaVuSans-30"/>
     </g>
    </g>
    <g id="line2d_25">
     <path d="M 300.7255 84.599538 
L 320.7255 84.599538 
" style="fill:none;stroke:#ff7f0e;stroke-linecap:square;stroke-width:1.5;"/>
    </g>
    <g id="line2d_26"/>
    <g id="text_17">
     <!-- 1 -->
     <g transform="translate(328.7255 88.099538)scale(0.1 -0.1)">
      <use xlink:href="#DejaVuSans-31"/>
     </g>
    </g>
    <g id="line2d_27">
     <path d="M 300.7255 99.277663 
L 320.7255 99.277663 
" style="fill:none;stroke:#2ca02c;stroke-linecap:square;stroke-width:1.5;"/>
    </g>
    <g id="line2d_28"/>
    <g id="text_18">
     <!-- 2 -->
     <g transform="translate(328.7255 102.777663)scale(0.1 -0.1)">
      <use xlink:href="#DejaVuSans-32"/>
     </g>
    </g>
    <g id="line2d_29">
     <path d="M 300.7255 113.955788 
L 320.7255 113.955788 
" style="fill:none;stroke:#d62728;stroke-linecap:square;stroke-width:1.5;"/>
    </g>
    <g id="line2d_30"/>
    <g id="text_19">
     <!-- 3 -->
     <g transform="translate(328.7255 117.455788)scale(0.1 -0.1)">
      <use xlink:href="#DejaVuSans-33"/>
     </g>
    </g>
    <g id="line2d_31">
     <path d="M 300.7255 128.633913 
L 320.7255 128.633913 
" style="fill:none;stroke:#9467bd;stroke-linecap:square;stroke-width:1.5;"/>
    </g>
    <g id="line2d_32"/>
    <g id="text_20">
     <!-- 4 -->
     <g transform="translate(328.7255 132.133913)scale(0.1 -0.1)">
      <use xlink:href="#DejaVuSans-34"/>
     </g>
    </g>
    <g id="line2d_33">
     <path d="M 300.7255 143.312038 
L 320.7255 143.312038 
" style="fill:none;stroke:#8c564b;stroke-linecap:square;stroke-width:1.5;"/>
    </g>
    <g id="line2d_34"/>
    <g id="text_21">
     <!-- 5 -->
     <g transform="translate(328.7255 146.812038)scale(0.1 -0.1)">
      <use xlink:href="#DejaVuSans-35"/>
     </g>
    </g>
    <g id="line2d_35">
     <path d="M 300.7255 157.990162 
L 320.7255 157.990162 
" style="fill:none;stroke:#e377c2;stroke-linecap:square;stroke-width:1.5;"/>
    </g>
    <g id="line2d_36"/>
    <g id="text_22">
     <!-- 6 -->
     <g transform="translate(328.7255 161.490162)scale(0.1 -0.1)">
      <defs>
       <path d="M 2113 2584 
Q 1688 2584 1439 2293 
Q 1191 2003 1191 1497 
Q 1191 994 1439 701 
Q 1688 409 2113 409 
Q 2538 409 2786 701 
Q 3034 994 3034 1497 
Q 3034 2003 2786 2293 
Q 2538 2584 2113 2584 
z
M 3366 4563 
L 3366 3988 
Q 3128 4100 2886 4159 
Q 2644 4219 2406 4219 
Q 1781 4219 1451 3797 
Q 1122 3375 1075 2522 
Q 1259 2794 1537 2939 
Q 1816 3084 2150 3084 
Q 2853 3084 3261 2657 
Q 3669 2231 3669 1497 
Q 3669 778 3244 343 
Q 2819 -91 2113 -91 
Q 1303 -91 875 529 
Q 447 1150 447 2328 
Q 447 3434 972 4092 
Q 1497 4750 2381 4750 
Q 2619 4750 2861 4703 
Q 3103 4656 3366 4563 
z
" id="DejaVuSans-36" transform="scale(0.015625)"/>
      </defs>
      <use xlink:href="#DejaVuSans-36"/>
     </g>
    </g>
    <g id="line2d_37">
     <path d="M 300.7255 172.668288 
L 320.7255 172.668288 
" style="fill:none;stroke:#7f7f7f;stroke-linecap:square;stroke-width:1.5;"/>
    </g>
    <g id="line2d_38"/>
    <g id="text_23">
     <!-- 7 -->
     <g transform="translate(328.7255 176.168288)scale(0.1 -0.1)">
      <defs>
       <path d="M 525 4666 
L 3525 4666 
L 3525 4397 
L 1831 0 
L 1172 0 
L 2766 4134 
L 525 4134 
L 525 4666 
z
" id="DejaVuSans-37" transform="scale(0.015625)"/>
      </defs>
      <use xlink:href="#DejaVuSans-37"/>
     </g>
    </g>
    <g id="line2d_39">
     <path d="M 300.7255 187.346412 
L 320.7255 187.346412 
" style="fill:none;stroke:#bcbd22;stroke-linecap:square;stroke-width:1.5;"/>
    </g>
    <g id="line2d_40"/>
    <g id="text_24">
     <!-- 8 -->
     <g transform="translate(328.7255 190.846412)scale(0.1 -0.1)">
      <defs>
       <path d="M 2034 2216 
Q 1584 2216 1326 1975 
Q 1069 1734 1069 1313 
Q 1069 891 1326 650 
Q 1584 409 2034 409 
Q 2484 409 2743 651 
Q 3003 894 3003 1313 
Q 3003 1734 2745 1975 
Q 2488 2216 2034 2216 
z
M 1403 2484 
Q 997 2584 770 2862 
Q 544 3141 544 3541 
Q 544 4100 942 4425 
Q 1341 4750 2034 4750 
Q 2731 4750 3128 4425 
Q 3525 4100 3525 3541 
Q 3525 3141 3298 2862 
Q 3072 2584 2669 2484 
Q 3125 2378 3379 2068 
Q 3634 1759 3634 1313 
Q 3634 634 3220 271 
Q 2806 -91 2034 -91 
Q 1263 -91 848 271 
Q 434 634 434 1313 
Q 434 1759 690 2068 
Q 947 2378 1403 2484 
z
M 1172 3481 
Q 1172 3119 1398 2916 
Q 1625 2713 2034 2713 
Q 2441 2713 2670 2916 
Q 2900 3119 2900 3481 
Q 2900 3844 2670 4047 
Q 2441 4250 2034 4250 
Q 1625 4250 1398 4047 
Q 1172 3844 1172 3481 
z
" id="DejaVuSans-38" transform="scale(0.015625)"/>
      </defs>
      <use xlink:href="#DejaVuSans-38"/>
     </g>
    </g>
    <g id="line2d_41">
     <path d="M 300.7255 202.024537 
L 320.7255 202.024537 
" style="fill:none;stroke:#17becf;stroke-linecap:square;stroke-width:1.5;"/>
    </g>
    <g id="line2d_42"/>
    <g id="text_25">
     <!-- 9 -->
     <g transform="translate(328.7255 205.524537)scale(0.1 -0.1)">
      <defs>
       <path d="M 703 97 
L 703 672 
Q 941 559 1184 500 
Q 1428 441 1663 441 
Q 2288 441 2617 861 
Q 2947 1281 2994 2138 
Q 2813 1869 2534 1725 
Q 2256 1581 1919 1581 
Q 1219 1581 811 2004 
Q 403 2428 403 3163 
Q 403 3881 828 4315 
Q 1253 4750 1959 4750 
Q 2769 4750 3195 4129 
Q 3622 3509 3622 2328 
Q 3622 1225 3098 567 
Q 2575 -91 1691 -91 
Q 1453 -91 1209 -44 
Q 966 3 703 97 
z
M 1959 2075 
Q 2384 2075 2632 2365 
Q 2881 2656 2881 3163 
Q 2881 3666 2632 3958 
Q 2384 4250 1959 4250 
Q 1534 4250 1286 3958 
Q 1038 3666 1038 3163 
Q 1038 2656 1286 2365 
Q 1534 2075 1959 2075 
z
" id="DejaVuSans-39" transform="scale(0.015625)"/>
      </defs>
      <use xlink:href="#DejaVuSans-39"/>
     </g>
    </g>
   </g>
  </g>
 </g>
 <defs>
  <clipPath id="pf4ff0d3acc">
   <rect height="208.4544" width="296.298" x="47.79" y="32.4864"/>
  </clipPath>
 </defs>
</svg>
