<?xml version="1.0" encoding="utf-8" standalone="no"?>
<!DOCTYPE svg PUBLIC "-//W3C//DTD SVG 1.1//EN"
  "http://www.w3.org/Graphics/SVG/1.1/DTD/svg11.dtd">
<svg height="276.48pt" version="1.1" viewBox="0 0 388.08 276.48" width="388.08pt" xmlns="http://www.w3.org/2000/svg" xmlns:xlink="http://www.w3.org/1999/xlink">
 <metadata>
  <rdf:RDF xmlns:cc="http://creativecommons.org/ns#" xmlns:dc="http://purl.org/dc/elements/1.1/" xmlns:rdf="http://www.w3.org/1999/02/22-rdf-syntax-ns#">
   <cc:Work>
    <dc:type rdf:resource="http://purl.org/dc/dcmitype/StillImage"/>
    <dc:date>2021-05-01T13:58:15.394262</dc:date>
    <dc:format>image/svg+xml</dc:format>
    <dc:creator>
     <cc:Agent>
      <dc:title>Matplotlib v3.4.1, https://matplotlib.org/</dc:title>
     </cc:Agent>
    </dc:creator>
   </cc:Work>
  </rdf:RDF>
 </metadata>
 <defs>
  <style type="text/css">*{stroke-linecap:butt;stroke-linejoin:round;}</style>
 </defs>
 <g id="figure_1">
  <g id="patch_1">
   <path d="M 0 276.48 
L 388.08 276.48 
L 388.08 0 
L 0 0 
z
" style="fill:#ffffff;"/>
  </g>
  <g id="axes_1">
   <g id="patch_2">
    <path d="M 48.51 246.0672 
L 349.272 246.0672 
L 349.272 33.1776 
L 48.51 33.1776 
z
" style="fill:#ffffff;"/>
   </g>
   <g id="matplotlib.axis_1">
    <g id="xtick_1">
     <g id="line2d_1">
      <defs>
       <path d="M 0 0 
L 0 3.5 
" id="m0c25811746" style="stroke:#000000;stroke-width:0.8;"/>
      </defs>
      <g>
       <use style="stroke:#000000;stroke-width:0.8;" x="62.181" xlink:href="#m0c25811746" y="246.0672"/>
      </g>
     </g>
     <g id="text_1">
      <!-- 0 -->
      <g transform="translate(58.99975 260.665638)scale(0.1 -0.1)">
       <defs>
        <path d="M 2034 4250 
Q 1547 4250 1301 3770 
Q 1056 3291 1056 2328 
Q 1056 1369 1301 889 
Q 1547 409 2034 409 
Q 2525 409 2770 889 
Q 3016 1369 3016 2328 
Q 3016 3291 2770 3770 
Q 2525 4250 2034 4250 
z
M 2034 4750 
Q 2819 4750 3233 4129 
Q 3647 3509 3647 2328 
Q 3647 1150 3233 529 
Q 2819 -91 2034 -91 
Q 1250 -91 836 529 
Q 422 1150 422 2328 
Q 422 3509 836 4129 
Q 1250 4750 2034 4750 
z
" id="DejaVuSans-30" transform="scale(0.015625)"/>
       </defs>
       <use xlink:href="#DejaVuSans-30"/>
      </g>
     </g>
    </g>
    <g id="xtick_2">
     <g id="line2d_2">
      <g>
       <use style="stroke:#000000;stroke-width:0.8;" x="110.149421" xlink:href="#m0c25811746" y="246.0672"/>
      </g>
     </g>
     <g id="text_2">
      <!-- 5 -->
      <g transform="translate(106.968171 260.665638)scale(0.1 -0.1)">
       <defs>
        <path d="M 691 4666 
L 3169 4666 
L 3169 4134 
L 1269 4134 
L 1269 2991 
Q 1406 3038 1543 3061 
Q 1681 3084 1819 3084 
Q 2600 3084 3056 2656 
Q 3513 2228 3513 1497 
Q 3513 744 3044 326 
Q 2575 -91 1722 -91 
Q 1428 -91 1123 -41 
Q 819 9 494 109 
L 494 744 
Q 775 591 1075 516 
Q 1375 441 1709 441 
Q 2250 441 2565 725 
Q 2881 1009 2881 1497 
Q 2881 1984 2565 2268 
Q 2250 2553 1709 2553 
Q 1456 2553 1204 2497 
Q 953 2441 691 2322 
L 691 4666 
z
" id="DejaVuSans-35" transform="scale(0.015625)"/>
       </defs>
       <use xlink:href="#DejaVuSans-35"/>
      </g>
     </g>
    </g>
    <g id="xtick_3">
     <g id="line2d_3">
      <g>
       <use style="stroke:#000000;stroke-width:0.8;" x="158.117842" xlink:href="#m0c25811746" y="246.0672"/>
      </g>
     </g>
     <g id="text_3">
      <!-- 10 -->
      <g transform="translate(151.755342 260.665638)scale(0.1 -0.1)">
       <defs>
        <path d="M 794 531 
L 1825 531 
L 1825 4091 
L 703 3866 
L 703 4441 
L 1819 4666 
L 2450 4666 
L 2450 531 
L 3481 531 
L 3481 0 
L 794 0 
L 794 531 
z
" id="DejaVuSans-31" transform="scale(0.015625)"/>
       </defs>
       <use xlink:href="#DejaVuSans-31"/>
       <use x="63.623047" xlink:href="#DejaVuSans-30"/>
      </g>
     </g>
    </g>
    <g id="xtick_4">
     <g id="line2d_4">
      <g>
       <use style="stroke:#000000;stroke-width:0.8;" x="206.086263" xlink:href="#m0c25811746" y="246.0672"/>
      </g>
     </g>
     <g id="text_4">
      <!-- 15 -->
      <g transform="translate(199.723763 260.665638)scale(0.1 -0.1)">
       <use xlink:href="#DejaVuSans-31"/>
       <use x="63.623047" xlink:href="#DejaVuSans-35"/>
      </g>
     </g>
    </g>
    <g id="xtick_5">
     <g id="line2d_5">
      <g>
       <use style="stroke:#000000;stroke-width:0.8;" x="254.054684" xlink:href="#m0c25811746" y="246.0672"/>
      </g>
     </g>
     <g id="text_5">
      <!-- 20 -->
      <g transform="translate(247.692184 260.665638)scale(0.1 -0.1)">
       <defs>
        <path d="M 1228 531 
L 3431 531 
L 3431 0 
L 469 0 
L 469 531 
Q 828 903 1448 1529 
Q 2069 2156 2228 2338 
Q 2531 2678 2651 2914 
Q 2772 3150 2772 3378 
Q 2772 3750 2511 3984 
Q 2250 4219 1831 4219 
Q 1534 4219 1204 4116 
Q 875 4013 500 3803 
L 500 4441 
Q 881 4594 1212 4672 
Q 1544 4750 1819 4750 
Q 2544 4750 2975 4387 
Q 3406 4025 3406 3419 
Q 3406 3131 3298 2873 
Q 3191 2616 2906 2266 
Q 2828 2175 2409 1742 
Q 1991 1309 1228 531 
z
" id="DejaVuSans-32" transform="scale(0.015625)"/>
       </defs>
       <use xlink:href="#DejaVuSans-32"/>
       <use x="63.623047" xlink:href="#DejaVuSans-30"/>
      </g>
     </g>
    </g>
    <g id="xtick_6">
     <g id="line2d_6">
      <g>
       <use style="stroke:#000000;stroke-width:0.8;" x="302.023105" xlink:href="#m0c25811746" y="246.0672"/>
      </g>
     </g>
     <g id="text_6">
      <!-- 25 -->
      <g transform="translate(295.660605 260.665638)scale(0.1 -0.1)">
       <use xlink:href="#DejaVuSans-32"/>
       <use x="63.623047" xlink:href="#DejaVuSans-35"/>
      </g>
     </g>
    </g>
    <g id="text_7">
     <!-- time (continuous units) -->
     <g transform="translate(140.726937 274.343763)scale(0.1 -0.1)">
      <defs>
       <path d="M 1172 4494 
L 1172 3500 
L 2356 3500 
L 2356 3053 
L 1172 3053 
L 1172 1153 
Q 1172 725 1289 603 
Q 1406 481 1766 481 
L 2356 481 
L 2356 0 
L 1766 0 
Q 1100 0 847 248 
Q 594 497 594 1153 
L 594 3053 
L 172 3053 
L 172 3500 
L 594 3500 
L 594 4494 
L 1172 4494 
z
" id="DejaVuSans-74" transform="scale(0.015625)"/>
       <path d="M 603 3500 
L 1178 3500 
L 1178 0 
L 603 0 
L 603 3500 
z
M 603 4863 
L 1178 4863 
L 1178 4134 
L 603 4134 
L 603 4863 
z
" id="DejaVuSans-69" transform="scale(0.015625)"/>
       <path d="M 3328 2828 
Q 3544 3216 3844 3400 
Q 4144 3584 4550 3584 
Q 5097 3584 5394 3201 
Q 5691 2819 5691 2113 
L 5691 0 
L 5113 0 
L 5113 2094 
Q 5113 2597 4934 2840 
Q 4756 3084 4391 3084 
Q 3944 3084 3684 2787 
Q 3425 2491 3425 1978 
L 3425 0 
L 2847 0 
L 2847 2094 
Q 2847 2600 2669 2842 
Q 2491 3084 2119 3084 
Q 1678 3084 1418 2786 
Q 1159 2488 1159 1978 
L 1159 0 
L 581 0 
L 581 3500 
L 1159 3500 
L 1159 2956 
Q 1356 3278 1631 3431 
Q 1906 3584 2284 3584 
Q 2666 3584 2933 3390 
Q 3200 3197 3328 2828 
z
" id="DejaVuSans-6d" transform="scale(0.015625)"/>
       <path d="M 3597 1894 
L 3597 1613 
L 953 1613 
Q 991 1019 1311 708 
Q 1631 397 2203 397 
Q 2534 397 2845 478 
Q 3156 559 3463 722 
L 3463 178 
Q 3153 47 2828 -22 
Q 2503 -91 2169 -91 
Q 1331 -91 842 396 
Q 353 884 353 1716 
Q 353 2575 817 3079 
Q 1281 3584 2069 3584 
Q 2775 3584 3186 3129 
Q 3597 2675 3597 1894 
z
M 3022 2063 
Q 3016 2534 2758 2815 
Q 2500 3097 2075 3097 
Q 1594 3097 1305 2825 
Q 1016 2553 972 2059 
L 3022 2063 
z
" id="DejaVuSans-65" transform="scale(0.015625)"/>
       <path id="DejaVuSans-20" transform="scale(0.015625)"/>
       <path d="M 1984 4856 
Q 1566 4138 1362 3434 
Q 1159 2731 1159 2009 
Q 1159 1288 1364 580 
Q 1569 -128 1984 -844 
L 1484 -844 
Q 1016 -109 783 600 
Q 550 1309 550 2009 
Q 550 2706 781 3412 
Q 1013 4119 1484 4856 
L 1984 4856 
z
" id="DejaVuSans-28" transform="scale(0.015625)"/>
       <path d="M 3122 3366 
L 3122 2828 
Q 2878 2963 2633 3030 
Q 2388 3097 2138 3097 
Q 1578 3097 1268 2742 
Q 959 2388 959 1747 
Q 959 1106 1268 751 
Q 1578 397 2138 397 
Q 2388 397 2633 464 
Q 2878 531 3122 666 
L 3122 134 
Q 2881 22 2623 -34 
Q 2366 -91 2075 -91 
Q 1284 -91 818 406 
Q 353 903 353 1747 
Q 353 2603 823 3093 
Q 1294 3584 2113 3584 
Q 2378 3584 2631 3529 
Q 2884 3475 3122 3366 
z
" id="DejaVuSans-63" transform="scale(0.015625)"/>
       <path d="M 1959 3097 
Q 1497 3097 1228 2736 
Q 959 2375 959 1747 
Q 959 1119 1226 758 
Q 1494 397 1959 397 
Q 2419 397 2687 759 
Q 2956 1122 2956 1747 
Q 2956 2369 2687 2733 
Q 2419 3097 1959 3097 
z
M 1959 3584 
Q 2709 3584 3137 3096 
Q 3566 2609 3566 1747 
Q 3566 888 3137 398 
Q 2709 -91 1959 -91 
Q 1206 -91 779 398 
Q 353 888 353 1747 
Q 353 2609 779 3096 
Q 1206 3584 1959 3584 
z
" id="DejaVuSans-6f" transform="scale(0.015625)"/>
       <path d="M 3513 2113 
L 3513 0 
L 2938 0 
L 2938 2094 
Q 2938 2591 2744 2837 
Q 2550 3084 2163 3084 
Q 1697 3084 1428 2787 
Q 1159 2491 1159 1978 
L 1159 0 
L 581 0 
L 581 3500 
L 1159 3500 
L 1159 2956 
Q 1366 3272 1645 3428 
Q 1925 3584 2291 3584 
Q 2894 3584 3203 3211 
Q 3513 2838 3513 2113 
z
" id="DejaVuSans-6e" transform="scale(0.015625)"/>
       <path d="M 544 1381 
L 544 3500 
L 1119 3500 
L 1119 1403 
Q 1119 906 1312 657 
Q 1506 409 1894 409 
Q 2359 409 2629 706 
Q 2900 1003 2900 1516 
L 2900 3500 
L 3475 3500 
L 3475 0 
L 2900 0 
L 2900 538 
Q 2691 219 2414 64 
Q 2138 -91 1772 -91 
Q 1169 -91 856 284 
Q 544 659 544 1381 
z
M 1991 3584 
L 1991 3584 
z
" id="DejaVuSans-75" transform="scale(0.015625)"/>
       <path d="M 2834 3397 
L 2834 2853 
Q 2591 2978 2328 3040 
Q 2066 3103 1784 3103 
Q 1356 3103 1142 2972 
Q 928 2841 928 2578 
Q 928 2378 1081 2264 
Q 1234 2150 1697 2047 
L 1894 2003 
Q 2506 1872 2764 1633 
Q 3022 1394 3022 966 
Q 3022 478 2636 193 
Q 2250 -91 1575 -91 
Q 1294 -91 989 -36 
Q 684 19 347 128 
L 347 722 
Q 666 556 975 473 
Q 1284 391 1588 391 
Q 1994 391 2212 530 
Q 2431 669 2431 922 
Q 2431 1156 2273 1281 
Q 2116 1406 1581 1522 
L 1381 1569 
Q 847 1681 609 1914 
Q 372 2147 372 2553 
Q 372 3047 722 3315 
Q 1072 3584 1716 3584 
Q 2034 3584 2315 3537 
Q 2597 3491 2834 3397 
z
" id="DejaVuSans-73" transform="scale(0.015625)"/>
       <path d="M 513 4856 
L 1013 4856 
Q 1481 4119 1714 3412 
Q 1947 2706 1947 2009 
Q 1947 1309 1714 600 
Q 1481 -109 1013 -844 
L 513 -844 
Q 928 -128 1133 580 
Q 1338 1288 1338 2009 
Q 1338 2731 1133 3434 
Q 928 4138 513 4856 
z
" id="DejaVuSans-29" transform="scale(0.015625)"/>
      </defs>
      <use xlink:href="#DejaVuSans-74"/>
      <use x="39.208984" xlink:href="#DejaVuSans-69"/>
      <use x="66.992188" xlink:href="#DejaVuSans-6d"/>
      <use x="164.404297" xlink:href="#DejaVuSans-65"/>
      <use x="225.927734" xlink:href="#DejaVuSans-20"/>
      <use x="257.714844" xlink:href="#DejaVuSans-28"/>
      <use x="296.728516" xlink:href="#DejaVuSans-63"/>
      <use x="351.708984" xlink:href="#DejaVuSans-6f"/>
      <use x="412.890625" xlink:href="#DejaVuSans-6e"/>
      <use x="476.269531" xlink:href="#DejaVuSans-74"/>
      <use x="515.478516" xlink:href="#DejaVuSans-69"/>
      <use x="543.261719" xlink:href="#DejaVuSans-6e"/>
      <use x="606.640625" xlink:href="#DejaVuSans-75"/>
      <use x="670.019531" xlink:href="#DejaVuSans-6f"/>
      <use x="731.201172" xlink:href="#DejaVuSans-75"/>
      <use x="794.580078" xlink:href="#DejaVuSans-73"/>
      <use x="846.679688" xlink:href="#DejaVuSans-20"/>
      <use x="878.466797" xlink:href="#DejaVuSans-75"/>
      <use x="941.845703" xlink:href="#DejaVuSans-6e"/>
      <use x="1005.224609" xlink:href="#DejaVuSans-69"/>
      <use x="1033.007812" xlink:href="#DejaVuSans-74"/>
      <use x="1072.216797" xlink:href="#DejaVuSans-73"/>
      <use x="1124.316406" xlink:href="#DejaVuSans-29"/>
     </g>
    </g>
   </g>
   <g id="matplotlib.axis_2">
    <g id="ytick_1">
     <g id="line2d_7">
      <defs>
       <path d="M 0 0 
L -3.5 0 
" id="m65af72442f" style="stroke:#000000;stroke-width:0.8;"/>
      </defs>
      <g>
       <use style="stroke:#000000;stroke-width:0.8;" x="48.51" xlink:href="#m65af72442f" y="236.3904"/>
      </g>
     </g>
     <g id="text_8">
      <!-- 0 -->
      <g transform="translate(35.1475 240.189619)scale(0.1 -0.1)">
       <use xlink:href="#DejaVuSans-30"/>
      </g>
     </g>
    </g>
    <g id="ytick_2">
     <g id="line2d_8">
      <g>
       <use style="stroke:#000000;stroke-width:0.8;" x="48.51" xlink:href="#m65af72442f" y="197.6832"/>
      </g>
     </g>
     <g id="text_9">
      <!-- 2000 -->
      <g transform="translate(16.06 201.482419)scale(0.1 -0.1)">
       <use xlink:href="#DejaVuSans-32"/>
       <use x="63.623047" xlink:href="#DejaVuSans-30"/>
       <use x="127.246094" xlink:href="#DejaVuSans-30"/>
       <use x="190.869141" xlink:href="#DejaVuSans-30"/>
      </g>
     </g>
    </g>
    <g id="ytick_3">
     <g id="line2d_9">
      <g>
       <use style="stroke:#000000;stroke-width:0.8;" x="48.51" xlink:href="#m65af72442f" y="158.976"/>
      </g>
     </g>
     <g id="text_10">
      <!-- 4000 -->
      <g transform="translate(16.06 162.775219)scale(0.1 -0.1)">
       <defs>
        <path d="M 2419 4116 
L 825 1625 
L 2419 1625 
L 2419 4116 
z
M 2253 4666 
L 3047 4666 
L 3047 1625 
L 3713 1625 
L 3713 1100 
L 3047 1100 
L 3047 0 
L 2419 0 
L 2419 1100 
L 313 1100 
L 313 1709 
L 2253 4666 
z
" id="DejaVuSans-34" transform="scale(0.015625)"/>
       </defs>
       <use xlink:href="#DejaVuSans-34"/>
       <use x="63.623047" xlink:href="#DejaVuSans-30"/>
       <use x="127.246094" xlink:href="#DejaVuSans-30"/>
       <use x="190.869141" xlink:href="#DejaVuSans-30"/>
      </g>
     </g>
    </g>
    <g id="ytick_4">
     <g id="line2d_10">
      <g>
       <use style="stroke:#000000;stroke-width:0.8;" x="48.51" xlink:href="#m65af72442f" y="120.2688"/>
      </g>
     </g>
     <g id="text_11">
      <!-- 6000 -->
      <g transform="translate(16.06 124.068019)scale(0.1 -0.1)">
       <defs>
        <path d="M 2113 2584 
Q 1688 2584 1439 2293 
Q 1191 2003 1191 1497 
Q 1191 994 1439 701 
Q 1688 409 2113 409 
Q 2538 409 2786 701 
Q 3034 994 3034 1497 
Q 3034 2003 2786 2293 
Q 2538 2584 2113 2584 
z
M 3366 4563 
L 3366 3988 
Q 3128 4100 2886 4159 
Q 2644 4219 2406 4219 
Q 1781 4219 1451 3797 
Q 1122 3375 1075 2522 
Q 1259 2794 1537 2939 
Q 1816 3084 2150 3084 
Q 2853 3084 3261 2657 
Q 3669 2231 3669 1497 
Q 3669 778 3244 343 
Q 2819 -91 2113 -91 
Q 1303 -91 875 529 
Q 447 1150 447 2328 
Q 447 3434 972 4092 
Q 1497 4750 2381 4750 
Q 2619 4750 2861 4703 
Q 3103 4656 3366 4563 
z
" id="DejaVuSans-36" transform="scale(0.015625)"/>
       </defs>
       <use xlink:href="#DejaVuSans-36"/>
       <use x="63.623047" xlink:href="#DejaVuSans-30"/>
       <use x="127.246094" xlink:href="#DejaVuSans-30"/>
       <use x="190.869141" xlink:href="#DejaVuSans-30"/>
      </g>
     </g>
    </g>
    <g id="ytick_5">
     <g id="line2d_11">
      <g>
       <use style="stroke:#000000;stroke-width:0.8;" x="48.51" xlink:href="#m65af72442f" y="81.5616"/>
      </g>
     </g>
     <g id="text_12">
      <!-- 8000 -->
      <g transform="translate(16.06 85.360819)scale(0.1 -0.1)">
       <defs>
        <path d="M 2034 2216 
Q 1584 2216 1326 1975 
Q 1069 1734 1069 1313 
Q 1069 891 1326 650 
Q 1584 409 2034 409 
Q 2484 409 2743 651 
Q 3003 894 3003 1313 
Q 3003 1734 2745 1975 
Q 2488 2216 2034 2216 
z
M 1403 2484 
Q 997 2584 770 2862 
Q 544 3141 544 3541 
Q 544 4100 942 4425 
Q 1341 4750 2034 4750 
Q 2731 4750 3128 4425 
Q 3525 4100 3525 3541 
Q 3525 3141 3298 2862 
Q 3072 2584 2669 2484 
Q 3125 2378 3379 2068 
Q 3634 1759 3634 1313 
Q 3634 634 3220 271 
Q 2806 -91 2034 -91 
Q 1263 -91 848 271 
Q 434 634 434 1313 
Q 434 1759 690 2068 
Q 947 2378 1403 2484 
z
M 1172 3481 
Q 1172 3119 1398 2916 
Q 1625 2713 2034 2713 
Q 2441 2713 2670 2916 
Q 2900 3119 2900 3481 
Q 2900 3844 2670 4047 
Q 2441 4250 2034 4250 
Q 1625 4250 1398 4047 
Q 1172 3844 1172 3481 
z
" id="DejaVuSans-38" transform="scale(0.015625)"/>
       </defs>
       <use xlink:href="#DejaVuSans-38"/>
       <use x="63.623047" xlink:href="#DejaVuSans-30"/>
       <use x="127.246094" xlink:href="#DejaVuSans-30"/>
       <use x="190.869141" xlink:href="#DejaVuSans-30"/>
      </g>
     </g>
    </g>
    <g id="ytick_6">
     <g id="line2d_12">
      <g>
       <use style="stroke:#000000;stroke-width:0.8;" x="48.51" xlink:href="#m65af72442f" y="42.8544"/>
      </g>
     </g>
     <g id="text_13">
      <!-- 10000 -->
      <g transform="translate(9.6975 46.653619)scale(0.1 -0.1)">
       <use xlink:href="#DejaVuSans-31"/>
       <use x="63.623047" xlink:href="#DejaVuSans-30"/>
       <use x="127.246094" xlink:href="#DejaVuSans-30"/>
       <use x="190.869141" xlink:href="#DejaVuSans-30"/>
       <use x="254.492188" xlink:href="#DejaVuSans-30"/>
      </g>
     </g>
    </g>
   </g>
   <g id="line2d_13">
    <path clip-path="url(#p70cbcc8416)" d="M 62.181 42.8544 
L 64.099737 77.400576 
L 66.018474 106.295501 
L 68.896579 139.970765 
L 70.815316 158.027674 
L 72.734053 171.691315 
L 73.693421 177.768346 
L 74.652789 183.129293 
L 77.530895 196.580045 
L 79.449632 204.069888 
L 83.287105 214.598246 
L 85.205842 218.856038 
L 87.124579 221.817139 
L 88.083947 223.094477 
L 91.921421 227.294208 
L 93.840158 228.842496 
L 95.758895 229.965005 
L 101.515105 232.809984 
L 102.474474 233.177702 
L 107.271316 234.106675 
L 108.230684 234.377626 
L 110.149421 234.66793 
L 121.661842 235.964621 
L 123.580579 236.022682 
L 125.499316 236.17751 
L 133.174263 236.274278 
L 142.767947 236.371046 
L 335.601 236.3904 
L 335.601 236.3904 
" style="fill:none;stroke:#1f77b4;stroke-linecap:square;stroke-width:1.5;"/>
   </g>
   <g id="line2d_14">
    <path clip-path="url(#p70cbcc8416)" d="M 62.181 236.3904 
L 63.140368 219.610829 
L 64.099737 205.095629 
L 65.059105 193.773773 
L 66.018474 184.754995 
L 67.937211 173.568614 
L 68.896579 170.065613 
L 70.815316 166.078771 
L 71.774684 165.691699 
L 72.734053 166.291661 
L 73.693421 167.452877 
L 74.652789 169.233408 
L 75.612158 171.420365 
L 76.571526 174.323405 
L 77.530895 176.471654 
L 78.490263 178.290893 
L 81.368368 186.051686 
L 83.287105 190.309478 
L 84.246474 192.651264 
L 85.205842 195.670426 
L 86.165211 197.799322 
L 87.124579 200.276582 
L 88.083947 202.366771 
L 89.043316 204.785971 
L 94.799526 215.198208 
L 96.718263 218.314138 
L 99.596368 221.642957 
L 100.555737 222.62999 
L 101.515105 223.404134 
L 103.433842 225.455616 
L 104.393211 226.036224 
L 107.271316 228.43607 
L 110.149421 229.906944 
L 115.905632 232.345498 
L 120.702474 233.545421 
L 122.621211 234.164736 
L 125.499316 234.513101 
L 127.418053 234.93888 
L 129.336789 235.229184 
L 131.255526 235.403366 
L 134.133632 235.732378 
L 148.524158 236.216218 
L 160.995947 236.371046 
L 335.601 236.3904 
L 335.601 236.3904 
" style="fill:none;stroke:#ff7f0e;stroke-linecap:square;stroke-width:1.5;"/>
   </g>
   <g id="line2d_15">
    <path clip-path="url(#p70cbcc8416)" d="M 62.181 236.3904 
L 63.140368 235.403366 
L 64.099737 233.371238 
L 65.059105 229.984358 
L 66.018474 226.152346 
L 69.855947 207.224525 
L 73.693421 194.180198 
L 74.652789 191.39328 
L 75.612158 189.206323 
L 76.571526 186.34199 
L 77.530895 185.084006 
L 78.490263 184.522752 
L 79.449632 183.671194 
L 81.368368 184.174387 
L 82.327737 183.942144 
L 84.246474 185.219482 
L 85.205842 185.296896 
L 86.165211 186.980659 
L 87.124579 187.987046 
L 88.083947 189.961114 
L 89.043316 190.986854 
L 90.002684 192.419021 
L 91.921421 195.670426 
L 92.880789 196.696166 
L 93.840158 198.244454 
L 97.677632 203.082854 
L 99.596368 206.160077 
L 100.555737 207.979315 
L 102.474474 210.95977 
L 103.433842 212.004864 
L 105.352579 215.082086 
L 107.271316 217.017446 
L 108.230684 218.430259 
L 112.068158 222.262272 
L 113.027526 222.784819 
L 114.946263 224.352461 
L 115.905632 225.107251 
L 116.865 225.649152 
L 117.824368 226.326528 
L 118.783737 226.655539 
L 120.702474 227.932877 
L 127.418053 230.623027 
L 129.336789 231.416525 
L 133.174263 232.422912 
L 135.093 233.197056 
L 136.052368 233.351885 
L 139.889842 234.358272 
L 141.808579 234.571162 
L 143.727316 234.861466 
L 145.646053 235.248538 
L 151.402263 235.69367 
L 154.280368 235.848499 
L 162.914684 236.11945 
L 167.711526 236.235571 
L 178.264579 236.293632 
L 180.183316 236.351693 
L 335.601 236.3904 
L 335.601 236.3904 
" style="fill:none;stroke:#2ca02c;stroke-linecap:square;stroke-width:1.5;"/>
   </g>
   <g id="line2d_16">
    <path clip-path="url(#p70cbcc8416)" d="M 62.181 236.3904 
L 63.140368 236.371046 
L 64.099737 236.17751 
L 66.018474 235.093709 
L 67.937211 233.042227 
L 69.855947 229.171507 
L 77.530895 209.005056 
L 78.490263 207.14711 
L 81.368368 200.450765 
L 83.287105 197.95415 
L 84.246474 196.289741 
L 85.205842 195.128525 
L 86.165211 194.431795 
L 87.124579 193.522176 
L 88.083947 192.941568 
L 89.043316 192.864154 
L 90.002684 192.593203 
L 90.962053 192.728678 
L 91.921421 193.406054 
L 92.880789 194.393088 
L 93.840158 194.50921 
L 95.758895 196.192973 
L 96.718263 196.773581 
L 97.677632 197.528371 
L 98.637 198.43799 
L 99.596368 199.076659 
L 100.555737 199.541146 
L 105.352579 204.18601 
L 106.311947 204.979507 
L 107.271316 206.972928 
L 108.230684 207.592243 
L 109.190053 209.121178 
L 110.149421 210.282394 
L 111.108789 210.940416 
L 112.068158 212.430643 
L 113.027526 213.475738 
L 113.986895 214.056346 
L 114.946263 214.849843 
L 116.865 216.959386 
L 118.783737 219.049574 
L 119.743105 219.823718 
L 120.702474 220.326912 
L 122.621211 222.455808 
L 123.580579 223.171891 
L 124.539947 223.655731 
L 125.499316 223.984742 
L 127.418053 224.894362 
L 128.377421 225.165312 
L 132.214895 227.990938 
L 134.133632 228.494131 
L 138.930474 230.719795 
L 139.889842 230.990746 
L 141.808579 232.132608 
L 144.686684 232.73257 
L 146.605421 233.235763 
L 147.564789 233.390592 
L 149.483526 233.913139 
L 150.442895 234.145382 
L 160.995947 235.403366 
L 165.792789 235.577549 
L 173.467737 235.964621 
L 175.386474 235.964621 
L 178.264579 236.061389 
L 182.102053 236.042035 
L 184.980158 236.11945 
L 188.817632 236.196864 
L 196.492579 236.293632 
L 205.126895 236.371046 
L 209.923737 236.371046 
L 335.601 236.3904 
L 335.601 236.3904 
" style="fill:none;stroke:#d62728;stroke-linecap:square;stroke-width:1.5;"/>
   </g>
   <g id="line2d_17">
    <path clip-path="url(#p70cbcc8416)" d="M 62.181 236.3904 
L 65.059105 236.332339 
L 68.896579 235.403366 
L 69.855947 234.842112 
L 71.774684 233.332531 
L 72.734053 232.403558 
L 73.693421 231.300403 
L 74.652789 229.694054 
L 75.612158 228.494131 
L 77.530895 225.53303 
L 78.490263 223.520256 
L 80.409 220.501094 
L 81.368368 218.410906 
L 83.287105 215.062733 
L 84.246474 213.707981 
L 85.205842 211.850035 
L 86.165211 209.663078 
L 87.124579 208.617984 
L 88.083947 206.547149 
L 91.921421 201.940992 
L 92.880789 200.663654 
L 93.840158 200.179814 
L 94.799526 199.541146 
L 95.758895 199.192781 
L 96.718263 199.521792 
L 98.637 198.92183 
L 99.596368 199.212134 
L 100.555737 198.689587 
L 101.515105 199.057306 
L 102.474474 199.076659 
L 105.352579 200.450765 
L 106.311947 201.418445 
L 107.271316 201.128141 
L 108.230684 201.379738 
L 110.149421 202.328064 
L 111.108789 203.431219 
L 112.068158 204.050534 
L 113.986895 206.372966 
L 116.865 208.695398 
L 117.824368 209.179238 
L 120.702474 212.159693 
L 121.661842 212.662886 
L 124.539947 215.546573 
L 125.499316 216.34007 
L 127.418053 218.527027 
L 129.336789 219.765658 
L 130.296158 220.114022 
L 131.255526 220.810752 
L 132.214895 221.139763 
L 133.174263 222.165504 
L 134.133632 222.881587 
L 135.093 222.978355 
L 139.889842 225.668506 
L 142.767947 226.907136 
L 147.564789 229.268275 
L 148.524158 229.655347 
L 149.483526 229.848883 
L 152.361632 230.952038 
L 154.280368 231.493939 
L 155.239737 231.977779 
L 157.158474 232.616448 
L 160.036579 233.177702 
L 160.995947 233.526067 
L 164.833421 234.106675 
L 165.792789 234.338918 
L 166.752158 234.319565 
L 168.670895 234.687283 
L 172.508368 234.977587 
L 175.386474 235.325952 
L 177.305211 235.345306 
L 181.142684 235.732378 
L 183.061421 235.829146 
L 206.086263 236.196864 
L 208.964368 236.216218 
L 219.517421 236.332339 
L 335.601 236.3904 
L 335.601 236.3904 
" style="fill:none;stroke:#9467bd;stroke-linecap:square;stroke-width:1.5;"/>
   </g>
   <g id="line2d_18">
    <path clip-path="url(#p70cbcc8416)" d="M 62.181 236.3904 
L 68.896579 236.293632 
L 72.734053 235.577549 
L 73.693421 235.306598 
L 75.612158 234.300211 
L 76.571526 233.661542 
L 77.530895 233.235763 
L 78.490263 232.326144 
L 79.449632 231.06816 
L 81.368368 229.384397 
L 82.327737 228.474778 
L 83.287105 227.19744 
L 86.165211 223.868621 
L 87.124579 222.300979 
L 88.083947 221.023642 
L 89.043316 219.339878 
L 90.002684 218.21737 
L 91.921421 215.217562 
L 92.880789 214.095053 
L 94.799526 211.327488 
L 95.758895 209.934029 
L 98.637 206.643917 
L 99.596368 205.327872 
L 100.555737 205.250458 
L 101.515105 204.340838 
L 104.393211 202.5216 
L 105.352579 202.424832 
L 106.311947 201.960346 
L 107.271316 202.076467 
L 108.230684 201.979699 
L 109.190053 202.03776 
L 110.149421 202.657075 
L 111.108789 202.405478 
L 113.027526 202.386125 
L 114.946263 203.353805 
L 115.905632 203.315098 
L 116.865 204.282778 
L 117.824368 204.785971 
L 118.783737 205.502054 
L 119.743105 205.618176 
L 121.661842 206.701978 
L 122.621211 206.508442 
L 124.539947 208.308326 
L 125.499316 209.740493 
L 127.418053 210.572698 
L 129.336789 212.101632 
L 130.296158 212.624179 
L 131.255526 213.301555 
L 132.214895 214.462771 
L 134.133632 215.565926 
L 135.093 216.669082 
L 137.011737 218.27543 
L 139.889842 219.552768 
L 141.808579 220.384973 
L 143.727316 221.333299 
L 144.686684 221.817139 
L 145.646053 222.533222 
L 146.605421 223.036416 
L 147.564789 223.907328 
L 149.483526 225.184666 
L 150.442895 225.591091 
L 152.361632 226.98455 
L 157.158474 228.358656 
L 158.117842 228.900557 
L 163.874053 230.79721 
L 164.833421 231.261696 
L 165.792789 231.358464 
L 166.752158 231.745536 
L 167.711526 231.958426 
L 168.670895 232.055194 
L 170.589632 232.655155 
L 171.549 232.713216 
L 177.305211 233.797018 
L 178.264579 233.816371 
L 180.183316 234.106675 
L 181.142684 234.106675 
L 183.061421 234.416333 
L 186.898895 234.93888 
L 188.817632 235.055002 
L 192.655105 235.384013 
L 196.492579 235.63561 
L 201.289421 235.925914 
L 209.923737 236.17751 
L 227.192368 236.254925 
L 231.989211 236.351693 
L 335.601 236.3904 
L 335.601 236.3904 
" style="fill:none;stroke:#8c564b;stroke-linecap:square;stroke-width:1.5;"/>
   </g>
   <g id="line2d_19">
    <path clip-path="url(#p70cbcc8416)" d="M 62.181 236.3904 
L 70.815316 236.351693 
L 76.571526 235.790438 
L 78.490263 235.306598 
L 79.449632 235.093709 
L 81.368368 234.126029 
L 82.327737 233.545421 
L 83.287105 233.138995 
L 84.246474 232.229376 
L 86.165211 230.874624 
L 88.083947 229.306982 
L 89.043316 228.455424 
L 92.880789 224.313754 
L 93.840158 223.05577 
L 94.799526 222.030029 
L 95.758895 220.752691 
L 97.677632 218.836685 
L 99.596368 217.365811 
L 100.555737 216.011059 
L 101.515105 215.062733 
L 103.433842 212.720947 
L 104.393211 212.082278 
L 107.271316 209.372774 
L 108.230684 209.159885 
L 110.149421 206.450381 
L 111.108789 206.334259 
L 112.068158 205.90848 
L 113.027526 205.734298 
L 113.986895 205.21175 
L 114.946263 205.037568 
L 115.905632 205.327872 
L 116.865 204.882739 
L 117.824368 204.902093 
L 118.783737 204.360192 
L 119.743105 204.747264 
L 121.661842 205.173043 
L 122.621211 205.69559 
L 123.580579 205.676237 
L 124.539947 205.947187 
L 125.499316 205.985894 
L 126.458684 206.527795 
L 127.418053 206.701978 
L 128.377421 207.36 
L 129.336789 207.805133 
L 130.296158 208.714752 
L 131.255526 209.101824 
L 132.214895 209.140531 
L 133.174263 209.527603 
L 135.093 210.766234 
L 136.052368 211.153306 
L 137.011737 211.366195 
L 143.727316 216.533606 
L 144.686684 216.649728 
L 145.646053 216.920678 
L 146.605421 217.830298 
L 147.564789 217.965773 
L 148.524158 218.410906 
L 150.442895 220.055962 
L 151.402263 220.21079 
L 152.361632 220.713984 
L 153.321 221.488128 
L 155.239737 222.668698 
L 156.199105 223.520256 
L 158.117842 224.468582 
L 159.077211 225.029837 
L 160.995947 225.649152 
L 161.955316 225.920102 
L 162.914684 226.44265 
L 167.711526 228.087706 
L 168.670895 228.629606 
L 170.589632 228.977971 
L 171.549 229.461811 
L 173.467737 230.081126 
L 174.427105 230.31337 
L 177.305211 231.397171 
L 179.223947 231.726182 
L 181.142684 232.287437 
L 182.102053 232.30679 
L 184.020789 232.848691 
L 184.980158 233.061581 
L 185.939526 233.061581 
L 188.817632 233.680896 
L 189.777 234.009907 
L 192.655105 234.377626 
L 196.492579 234.842112 
L 197.451947 234.803405 
L 198.411316 235.016294 
L 201.289421 235.20983 
L 204.167526 235.42272 
L 224.314263 236.138803 
L 228.151737 236.196864 
L 230.070474 236.254925 
L 231.989211 236.196864 
L 234.867316 236.235571 
L 255.014053 236.312986 
L 257.892158 236.332339 
L 335.601 236.3904 
L 335.601 236.3904 
" style="fill:none;stroke:#e377c2;stroke-linecap:square;stroke-width:1.5;"/>
   </g>
   <g id="line2d_20">
    <path clip-path="url(#p70cbcc8416)" d="M 62.181 236.3904 
L 76.571526 236.332339 
L 79.449632 236.042035 
L 85.205842 234.784051 
L 90.002684 232.945459 
L 95.758895 229.287629 
L 96.718263 227.932877 
L 97.677632 227.332915 
L 99.596368 225.184666 
L 100.555737 224.739533 
L 101.515105 223.965389 
L 102.474474 223.694438 
L 103.433842 223.152538 
L 104.393211 221.526835 
L 105.352579 220.21079 
L 108.230684 217.094861 
L 110.149421 215.604634 
L 111.108789 214.307942 
L 113.027526 213.224141 
L 113.986895 212.295168 
L 114.946263 211.850035 
L 116.865 210.514637 
L 118.783737 209.934029 
L 119.743105 209.256653 
L 122.621211 208.54057 
L 124.539947 207.534182 
L 125.499316 206.779392 
L 126.458684 207.050342 
L 127.418053 207.050342 
L 130.296158 205.889126 
L 131.255526 206.353613 
L 133.174263 206.934221 
L 134.133632 207.418061 
L 136.052368 208.153498 
L 137.011737 208.927642 
L 138.930474 209.605018 
L 142.767947 210.804941 
L 143.727316 211.01783 
L 144.686684 211.888742 
L 145.646053 212.391936 
L 146.605421 212.46935 
L 148.524158 213.069312 
L 150.442895 213.998285 
L 153.321 216.088474 
L 154.280368 216.727142 
L 155.239737 217.133568 
L 156.199105 217.675469 
L 157.158474 218.565734 
L 158.117842 218.662502 
L 159.077211 219.281818 
L 160.036579 219.72695 
L 161.955316 221.101056 
L 162.914684 221.275238 
L 164.833421 221.971968 
L 167.711526 223.268659 
L 168.670895 223.59767 
L 170.589632 224.913715 
L 174.427105 226.326528 
L 175.386474 226.810368 
L 176.345842 227.139379 
L 178.264579 228.184474 
L 180.183316 228.842496 
L 181.142684 229.190861 
L 182.102053 229.752115 
L 184.020789 230.081126 
L 184.980158 230.506906 
L 186.898895 231.087514 
L 187.858263 231.184282 
L 188.817632 231.474586 
L 189.777 231.532646 
L 190.736368 231.958426 
L 191.695737 231.977779 
L 193.614474 232.345498 
L 196.492579 232.558387 
L 197.451947 232.79063 
L 198.411316 232.868045 
L 199.370684 233.158349 
L 200.330053 233.27447 
L 201.289421 233.642189 
L 202.248789 233.719603 
L 203.208158 233.990554 
L 204.167526 234.048614 
L 205.126895 234.319565 
L 207.045632 234.532454 
L 208.964368 234.861466 
L 212.801842 235.15177 
L 214.720579 235.42272 
L 216.639316 235.345306 
L 220.476789 235.654963 
L 229.111105 235.925914 
L 231.029842 236.003328 
L 233.907947 236.080742 
L 245.420368 236.235571 
L 250.217211 236.235571 
L 255.973421 236.254925 
L 262.689 236.332339 
L 265.567105 236.371046 
L 335.601 236.3904 
L 335.601 236.3904 
" style="fill:none;stroke:#7f7f7f;stroke-linecap:square;stroke-width:1.5;"/>
   </g>
   <g id="line2d_21">
    <path clip-path="url(#p70cbcc8416)" d="M 62.181 236.3904 
L 78.490263 236.293632 
L 85.205842 235.867853 
L 87.124579 235.596902 
L 89.043316 235.035648 
L 91.921421 234.45504 
L 92.880789 234.009907 
L 96.718263 233.061581 
L 97.677632 232.345498 
L 98.637 232.132608 
L 99.596368 231.648768 
L 101.515105 229.945651 
L 102.474474 228.91991 
L 103.433842 228.300595 
L 104.393211 227.874816 
L 105.352579 227.68128 
L 107.271316 226.462003 
L 108.230684 225.610445 
L 109.190053 225.339494 
L 111.108789 224.371814 
L 112.068158 223.481549 
L 113.027526 222.126797 
L 113.986895 221.507482 
L 114.946263 220.172083 
L 115.905632 219.18505 
L 116.865 218.604442 
L 118.783737 216.978739 
L 119.743105 216.456192 
L 120.702474 215.353037 
L 121.661842 214.965965 
L 123.580579 213.901517 
L 124.539947 213.43703 
L 125.499316 213.43703 
L 127.418053 212.024218 
L 129.336789 211.791974 
L 130.296158 211.366195 
L 131.255526 210.785587 
L 133.174263 209.99209 
L 134.133632 209.7792 
L 135.093 209.217946 
L 136.052368 208.888934 
L 137.971105 208.676045 
L 139.889842 209.02441 
L 140.849211 209.198592 
L 141.808579 209.56631 
L 143.727316 209.972736 
L 144.686684 210.379162 
L 145.646053 210.301747 
L 146.605421 210.592051 
L 147.564789 211.211366 
L 148.524158 211.288781 
L 149.483526 211.056538 
L 150.442895 211.695206 
L 151.402263 212.062925 
L 152.361632 212.120986 
L 155.239737 212.856422 
L 156.199105 212.875776 
L 157.158474 213.108019 
L 158.117842 213.804749 
L 159.077211 214.230528 
L 160.036579 215.198208 
L 160.995947 215.817523 
L 161.955316 216.127181 
L 164.833421 218.101248 
L 165.792789 218.449613 
L 166.752158 218.991514 
L 167.711526 219.281818 
L 168.670895 219.746304 
L 169.630263 220.559155 
L 170.589632 220.849459 
L 173.467737 222.436454 
L 174.427105 222.804173 
L 176.345842 223.288013 
L 177.305211 223.288013 
L 178.264579 223.887974 
L 179.223947 224.042803 
L 181.142684 224.797594 
L 182.102053 224.971776 
L 184.980158 226.191053 
L 185.939526 226.597478 
L 186.898895 226.829722 
L 188.817632 227.603866 
L 190.736368 228.145766 
L 191.695737 228.745728 
L 196.492579 230.58432 
L 200.330053 230.990746 
L 201.289421 231.087514 
L 202.248789 231.319757 
L 203.208158 231.358464 
L 204.167526 231.745536 
L 208.964368 232.597094 
L 209.923737 232.964813 
L 213.761211 233.719603 
L 218.558053 234.416333 
L 220.476789 234.609869 
L 222.395526 234.803405 
L 225.273632 234.996941 
L 227.192368 235.248538 
L 235.826684 235.887206 
L 259.810895 236.274278 
L 334.641632 236.371046 
L 335.601 236.3904 
L 335.601 236.3904 
" style="fill:none;stroke:#bcbd22;stroke-linecap:square;stroke-width:1.5;"/>
   </g>
   <g id="line2d_22">
    <path clip-path="url(#p70cbcc8416)" d="M 62.181 236.3904 
L 83.287105 236.312986 
L 89.043316 236.003328 
L 94.799526 234.706637 
L 98.637 233.27447 
L 101.515105 231.76489 
L 104.393211 229.61664 
L 105.352579 228.552192 
L 108.230684 225.803981 
L 111.108789 221.933261 
L 112.068158 220.462387 
L 113.027526 219.320525 
L 115.905632 214.811136 
L 117.824368 210.824294 
L 119.743105 207.030989 
L 120.702474 205.056922 
L 122.621211 200.412058 
L 130.296158 181.755187 
L 133.174263 174.071808 
L 134.133632 171.207475 
L 136.052368 166.136832 
L 137.971105 160.446874 
L 144.686684 141.383578 
L 145.646053 139.119206 
L 148.524158 131.629363 
L 149.483526 129.403699 
L 150.442895 126.442598 
L 153.321 118.972109 
L 155.239737 114.559488 
L 159.077211 105.7536 
L 160.995947 100.992614 
L 166.752158 90.019123 
L 167.711526 88.567603 
L 168.670895 86.88384 
L 169.630263 84.754944 
L 172.508368 80.342323 
L 173.467737 78.697267 
L 176.345842 74.845901 
L 177.305211 73.723392 
L 178.264579 72.36864 
L 180.183316 70.278451 
L 182.102053 68.072141 
L 184.980158 64.84009 
L 186.898895 63.020851 
L 192.655105 57.872794 
L 194.573842 56.537395 
L 196.492579 55.260058 
L 199.370684 53.924659 
L 202.248789 52.415078 
L 204.167526 51.408691 
L 206.086263 50.518426 
L 215.679947 46.957363 
L 219.517421 46.24128 
L 222.395526 45.641318 
L 224.314263 45.370368 
L 227.192368 44.847821 
L 231.989211 44.286566 
L 235.826684 43.841434 
L 241.582895 43.589837 
L 252.135947 43.241472 
L 256.932789 43.183411 
L 258.851526 43.12535 
L 269.404579 43.028582 
L 273.242053 42.970522 
L 280.917 42.912461 
L 335.601 42.8544 
L 335.601 42.8544 
" style="fill:none;stroke:#17becf;stroke-linecap:square;stroke-width:1.5;"/>
   </g>
   <g id="patch_3">
    <path d="M 48.51 246.0672 
L 48.51 33.1776 
" style="fill:none;stroke:#000000;stroke-linecap:square;stroke-linejoin:miter;stroke-width:0.8;"/>
   </g>
   <g id="patch_4">
    <path d="M 349.272 246.0672 
L 349.272 33.1776 
" style="fill:none;stroke:#000000;stroke-linecap:square;stroke-linejoin:miter;stroke-width:0.8;"/>
   </g>
   <g id="patch_5">
    <path d="M 48.51 246.0672 
L 349.272 246.0672 
" style="fill:none;stroke:#000000;stroke-linecap:square;stroke-linejoin:miter;stroke-width:0.8;"/>
   </g>
   <g id="patch_6">
    <path d="M 48.51 33.1776 
L 349.272 33.1776 
" style="fill:none;stroke:#000000;stroke-linecap:square;stroke-linejoin:miter;stroke-width:0.8;"/>
   </g>
   <g id="text_14">
    <!-- unimolecular decay -->
    <g transform="translate(139.897875 27.1776)scale(0.12 -0.12)">
     <defs>
      <path d="M 603 4863 
L 1178 4863 
L 1178 0 
L 603 0 
L 603 4863 
z
" id="DejaVuSans-6c" transform="scale(0.015625)"/>
      <path d="M 2194 1759 
Q 1497 1759 1228 1600 
Q 959 1441 959 1056 
Q 959 750 1161 570 
Q 1363 391 1709 391 
Q 2188 391 2477 730 
Q 2766 1069 2766 1631 
L 2766 1759 
L 2194 1759 
z
M 3341 1997 
L 3341 0 
L 2766 0 
L 2766 531 
Q 2569 213 2275 61 
Q 1981 -91 1556 -91 
Q 1019 -91 701 211 
Q 384 513 384 1019 
Q 384 1609 779 1909 
Q 1175 2209 1959 2209 
L 2766 2209 
L 2766 2266 
Q 2766 2663 2505 2880 
Q 2244 3097 1772 3097 
Q 1472 3097 1187 3025 
Q 903 2953 641 2809 
L 641 3341 
Q 956 3463 1253 3523 
Q 1550 3584 1831 3584 
Q 2591 3584 2966 3190 
Q 3341 2797 3341 1997 
z
" id="DejaVuSans-61" transform="scale(0.015625)"/>
      <path d="M 2631 2963 
Q 2534 3019 2420 3045 
Q 2306 3072 2169 3072 
Q 1681 3072 1420 2755 
Q 1159 2438 1159 1844 
L 1159 0 
L 581 0 
L 581 3500 
L 1159 3500 
L 1159 2956 
Q 1341 3275 1631 3429 
Q 1922 3584 2338 3584 
Q 2397 3584 2469 3576 
Q 2541 3569 2628 3553 
L 2631 2963 
z
" id="DejaVuSans-72" transform="scale(0.015625)"/>
      <path d="M 2906 2969 
L 2906 4863 
L 3481 4863 
L 3481 0 
L 2906 0 
L 2906 525 
Q 2725 213 2448 61 
Q 2172 -91 1784 -91 
Q 1150 -91 751 415 
Q 353 922 353 1747 
Q 353 2572 751 3078 
Q 1150 3584 1784 3584 
Q 2172 3584 2448 3432 
Q 2725 3281 2906 2969 
z
M 947 1747 
Q 947 1113 1208 752 
Q 1469 391 1925 391 
Q 2381 391 2643 752 
Q 2906 1113 2906 1747 
Q 2906 2381 2643 2742 
Q 2381 3103 1925 3103 
Q 1469 3103 1208 2742 
Q 947 2381 947 1747 
z
" id="DejaVuSans-64" transform="scale(0.015625)"/>
      <path d="M 2059 -325 
Q 1816 -950 1584 -1140 
Q 1353 -1331 966 -1331 
L 506 -1331 
L 506 -850 
L 844 -850 
Q 1081 -850 1212 -737 
Q 1344 -625 1503 -206 
L 1606 56 
L 191 3500 
L 800 3500 
L 1894 763 
L 2988 3500 
L 3597 3500 
L 2059 -325 
z
" id="DejaVuSans-79" transform="scale(0.015625)"/>
     </defs>
     <use xlink:href="#DejaVuSans-75"/>
     <use x="63.378906" xlink:href="#DejaVuSans-6e"/>
     <use x="126.757812" xlink:href="#DejaVuSans-69"/>
     <use x="154.541016" xlink:href="#DejaVuSans-6d"/>
     <use x="251.953125" xlink:href="#DejaVuSans-6f"/>
     <use x="313.134766" xlink:href="#DejaVuSans-6c"/>
     <use x="340.917969" xlink:href="#DejaVuSans-65"/>
     <use x="402.441406" xlink:href="#DejaVuSans-63"/>
     <use x="457.421875" xlink:href="#DejaVuSans-75"/>
     <use x="520.800781" xlink:href="#DejaVuSans-6c"/>
     <use x="548.583984" xlink:href="#DejaVuSans-61"/>
     <use x="609.863281" xlink:href="#DejaVuSans-72"/>
     <use x="650.976562" xlink:href="#DejaVuSans-20"/>
     <use x="682.763672" xlink:href="#DejaVuSans-64"/>
     <use x="746.240234" xlink:href="#DejaVuSans-65"/>
     <use x="807.763672" xlink:href="#DejaVuSans-63"/>
     <use x="862.744141" xlink:href="#DejaVuSans-61"/>
     <use x="924.023438" xlink:href="#DejaVuSans-79"/>
    </g>
   </g>
   <g id="legend_1">
    <g id="patch_7">
     <path d="M 303.9095 214.513025 
L 342.272 214.513025 
Q 344.272 214.513025 344.272 212.513025 
L 344.272 66.731775 
Q 344.272 64.731775 342.272 64.731775 
L 303.9095 64.731775 
Q 301.9095 64.731775 301.9095 66.731775 
L 301.9095 212.513025 
Q 301.9095 214.513025 303.9095 214.513025 
z
" style="fill:#ffffff;opacity:0.8;stroke:#cccccc;stroke-linejoin:miter;"/>
    </g>
    <g id="line2d_23">
     <path d="M 305.9095 72.830213 
L 325.9095 72.830213 
" style="fill:none;stroke:#1f77b4;stroke-linecap:square;stroke-width:1.5;"/>
    </g>
    <g id="line2d_24"/>
    <g id="text_15">
     <!-- 0 -->
     <g transform="translate(333.9095 76.330213)scale(0.1 -0.1)">
      <use xlink:href="#DejaVuSans-30"/>
     </g>
    </g>
    <g id="line2d_25">
     <path d="M 305.9095 87.508338 
L 325.9095 87.508338 
" style="fill:none;stroke:#ff7f0e;stroke-linecap:square;stroke-width:1.5;"/>
    </g>
    <g id="line2d_26"/>
    <g id="text_16">
     <!-- 1 -->
     <g transform="translate(333.9095 91.008338)scale(0.1 -0.1)">
      <use xlink:href="#DejaVuSans-31"/>
     </g>
    </g>
    <g id="line2d_27">
     <path d="M 305.9095 102.186463 
L 325.9095 102.186463 
" style="fill:none;stroke:#2ca02c;stroke-linecap:square;stroke-width:1.5;"/>
    </g>
    <g id="line2d_28"/>
    <g id="text_17">
     <!-- 2 -->
     <g transform="translate(333.9095 105.686463)scale(0.1 -0.1)">
      <use xlink:href="#DejaVuSans-32"/>
     </g>
    </g>
    <g id="line2d_29">
     <path d="M 305.9095 116.864588 
L 325.9095 116.864588 
" style="fill:none;stroke:#d62728;stroke-linecap:square;stroke-width:1.5;"/>
    </g>
    <g id="line2d_30"/>
    <g id="text_18">
     <!-- 3 -->
     <g transform="translate(333.9095 120.364588)scale(0.1 -0.1)">
      <defs>
       <path d="M 2597 2516 
Q 3050 2419 3304 2112 
Q 3559 1806 3559 1356 
Q 3559 666 3084 287 
Q 2609 -91 1734 -91 
Q 1441 -91 1130 -33 
Q 819 25 488 141 
L 488 750 
Q 750 597 1062 519 
Q 1375 441 1716 441 
Q 2309 441 2620 675 
Q 2931 909 2931 1356 
Q 2931 1769 2642 2001 
Q 2353 2234 1838 2234 
L 1294 2234 
L 1294 2753 
L 1863 2753 
Q 2328 2753 2575 2939 
Q 2822 3125 2822 3475 
Q 2822 3834 2567 4026 
Q 2313 4219 1838 4219 
Q 1578 4219 1281 4162 
Q 984 4106 628 3988 
L 628 4550 
Q 988 4650 1302 4700 
Q 1616 4750 1894 4750 
Q 2613 4750 3031 4423 
Q 3450 4097 3450 3541 
Q 3450 3153 3228 2886 
Q 3006 2619 2597 2516 
z
" id="DejaVuSans-33" transform="scale(0.015625)"/>
      </defs>
      <use xlink:href="#DejaVuSans-33"/>
     </g>
    </g>
    <g id="line2d_31">
     <path d="M 305.9095 131.542713 
L 325.9095 131.542713 
" style="fill:none;stroke:#9467bd;stroke-linecap:square;stroke-width:1.5;"/>
    </g>
    <g id="line2d_32"/>
    <g id="text_19">
     <!-- 4 -->
     <g transform="translate(333.9095 135.042713)scale(0.1 -0.1)">
      <use xlink:href="#DejaVuSans-34"/>
     </g>
    </g>
    <g id="line2d_33">
     <path d="M 305.9095 146.220838 
L 325.9095 146.220838 
" style="fill:none;stroke:#8c564b;stroke-linecap:square;stroke-width:1.5;"/>
    </g>
    <g id="line2d_34"/>
    <g id="text_20">
     <!-- 5 -->
     <g transform="translate(333.9095 149.720838)scale(0.1 -0.1)">
      <use xlink:href="#DejaVuSans-35"/>
     </g>
    </g>
    <g id="line2d_35">
     <path d="M 305.9095 160.898963 
L 325.9095 160.898963 
" style="fill:none;stroke:#e377c2;stroke-linecap:square;stroke-width:1.5;"/>
    </g>
    <g id="line2d_36"/>
    <g id="text_21">
     <!-- 6 -->
     <g transform="translate(333.9095 164.398963)scale(0.1 -0.1)">
      <use xlink:href="#DejaVuSans-36"/>
     </g>
    </g>
    <g id="line2d_37">
     <path d="M 305.9095 175.577088 
L 325.9095 175.577088 
" style="fill:none;stroke:#7f7f7f;stroke-linecap:square;stroke-width:1.5;"/>
    </g>
    <g id="line2d_38"/>
    <g id="text_22">
     <!-- 7 -->
     <g transform="translate(333.9095 179.077088)scale(0.1 -0.1)">
      <defs>
       <path d="M 525 4666 
L 3525 4666 
L 3525 4397 
L 1831 0 
L 1172 0 
L 2766 4134 
L 525 4134 
L 525 4666 
z
" id="DejaVuSans-37" transform="scale(0.015625)"/>
      </defs>
      <use xlink:href="#DejaVuSans-37"/>
     </g>
    </g>
    <g id="line2d_39">
     <path d="M 305.9095 190.255213 
L 325.9095 190.255213 
" style="fill:none;stroke:#bcbd22;stroke-linecap:square;stroke-width:1.5;"/>
    </g>
    <g id="line2d_40"/>
    <g id="text_23">
     <!-- 8 -->
     <g transform="translate(333.9095 193.755213)scale(0.1 -0.1)">
      <use xlink:href="#DejaVuSans-38"/>
     </g>
    </g>
    <g id="line2d_41">
     <path d="M 305.9095 204.933337 
L 325.9095 204.933337 
" style="fill:none;stroke:#17becf;stroke-linecap:square;stroke-width:1.5;"/>
    </g>
    <g id="line2d_42"/>
    <g id="text_24">
     <!-- 9 -->
     <g transform="translate(333.9095 208.433337)scale(0.1 -0.1)">
      <defs>
       <path d="M 703 97 
L 703 672 
Q 941 559 1184 500 
Q 1428 441 1663 441 
Q 2288 441 2617 861 
Q 2947 1281 2994 2138 
Q 2813 1869 2534 1725 
Q 2256 1581 1919 1581 
Q 1219 1581 811 2004 
Q 403 2428 403 3163 
Q 403 3881 828 4315 
Q 1253 4750 1959 4750 
Q 2769 4750 3195 4129 
Q 3622 3509 3622 2328 
Q 3622 1225 3098 567 
Q 2575 -91 1691 -91 
Q 1453 -91 1209 -44 
Q 966 3 703 97 
z
M 1959 2075 
Q 2384 2075 2632 2365 
Q 2881 2656 2881 3163 
Q 2881 3666 2632 3958 
Q 2384 4250 1959 4250 
Q 1534 4250 1286 3958 
Q 1038 3666 1038 3163 
Q 1038 2656 1286 2365 
Q 1534 2075 1959 2075 
z
" id="DejaVuSans-39" transform="scale(0.015625)"/>
      </defs>
      <use xlink:href="#DejaVuSans-39"/>
     </g>
    </g>
   </g>
  </g>
 </g>
 <defs>
  <clipPath id="p70cbcc8416">
   <rect height="212.8896" width="300.762" x="48.51" y="33.1776"/>
  </clipPath>
 </defs>
</svg>
